<mxfile host="app.diagrams.net" modified="2020-08-11T15:59:21.472Z" agent="5.0 (Macintosh; Intel Mac OS X 10_15_4) AppleWebKit/537.36 (KHTML, like Gecko) Chrome/84.0.4147.89 Safari/537.36" etag="QpTePFnmmHam06q96PsL" version="13.6.2" type="github" pages="4">
  <diagram id="wPF1p56tK3YEznqjjGRR" name="Information Artefacts">
    <mxGraphModel dx="1795" dy="1412" grid="0" gridSize="10" guides="1" tooltips="1" connect="1" arrows="1" fold="1" page="0" pageScale="1" pageWidth="1654" pageHeight="1169" math="0" shadow="0">
      <root>
        <mxCell id="0" />
        <mxCell id="1" parent="0" />
        <mxCell id="U1mvReSxKJ0PdZ0RAsvO-1" value="Data Object" style="shape=note;whiteSpace=wrap;size=16;html=1;dropTarget=0;" vertex="1" parent="1">
          <mxGeometry x="-218" y="-480" width="54" height="79" as="geometry" />
        </mxCell>
        <mxCell id="U1mvReSxKJ0PdZ0RAsvO-4" value="A Collection of" style="shape=note;whiteSpace=wrap;size=16;html=1;dropTarget=0;" vertex="1" parent="1">
          <mxGeometry x="-217" y="-365" width="53" height="70" as="geometry" />
        </mxCell>
        <mxCell id="U1mvReSxKJ0PdZ0RAsvO-6" value="" style="html=1;whiteSpace=wrap;shape=parallelMarker;outlineConnect=0;" vertex="1" parent="U1mvReSxKJ0PdZ0RAsvO-4">
          <mxGeometry x="0.5" y="1" width="14" height="14" relative="1" as="geometry">
            <mxPoint x="-7" y="-14" as="offset" />
          </mxGeometry>
        </mxCell>
        <mxCell id="U1mvReSxKJ0PdZ0RAsvO-7" value="Data Input" style="shape=note;whiteSpace=wrap;size=16;html=1;dropTarget=0;" vertex="1" parent="1">
          <mxGeometry x="-212" y="-250" width="53" height="64" as="geometry" />
        </mxCell>
        <mxCell id="U1mvReSxKJ0PdZ0RAsvO-8" value="" style="html=1;shape=singleArrow;arrowWidth=0.4;arrowSize=0.4;outlineConnect=0;" vertex="1" parent="U1mvReSxKJ0PdZ0RAsvO-7">
          <mxGeometry width="14" height="14" relative="1" as="geometry">
            <mxPoint x="2" y="2" as="offset" />
          </mxGeometry>
        </mxCell>
        <mxCell id="U1mvReSxKJ0PdZ0RAsvO-10" value="Data Output" style="shape=note;whiteSpace=wrap;size=16;html=1;dropTarget=0;" vertex="1" parent="1">
          <mxGeometry x="-210" y="-152" width="51" height="83" as="geometry" />
        </mxCell>
        <mxCell id="U1mvReSxKJ0PdZ0RAsvO-11" value="" style="html=1;shape=singleArrow;arrowWidth=0.4;arrowSize=0.4;outlineConnect=0;fillColor=#000000;" vertex="1" parent="U1mvReSxKJ0PdZ0RAsvO-10">
          <mxGeometry width="14" height="14" relative="1" as="geometry">
            <mxPoint x="2" y="2" as="offset" />
          </mxGeometry>
        </mxCell>
        <mxCell id="U1mvReSxKJ0PdZ0RAsvO-13" value="Data Store" style="shape=datastore;whiteSpace=wrap;html=1;fillColor=none;" vertex="1" parent="1">
          <mxGeometry x="-318" y="-302" width="60" height="60" as="geometry" />
        </mxCell>
        <mxCell id="U1mvReSxKJ0PdZ0RAsvO-14" value="Create Invoice" style="shape=ext;rounded=1;html=1;whiteSpace=wrap;fillColor=none;" vertex="1" parent="1">
          <mxGeometry x="28" y="-365" width="120" height="80" as="geometry" />
        </mxCell>
        <mxCell id="U1mvReSxKJ0PdZ0RAsvO-15" value="Purchase Order" style="shape=note;whiteSpace=wrap;size=16;html=1;dropTarget=0;" vertex="1" parent="1">
          <mxGeometry x="-1" y="-480" width="54" height="79" as="geometry" />
        </mxCell>
        <mxCell id="U1mvReSxKJ0PdZ0RAsvO-16" value="Invoice" style="shape=note;whiteSpace=wrap;size=16;html=1;dropTarget=0;" vertex="1" parent="1">
          <mxGeometry x="114" y="-480" width="54" height="79" as="geometry" />
        </mxCell>
        <mxCell id="U1mvReSxKJ0PdZ0RAsvO-19" value="" style="startArrow=oval;startFill=0;startSize=7;endArrow=block;endFill=0;endSize=10;dashed=1;html=1;exitX=0.5;exitY=1;exitDx=0;exitDy=0;exitPerimeter=0;entryX=0.25;entryY=0;entryDx=0;entryDy=0;" edge="1" parent="1" source="U1mvReSxKJ0PdZ0RAsvO-15" target="U1mvReSxKJ0PdZ0RAsvO-14">
          <mxGeometry width="100" relative="1" as="geometry">
            <mxPoint x="-6" y="-387" as="sourcePoint" />
            <mxPoint x="94" y="-387" as="targetPoint" />
          </mxGeometry>
        </mxCell>
        <mxCell id="U1mvReSxKJ0PdZ0RAsvO-20" value="" style="startArrow=oval;startFill=0;startSize=7;endArrow=block;endFill=0;endSize=10;dashed=1;html=1;exitX=0.65;exitY=0.013;exitDx=0;exitDy=0;exitPerimeter=0;entryX=0.5;entryY=1;entryDx=0;entryDy=0;entryPerimeter=0;" edge="1" parent="1" source="U1mvReSxKJ0PdZ0RAsvO-14" target="U1mvReSxKJ0PdZ0RAsvO-16">
          <mxGeometry width="100" relative="1" as="geometry">
            <mxPoint x="75" y="-388" as="sourcePoint" />
            <mxPoint x="175" y="-388" as="targetPoint" />
          </mxGeometry>
        </mxCell>
        <mxCell id="U1mvReSxKJ0PdZ0RAsvO-22" value="" style="endArrow=block;endFill=1;endSize=6;html=1;" edge="1" parent="1">
          <mxGeometry width="100" relative="1" as="geometry">
            <mxPoint x="-74" y="-322" as="sourcePoint" />
            <mxPoint x="26" y="-322" as="targetPoint" />
          </mxGeometry>
        </mxCell>
        <mxCell id="U1mvReSxKJ0PdZ0RAsvO-23" value="" style="endArrow=block;endFill=1;endSize=6;html=1;" edge="1" parent="1">
          <mxGeometry width="100" relative="1" as="geometry">
            <mxPoint x="150" y="-323" as="sourcePoint" />
            <mxPoint x="250" y="-323" as="targetPoint" />
          </mxGeometry>
        </mxCell>
        <mxCell id="U1mvReSxKJ0PdZ0RAsvO-24" value="Database" style="shape=datastore;whiteSpace=wrap;html=1;fillColor=none;" vertex="1" parent="1">
          <mxGeometry x="-66" y="-118" width="60" height="60" as="geometry" />
        </mxCell>
        <mxCell id="U1mvReSxKJ0PdZ0RAsvO-25" value="Retrieve client information" style="shape=ext;rounded=1;html=1;whiteSpace=wrap;fillColor=none;" vertex="1" parent="1">
          <mxGeometry x="-4" y="-4" width="120" height="80" as="geometry" />
        </mxCell>
        <mxCell id="U1mvReSxKJ0PdZ0RAsvO-28" value="" style="startArrow=oval;startFill=0;startSize=7;endArrow=block;endFill=0;endSize=10;dashed=1;html=1;entryX=0.25;entryY=0;entryDx=0;entryDy=0;" edge="1" parent="1" source="U1mvReSxKJ0PdZ0RAsvO-24" target="U1mvReSxKJ0PdZ0RAsvO-25">
          <mxGeometry width="100" relative="1" as="geometry">
            <mxPoint x="-5" y="-87" as="sourcePoint" />
            <mxPoint x="95" y="-87" as="targetPoint" />
          </mxGeometry>
        </mxCell>
        <mxCell id="U1mvReSxKJ0PdZ0RAsvO-29" value="Client Info" style="shape=note;whiteSpace=wrap;size=16;html=1;dropTarget=0;" vertex="1" parent="1">
          <mxGeometry x="68" y="-120.04000000000002" width="54" height="79" as="geometry" />
        </mxCell>
        <mxCell id="U1mvReSxKJ0PdZ0RAsvO-30" value="" style="startArrow=oval;startFill=0;startSize=7;endArrow=block;endFill=0;endSize=10;dashed=1;html=1;exitX=0.433;exitY=0;exitDx=0;exitDy=0;exitPerimeter=0;entryX=0.5;entryY=1;entryDx=0;entryDy=0;entryPerimeter=0;" edge="1" parent="1" target="U1mvReSxKJ0PdZ0RAsvO-29" source="U1mvReSxKJ0PdZ0RAsvO-25">
          <mxGeometry width="100" relative="1" as="geometry">
            <mxPoint x="60" y="-4.000000000000057" as="sourcePoint" />
            <mxPoint x="129" y="-28.04000000000002" as="targetPoint" />
          </mxGeometry>
        </mxCell>
        <mxCell id="U1mvReSxKJ0PdZ0RAsvO-31" value="e.g. Table of Content&lt;br&gt;List of Name" style="text;html=1;align=center;verticalAlign=middle;resizable=0;points=[];autosize=1;fillColor=#ffe6cc;strokeColor=#d79b00;" vertex="1" parent="1">
          <mxGeometry x="-352" y="-365" width="121" height="32" as="geometry" />
        </mxCell>
        <mxCell id="U1mvReSxKJ0PdZ0RAsvO-34" value="" style="edgeStyle=orthogonalEdgeStyle;rounded=0;orthogonalLoop=1;jettySize=auto;html=1;" edge="1" parent="1" source="U1mvReSxKJ0PdZ0RAsvO-32" target="U1mvReSxKJ0PdZ0RAsvO-33">
          <mxGeometry relative="1" as="geometry" />
        </mxCell>
        <mxCell id="U1mvReSxKJ0PdZ0RAsvO-35" style="edgeStyle=orthogonalEdgeStyle;rounded=0;orthogonalLoop=1;jettySize=auto;html=1;" edge="1" parent="1" target="U1mvReSxKJ0PdZ0RAsvO-32">
          <mxGeometry relative="1" as="geometry">
            <mxPoint x="-79" y="305" as="targetPoint" />
            <mxPoint x="-117" y="305" as="sourcePoint" />
            <Array as="points">
              <mxPoint x="-117" y="305" />
            </Array>
          </mxGeometry>
        </mxCell>
        <mxCell id="U1mvReSxKJ0PdZ0RAsvO-32" value="Task" style="shape=ext;rounded=1;html=1;whiteSpace=wrap;fillColor=none;" vertex="1" parent="1">
          <mxGeometry x="-6" y="265" width="120" height="80" as="geometry" />
        </mxCell>
        <mxCell id="U1mvReSxKJ0PdZ0RAsvO-33" value="Task" style="shape=ext;rounded=1;html=1;whiteSpace=wrap;fillColor=none;" vertex="1" parent="1">
          <mxGeometry x="185" y="265" width="120" height="80" as="geometry" />
        </mxCell>
        <mxCell id="U1mvReSxKJ0PdZ0RAsvO-36" style="edgeStyle=orthogonalEdgeStyle;rounded=0;orthogonalLoop=1;jettySize=auto;html=1;" edge="1" parent="1">
          <mxGeometry relative="1" as="geometry">
            <mxPoint x="416" y="308.5" as="targetPoint" />
            <mxPoint x="305" y="301.5" as="sourcePoint" />
            <Array as="points">
              <mxPoint x="305" y="308.5" />
            </Array>
          </mxGeometry>
        </mxCell>
        <mxCell id="U1mvReSxKJ0PdZ0RAsvO-38" value="Data Input" style="shape=note;whiteSpace=wrap;size=16;html=1;dropTarget=0;" vertex="1" parent="1">
          <mxGeometry x="-18" y="112" width="53" height="64" as="geometry" />
        </mxCell>
        <mxCell id="U1mvReSxKJ0PdZ0RAsvO-39" value="" style="html=1;shape=singleArrow;arrowWidth=0.4;arrowSize=0.4;outlineConnect=0;" vertex="1" parent="U1mvReSxKJ0PdZ0RAsvO-38">
          <mxGeometry width="14" height="14" relative="1" as="geometry">
            <mxPoint x="2" y="2" as="offset" />
          </mxGeometry>
        </mxCell>
        <mxCell id="U1mvReSxKJ0PdZ0RAsvO-40" value="Data Output" style="shape=note;whiteSpace=wrap;size=16;html=1;dropTarget=0;" vertex="1" parent="1">
          <mxGeometry x="231" y="112" width="51" height="83" as="geometry" />
        </mxCell>
        <mxCell id="U1mvReSxKJ0PdZ0RAsvO-41" value="" style="html=1;shape=singleArrow;arrowWidth=0.4;arrowSize=0.4;outlineConnect=0;fillColor=#000000;" vertex="1" parent="U1mvReSxKJ0PdZ0RAsvO-40">
          <mxGeometry width="14" height="14" relative="1" as="geometry">
            <mxPoint x="2" y="2" as="offset" />
          </mxGeometry>
        </mxCell>
        <mxCell id="U1mvReSxKJ0PdZ0RAsvO-42" value="" style="startArrow=oval;startFill=0;startSize=7;endArrow=block;endFill=0;endSize=10;dashed=1;html=1;exitX=0.5;exitY=1;exitDx=0;exitDy=0;exitPerimeter=0;entryX=0.5;entryY=0;entryDx=0;entryDy=0;" edge="1" parent="1" source="U1mvReSxKJ0PdZ0RAsvO-38" target="U1mvReSxKJ0PdZ0RAsvO-32">
          <mxGeometry width="100" relative="1" as="geometry">
            <mxPoint x="11" y="203" as="sourcePoint" />
            <mxPoint x="111" y="203" as="targetPoint" />
          </mxGeometry>
        </mxCell>
        <mxCell id="U1mvReSxKJ0PdZ0RAsvO-44" value="" style="startArrow=oval;startFill=0;startSize=7;endArrow=block;endFill=0;endSize=10;dashed=1;html=1;entryX=0.5;entryY=1;entryDx=0;entryDy=0;entryPerimeter=0;" edge="1" parent="1" target="U1mvReSxKJ0PdZ0RAsvO-40">
          <mxGeometry width="100" relative="1" as="geometry">
            <mxPoint x="246" y="265" as="sourcePoint" />
            <mxPoint x="346" y="265" as="targetPoint" />
          </mxGeometry>
        </mxCell>
      </root>
    </mxGraphModel>
  </diagram>
  <diagram id="iXb8LzN3pmchZa09Ca0I" name="IA-Example">
    <mxGraphModel dx="1012" dy="920" grid="0" gridSize="10" guides="1" tooltips="1" connect="1" arrows="1" fold="1" page="0" pageScale="1" pageWidth="1654" pageHeight="1169" math="0" shadow="0">
      <root>
        <mxCell id="7fllwTgMmEInO7BE3Gv8-0" />
        <mxCell id="7fllwTgMmEInO7BE3Gv8-1" parent="7fllwTgMmEInO7BE3Gv8-0" />
        <mxCell id="UK7_AiAvDv9DBchyRrNR-0" value="" style="shape=image;verticalLabelPosition=bottom;labelBackgroundColor=#ffffff;verticalAlign=top;aspect=fixed;imageAspect=0;image=data:image/png,iVBORw0KGgoAAAANSUhEUgAAAiYAAAEwCAYAAACDqbpdAAAgAElEQVR4AezdiZs1RXU/8N/fxWLMohgXQEX2fRMQRHBBJCzKIqAYEIEAskXFHRQEJC6giCCBGEPUIC4IrrgkUROz39/z6fCdnLfovsvMvDN35u15nprq21119jp16lT1vf/vf/7nfyZjGWUw2sBoA6MNjDYw2sBoA8tgA/9vGYgYaRgHw2gDow2MNjDawGgDow2wgTEwGTNGY8ZstIHRBkYbGG1gtIGlsYExMBmNcWmMcVwtjaul0QZGGxhtYLSBMTAZA5MxMBltYLSB0QZGGxhtYGlsYAxMRmNcGmMcV0rjSmm0gdEGRhsYbWAMTMbAZAxMRhsYbWC0gdEGRhtYGhsYA5PRGJfGGMeV0rhSGm1gtIHRBkYbGAOTMTAZA5PRBkYbGG1gtIHRBpbGBsbAZDTGpTHGcaU0rpRGGxhtYLSB0QbGwGQMTMbAZLSB0QZGGxhtYLSBpbGBTQlM/uu//qsTwH//938vjSDGKP35Ufqon+fLZFntxJjabvoKP5PJZPQT46Q52sAuZANzBSZxEOvllP/jP/5j8stf/nLy05/+dPLss89uO4e6XnLaDDh0TSd08/Of/3x0BlvAGURnP/rRjyY//vGPJwn8N8N+1hvn73//+84Wf/azn01+9atfjfa4BexxvW1ghLd1Fkjrpau5A5NvfOMbk0984hOTT37yk6suf/u3f9s5Fs7mda973eQVr3jF5LDDDpv88z//8+hwlsDhmOB++9vfruiGjnxeL2Mb4ewcB2M8nXnmmd14OvTQQ1fGk0yDv60s98cee6zj62Uve9nkqquu2tK8bGU9jLTvnLE7yrVfrnMFJoR3xRVXTF784hdP/uRP/mSH8qIXvWjls+tp5b3vfW+XHfnXf/3XyeGHHz75oz/6o8lrXvOaye9+97vR4SxBYELPv/nNb7pg8Q//8A8nRx555BiYLIlepjkwgcnJJ588eeELXzh59atf3WUWnotJtnxg8td//dedn8DbZZddNvqJLWCP02xVNo+9yppPazc+65+wdxW5zB2YXH755ZM//uM/7pyEgCLFBPaCF7ygc4qch8BFu77y53/+55P//M//nPzLv/xLF5hos99++42ByRI5mzEw2XoOQaC/XQOTRx55ZAxMlsg/rGVitBV3//33T971rndNvvOd74yByTbR61psYqjv3IHJk08+OfnSl740+fKXv7xD+eIXvzg59dRTJwIU5ZZbbpk88MADveV73/tet//97//+711gor0V3pgxWZ7JcAxMlkcXQ4O2vV8Dk1e96lWTX//619vG6Scw4Sve8573bBu+Wh3uCp/f//73T17ykpd0i1dbdLsCzyOPq/OncwUmQ4df5YllQC644IIuKJEx+bu/+7tuu0aftkRJQ4FJbZ+289ShTy1VuF5vKISelobgae8PfQ4c9VAb9+dtV2HUg47T4FfY9brCcj0UmOhTcbX9+j6HHnYyDWdfX/fSJ8/zOXBzfzPrPlpC5yJ0kW3+pvWrsHO9aGACV3TZR38f/uBKXdvkXq3r80WuKww0LhKY6Msfwed6Ebxpq1/kExip06aF3/e8batNbZfPta590JBn9X69nvW8tl3tdXDUuoVVn7keen7RRRd12XVZ9UcffXSFv/Rv+y36OXBSz9s/7Ws9q6+xOtQGHM9SD7Wr96u+5+23CL1pC2donxdPpXOjrucKTKYRwxGcf/75KxmTxx9/fFBhgdMGJg5Y+iMoe4+ex8HoU4UaGKkj3PT5t3/7t4mSz227fJ6nDl60KPmMRvukJgS4GBV4oaWF7b7+adc+z2fPU1pYoSF0pA9abI3JOnkWo8vz1OBGNmr9Kj3BVwMT54By+LX2T9/0CY6+mh60J6uUirevT+5pp3/obnlPu1qHJn2DT42GPNO+Xtf+i16jL3jYBLxgD/EYnvSrbVzjEwxliD7tPKfz6AH+U045pdtOnZUxCW1w6QcWuc7iWz/t4A9t6ugntXt5Pgtmnqc9+NE1eO4nMLHoGcqYpH9k08dX2gTnUK0dmUSnrd3Ufuj1fJb80JXS0gFX9JhnPgc/ebQyR0NkFTvSN/0rje21NvpEX+BH1m1bn7WHKwUtaRc6IwNtWhp8VvR75zvfOfmDP/iDlYyJ9pFL5THw563Bjz0bF+CG9lkwFu0bflIHvs90iY7oEx0+e5Z2Q7U+keNQ+4xVvh6fVfdDcHMfzNCjn+shPOmzmfWaAxPCXEtg4oyJyc82j22gM844o3Oyl1566eRTn/pU91oxAQ0JkYC92nrbbbd1mZs3vOENE+Wcc86Z3Hrrrd1epjbTYAwpAM7Pf/7zk6uvvnpy/fXXd3hkhHw+++yzOzrVwaN9SyfD/OhHPzq57rrrJh/72Mc6h9OHz8D0xtNf/MVfdHJIoBGY99xzz+Taa6/tCqNkpPfdd9/k7W9/e0fH6aefPrnpppueh59+vFFFtmTy+te/viuyXLfffvvkqaeeWhnIgpoamDj86o2pf/iHf5jccMMNk7e97W2T0047beKsEN380z/90+CAI3P7yB/+8Ic7vdjuU84666xOlt7QGhq0ZPGP//iPk8985jMTdqDfW97ylm5i+uxnPzt5+umnn8dn1a/gmL7gMmG/6U1vWukLbmTa6qpPL+299AUHLRdeeGEnE3KF7wMf+MDkm9/85opM2/5S2PRIz2yefr761a92fLJbvL773e9+nlzJxHYqHXsDB75zzz23g4Vfb1CZvIcCE3SDYaV6zTXXTN785jd3MIw3B9vZEp5aen3Wj/2iGX66/cUvftGNOfZ/0kkndfr5whe+sCLbPjh999DFlm0J0zU7ZmMmMfp3JsF5tmmBCbhslOzRQzZkCcZf/dVfdXyRc5++c48tssm//Mu/7PQYezVO7rrrrskzzzzTySE82C4zJujS2Mz9thZgGHvk9/GPf3yH8e8rE8jzgx/8YCcDtHzlK1+ZXHLJJZ0dkIVrdsYfeI5OW+qCNM+NiyuvvLLbXjfhtPh9Do/qb3/72x0+tupckrERHn/yk590PKZ9YH3961/v+KQj9/ife++9d2Vcv/Wtb+3emHr44Yd77Z594v+YY47pAhPbcu94xzs6e4pPo+fgm6cOjfwT+ZATWbBrsrnzzjt38G0VJnv2mSxuvvnmbjzR9xvf+MZu7Onr9fTaJ9fmGjTj56GHHura/P3f/33Hi/4nnnhiJxfP3ve+90288HHHHXfsYDuBpcaHcaed9uyPHvOnDXrh9VYsfx/bNP7ZDtsHJzKp8PX97ne/29GrvbFljPABjlzEH9Y+y3C96YEJR/qRj3xkctBBB61sB3FCjFdN2d///vd7jYTQBQ4xeNG4PrX/AQcc0DmsaZPokCISdIHnbaOLL764O6yLthz4jdNEvwCF46jwBF0HH3xwx49Xozmq+tw1g+Lsjz/++M4JezWS08JfDM6Agxe+H/7whxNpUfu1aEOLZx/60IdWHIN+jNkkR8b6Rab6+Cyl6vVSAZH2bWCCXjztv//+3WFm8t1zzz07nA4uC3R8d0bLj4HF8MkErloit5e+9KWdQxUI1f7o4CBNLnBUmsFxTyaHTWhb+zpc55VS55bQmr5oDr8nnHDCJA607V9hDV3TkwmMUwczMontqcn7xhtvXMk2geVPzZGgSzEJcYwvf/nLJ3vssUcHC4/nnXfeDnyxKU6JPOHUJvjI48ADD5ywGfeHAhO2YOLfe++9u3ahXR862WuvvbrJ/Fvf+taKzUUGxoF2aN5nn306+6Mfn9GhoIODJtNF5MqWTVLe+ItthDc0sc/w3JcxMUmSNZ2jMW1d5zNdmVyNp/CkDq0ZT3gzJthLeFPjTZAuUEp/wbHxR28meXaRZ7VGH9rAOfroo1cCEG0EmsYBnGxSME2P4T888D0CSO0dHP3TP/3TDh6YaNUeHBObIC98tXTwD96CrHLWVyG3o446qgvk6Lv21Q8u/gDfxj2ZhL7Uvv6BPbdyZrvoxGd4Ay+4yZBvhXMR2+F7zA/kgwYwa0GvRULlBXw+R1D5yle+coUHtOhLNug87rjjumCv5cUiL7QL1AVFFteRAT7NRxZ8xjW409485RfuvvvuFXnym6HXM/R+7nOf6+gJjtCaz/yzALed4/T99Kc/3fmHjHf8uVazGUmFVt/Bv5n1pgYmBExInJIBaZVj4InA99133054npuUDfBqtK6tVAzSKOrYY4/tBG3SFrlybBRgEMlyLKoARklx4DMCtHD8f/Znf9YFBiJXRuFZjNqqiEJDq5VOJuhDDjmkcxytwrVtAxMrUvcDxwCExyDmoNECnklMJHzEEUd0E0Zwm4isZEO7QWJStjoSdQuCTFJkw+HC469mTAx4eLSzsrIqQYfP4OrLobRyBUtU7jnnbeDCJ1rnLAx8cD03qYRHtAtqZAQy6PSlA6tfOgUPL/W7b/RHN96iJ5OBFSV7MnGQlWfopsO6x93qY9pnWSDBLlh0zpmjTdaBbNhcaOAsWseWwIRdChS0xyMa0S+I/drXvtbpAh36s6kKlz2ZqGRr2HwcJbx9gYmAzWrSczLnKOlT0GqshR80CXIEfZVutgmHYrzRDx3CTf/Gp0J3dFH1OSRL8NlotqDYA72aEMCEg1zQBC/a28AEDCtXOtWOoxUwyeiRjTHBhj03Tq0sW3pkQl772teu6DPjBA3GloAEXHBkTtI/gQm8dDfEM79F3njoC0wSiLBPMqULtPNhxkzoJx8BOTh4EcyxO23IJuNRsNvqQLDC/9E9egUQ5G48G6fkBD7Y6JH5Cp/qBCZwkBU6jWP42Sy/Eh2x03xflb5okT3goyIHuGT4+FH4FRnvIRlWWnLN59ARmvAPNn25hx46w6cFXvqoBfleO9dnt9126wJtsjAW0RMZe87PyWbWsSAwgVPhX8iLzRj75GlMGK/GjDGhHdkIPCsducazMaidsSX4zDN4M8fRG9nyN3RP7vy7e+DTraAmtIIrUyL48gw//Cc+ja34w3yFR3AuS73ugYmtjmnMEZjBygAYKIEZ/Awge2eyCr6/gLFRmMlIOrAarjQcw6Mwzlj6TcTIOSpwSDd6Bobgpzr8aTTmGSWbFOFAq8FldcW4FdkQkbEBmkHPuJ544omVFVQyJvhkDJxE4KfGF0PmlBkZGO23XDJyMBS40CLdiA78+sZPMMCCw2DXFu+M2V49mWjrueukaF3nrwYm8BhoHAud6EtH5JgVKlqtlOGu/BhgBoKMlm+QFUgo+OLoonur1Oo84DfQ0W5QgQOvQr9Svu0XbXnmxH9WugIgdohPDoyMyIpzzgRvkqCbalOhv6/WDv14ig44Qd+SC4cCH6cuqNaGzbHjiiOBSWBwLibMyJcewdJHIetMXmQtjUxekQmapH/hApNeIk86wbuJjl2RudWu4IrO4USzSZajiwNja55FDuDonwIXOugDfLASSKfPrBp8jhxMdPMHgkU6CUy6N/Eaf+y43eLi7NkKGCYRq1e0kB/5oImOQrdgrPKlbcaVNia0v/mbv1mhgWzYIx0KoGvfBCa77757F5jA2fJsTOmTlTmbw1vsgR74NvzDb2IUKKFdP3oU8NJb5YEPir3Rv69yIJ+M9ToWXfONWWTwMXyBfmCgx7aU7Sa0kDX7rd/6nMAEnWxRwM3u0ag/OzDZh06BGh7IA6+xQ8EWGrWLTyFjBZxWftM+00sWhXQvMwJndObtUTZaZYEW409gxVcISGytBj8a8K1f5CVjh9fQYh6KrMExv+CFLcFPlq61f/DBBztetWdnkUlgqX/wgx90uOjXYoNO/KHVHIc38jKuZT8CHw6+2FYlGrRBD370VWyj05li3LMn8tCXn+E3Wv9UadvM600PTBg6x0whhBlhVMFSrEkl0aC2NZ0oqsyzKAUc19JglA6GjEw11OAaqhOY6EvpDKXSmH4GOaPSTrFiy7OdEZgIcKw2w3NwhXerpqy0GK3IOW0r/a4NxjwzIGpgwum3PAcHRx25SovmfmihI4PI5zyDR4EzE4LJMPvL2umTCRKfnF/6q/XPwA8uWz8GLqfK+Rt0aVv7Gsjsho4MZBNhYMyqweFo2IH+Aor2TIY27ItDyEQisK1OtwYm5Muh6hf89RrvySiAJ03OiWqbP9fszwSuTQ1MPLM1IxjjiK3wOCc48qcNmZK7LQ/ttK/ZBc/DD94FvexE31oq7fV+3zWHyEY5TROM8zb6p+jj2tkX9kC3NTAhZzpAF13aLkBn/EjgmDSz1QtfdcSCSHDRIFMh2NDPX6XZPXBDk8/zBCba06HAhNymBSYyZdnvBz+4TIomJzTiVTar/mlLp7JLcGjDHtxX8I8399lG9bVpQ27sSnABBnkmi4oOgUnwy1DFBj0LnfxRFoGyKa19oLkGJslYBsaiNVkJkPEly8fP4gNPavD4iVy7T5Z0gb9kBt2vf/oZr2jFM3nUDFINTNilhRcYffSTk4UdGBbRFrFtW3MFPGAJisHxx27q4tJ2D17aP/DMcfrDI3MjAHLfnOkeGfHXkU9oYNOx6z76N/PepgYmnLzBkoHUCsIEQ7CKbZMYWfbvCJziKZEy2sJ5ecYItTVwDNQWz9Bn+LKVQ/FWcFFq+vgMj/QlxwePCTW0rmdgQg4mDtmB4K81o0WLVB86FOd3apu+6/Ckfw1MpHh99jxt0l+wY0Bx7A7Feh6etantXaOLfgxWRTCpv2JSSZ84cs6D4xEMcBRgVJhpr3YOBhz8SqOio6/o7wAf2GTZbg2ANVT0TcqV3Uo9t21Do+wMW0OPSTcTjvYCk9AqSCKTFk4+m0QSYMoqJtDL89TkIzUOXxuYWHHjlf0KAMkFzjilWtMDfWpvNYUff/qAreA9DjT4V1PLDoBXcbVw4Lcapa82MHG+wArfM+NtyIeAYbzIbMCVb491P1uG7juYzkZbGoY+r3dgIlCHC121oCkZODqki/ZPP1tY+LDVK3jRz59JNeMs9u5ZX6FXQSlZ0094T2BC1iZB9OVZajaYbSXbKK2tomU9AxN+KRkTNAtg2XKVXa5Do8P+sW/neYbauy9wIksytfUdnmtgYu7Bd+C3tT7O78HJ1r0EkTb0aG4wN9FPDVrJSlaMHD2TyRNk1bGaazj4U4Ep/bAVCzD3ZVjia4wRfonew0toWcZ6UwMTTpdAh5wK4RMs45DqJVRCNDg4SMo2WUhn9RVbOSJ/e/JgyM6sJjBBQwKTPiVStGg8DgRtWdWvZ2CCDmXadhmZmZy0M7ELIPpo7rtnQNTAJCsf/Cn+0s8qDQ6Dzso199uag0paVZDHAQucpNjDjzRy+sFjr5S8PbfC8baFINVgDi3au1ZLT9Mve+Bw6H2owBXYMmjBO6tme7ZS8KuuGYW2L0eBJvRzFtK1sd0EJp55s4m+2v75TA740rY9i5M26qHAhHw4PjCMNZkcK7y2GE+K1bDAFz7bLGD7q4GJMZRJp3tYbKLSNO3adh5HSQ9WkjJefe3RLzDRjtyTMXHfJOo+3kyigq3YQ4WFdlkSetDWVhxd0JFtRLzKXNWsYu0/dL3egYltJvTXEtz8CttGK376/qyu8UdOspzpa5tZP/dt+VgQDI0Ni5hs51iUwAVODUxslwV2rdmx4AgudNhGq8/RvJ6BCTnVrC27ZL8mdM/QHlmiw7XFLdrIUrAqCzFUBOmRuUxiZCEwCY/GCLiVz/bavIA2eGXuLLzSxlYkHIqxGRxkZYyaR+ASQGeMtrV5L3OctoKZzKdwwwm+scL2vdFl/AVXaFm2eqkDE8KK8xFccD6cismFEgic8kzAQyUrTm05QRPvvEqgPJMpXOiQMRnqK0p1JoYD0F5qU9v1DkwYeGD30cLoyAK/jJRx9rXru2dAzBuYmJyiGwfiKjxy46gEJA5dJohUW92Y2E0U5ISfNgMkeDTotdUOHnu9HFHS7fDBkwkGHLKn7yFbcB/MtBXUVrqHrjkfg10/xUTWOt701ZadcoL4U+rBt7qVY8st/fpqjgRPZMAhDTnBvsBEW06QHaSAQwdDhezIWnuTWPCRc2DYVgitmSDzed5akMkG4BLAGTt9feHvC0y0dRCVLtDlzBF789cHx7mN2JoFDnzGhf7uy24ZN319h+7trMAEPnxH9j4nMMGr+31/zpzhhb0kMGEXsUN92b/AY2h8sAswlDqm5wlM0GSsk6ngtp5RwYO/9QxMwOSr8pYSmtmvbStvy8iqs4nI0bUMCzmgkR+Y5is801ZxZg0+pQYmXtPO/aEafm9LwUnuyTaax7L9byFpnqgwzHGxz6Hx6j46lSwo+CZygVeRyTfGKt8WZIJTPjzyqbiX4XrLBSacPsNjiIQtzSUlPqtYUVhxmcg42nmEr928gQknIHhKYMJxwbEzAhOTor+WB0ZmQDJU8hGY1Ai9bd9+BnORwCSOrDqxDAirL5NYJlaZEoGFCUWK0YFMA09pA5PITRoUbAM6+naQV8ADjz9BTN2D5xwdvpunOBTYyqDvM1wmrjgqAe40uWqfMzTorgFIDUxqwNKHN9kOAQUHA25fu6HABM2RG9ptuZnA5ilWVsG13oGJbRhBiWKVbUwGV63x2xeYuJ8UOfsycU4LTGT34GJrAlxj0nYH2SgWFEM0VHrq9bIFJrKQeKmBCRvlH2MDxsY8utfG9mj4XSQwgYucNyIwQZ/MtIyBIF6wAT//58yObAK70E4wKjtvHBhPshCz5ozIKm8MsbsamLSH8COvWutjQcuHkYutVfcsLrNI8maMPv7UnoONVvzQoTeOZhX8ZI6rNMjYWmgIgMAUxJgbtM95vNp+Ga43PDDh5BiTlQsDylbOkDDiUJIxEZiY4DLYnBA3mTK8aYUz0pfSh3C19xcJTNBA8QlMktXYyMAE/fYRE0FbHSXt3vLW99nAWI/AxIrNithANIlLl4JLnsFroo0T6wtM0EJX0vy+oMi2UgaqFaQ3ijyncyn5OByHSd0j91n2MO9kBI8ACA7FqmTaCtuEIP2LPyWHbMGxLZX7Jl33IpO2NomSIUcqUBhq2xeYgOVsS2jmiKS5jb15SnQFp9Vd4CRj0nnR5/61dM/6bGzgydjmdIeCPLj7AhPwbSkYa4q3KIYCEzAEITkvkIwJhxw9CEzYyyy66/ONDkxCa/RSaaEGgQlbSWCiHbvI4Wn9BchkPU/RNzgWDUzQwA+RfQpY650xCX1wyIBZ9AhQ2BV+jVNnTzzHcw4Be+a133nGgTb8RPiwjU7OYDhcGhqGav2MH3TpJ2vDJwt22CRf3Z5d1CfbVPC4lrGdRS8bpje6BwNNodv4sP0sCOIv6YicLAwWOd4wxOd631+KwGRIMITKgVFoAhNCt+J2n7O08l5voQQeXPNmTAxEkzFDEhAkUq+BiSi+zwHCo70DUHgCp534sgIni2kZE4PInibDE5FLY4efWTUHt9bABI58TwBeODX8tX/zBCbpww5MZlY5YJKxAeU+uZls3MsE7h6cng/x7Nm057Vf8HB00U/eIqntci0gktnRVkn2DJxFAhNv0dAjGA71DtE7FJhwiAIS/dmk17pD41BN5vUZnOsdmMhgsFGO0TaKAKrizDXcQ4GJ1yLxZTw4nJjxlr6pwRDUsQ+ydB5KW+PE+AADLYuME7Dp1Di1+sxrnsFZa5OJiYBt1gOO2tTXhXPGxH00K4GTs2t4YNe5n5rO2sAk/a2K8ag4fEmXgT+rji2sV2DiXBl9kUV9Oyp8rEctQPHqOxxwOZCbwEL2NTYjyxL+58Wr/WoCE/0EhWhS4HZwlj7ZLp2gIfLW3mLMcwU/i9Cof9q312zf6+ICJPIhj/r9POm32fVSByYUFgNLYEJgVuQmCUozaBc5R7GIwDmBeQMTp9/jALwhEQcgUjcg0CqjMpTB4MBMZpznagMTvMHLUWYQOInex3NrsNr4W2tgQmbeIMGvydB3uvThbwOTlp6OmPIPDClJEy3YJjUOBz4HXg0y9+05JzNWYepfP7uun/torPfIlS3QMdyyQH2TBJhWJiY7bQVNVjvBv0hg4kAce8CbNHxWsS3dQ4GJdg4/ooNsZBfxgW7P2oJGf5VvbfSJba9HxoSNyQaBaTvQ20LwVLyR11BgIpBIKtxKOG8+VTjhj/PHvzdzvNoevQn8Ykucc2TT0tH32UKED6IfWR9923bwGO/xVRsdmMBvuxLfZO2sRAK4Vk4t7fXzegUmvtyLLfNNtlkqjkpPvb/oNTiyYfETfJBFnvu2pzIW+Ej+YxH4YKw2MLFYyQJKUMDu2a/MTWs78NgyMg+Ql8BWMD9Eq/ZDz9zP81rTqaCa/fKZeTYNzkY+23KBCcdJyd7X5lQIlsFnwFXhEbb7fVmK2m7o2sA2GWUwObnfp0B75pwOerT1qmUcPPzeGnCfIQqqKgzXisNI0npgrCUwQTNYDN8gFAxZ3eMxeFO7Z9BmIkfzWgMTMKUtwwcn0eI2EGUAIi9nhtwLXbZv6Fi/+ofWOHn8Ceb0karPfVtHvqyv4sy1tmwh/Aaf57OKtr7sLKtsTj7401cbsLN6pXOp0xpQLBKY0Bt+wGEbmcDhqbRzsH3fY6KNzAJ7ImsOLvYXGBWOAKrKJm3ohi0p6xGYgOfVVXwpDue1GUIyZcteFxcIGud5K8ezGvBnFZox5zna4WEbsjL4N0nJUoCrjTcv4PfMVqFgp9phhWNckI17ClmZYPQlk3oYOnKjd8Eg+rTb6MAEHTKNOVvBhrwuj//QGH7wnS2e3Eu9XoGJjA0bIvMaIAYPmnI9q9aWDuil1bsMvHEDF54TtJKF+2yJ/3BWLbbQ4jO2q749h3O1gYn+OYLAFmIPZB6+Kx/GdLLk2rJ99kRPLa3ux1/WZ3hz1ic8whNc+Q4furB4yf3afzOvt1xgEmGJKK1KKc1kQXGcDgVRlAnI3p1XyLx9wdDSd96aQgUmDBkeE6h9+uDgjKzopIcpmAPifGp0C0YOPBoozh6gk0EyPpOw71DgPINnLYEJAzMwGVZXBAEAACAASURBVDV4aPLKmLc6GGmcj4DBKhHtBhuZ+FuPwMQAJA/8uiYvARq9kI2VC91po9iiMeDISrEXjX6OQ3v96I8cTVJ4kgpFM3719WotfPQku+ZV3MovOAILh2JNSOhZdDBa/dIfPBybLStypEdF5q591bm+hgrfIoEJx2g1gyfFq9MCOoEwPZILe3QQ1KSLLoFo7A8+bRz8zuQom+V8hkAgNohu2x2yMtmT1zeFfMFW1iMwoTeZtLpFQd/0gy40sxl2aeyinS0nMAldxp6VsWcOCrNxfRX2YjWabCX5kSU9xW5MWDkc6rlrDls2RDswTGbkK/DzZXX6KmTCbvUjFwcTtYVbX0GlA4z0YmWKh80ITMiKzWTRQ+bGnyAs+mfXzmzZFvemibERPtXrFZjQJ19tzBujgubQwAbJveKddk3+/LEFqldr+WJy579sg/ATdCMLTSdg6WM+yFgQsMlKZiGEFsGOrQ761Da2pr/rtQQmZG78sBc0eHUbXD5PXQOT4LLgIi92ZAEuG4vG0CqLjE4ZoDrH6U+vbM5bQeYccyIZ8Vm2DskHbPatPRqWpSxFYELQfQJhSDEi5zM46vx5ZmKlOIpmiNo4e8BhcEiM332TSJs67MPX3mMwyZhQosENptUyxZoc4ed4KNikwKhjaOC5NmiSukar1LMBxemaKMA1gBzC85wRtivIRM/wgFeNuKXbZ44RfeA5ZCXYgcPkw4hdOynuuYgZnf4SmOB32veYcOrkqh1ZhwYG7s2g8AIvnCZsTs/EDq+JBJ/6c5ZW8miAn8PAp76CKsGEfslWwGsC0R4+NRviTGIvcJBt+LUqN7HT1eGHH76yigrd89YO16I99kCO7E2WBK1oQzue2CfaAhutiwQm9MGZcS70ZAImA3rxyp+3bPCYbBGaamACrz9OP/YDDrmaaMmGHZONlSTZOSxpnBlf6FVc66esV2ACpgOAsQGwZXQEB+zTOK774GSaL0eLPNHpAGImu/Q3weLXOCMTcmM/HHJ4UoPDYfvODvi1FeiQBxqMc8+i03xBWfDLxsCJNv2Ncf3I1Pe06GecJwhvAxMLp/CP3sANjflcA7jQnWdqfzVLlx9iTBsTltfv0YNHBV9eJeaD2IKx4T5cCWzTP4EJXzr0PSZoYE9gkLcgI3yEZsFmts+0Y6vkY/zwVV6RTdvgHqr5CTywWfIlW3DoDA90wq9aoFSY/ARZ6IdOPBlD8cdkkf4ZSxnD4Kw2MNGXvbJNvOelj0obGVZ+BYjoj/3QH7vCo7FvrJjzwGN/smGBp5Y5xx9ZmLfoW/ae/8O/+2RoAZd+Ff9mXq85MOFgMnlT9KwDdgRgoBAwYVJ+31aLdmATukIBFFWVJxK2SqKgOA/C1l5N+AzAhLXIF41FIQyyZkw4nqzQ0I5fhaPnSK34hhTssJfsRPqg0STJqXJm5GZQuG9SZSyhQ21Aw6kPx1HlUNvlGh2iaQ6L09EX7BR0cIpwOoeCV390YeLTjgFzAH08CUwYvXbknzZqehI4MHp4tIGfTsgKLyJ/b1P47D4dGbgCMgOPw4+sPNefPtmNNLDIP7yq4UWr1UMCh8ozGPjlhGy1scHQXOHMc+18DEcGXmQAPj7ZoYnNagg/FR58cGunvdeFp9FAH57TI4cSBxW5gMMe6TiB79B3clgVmtiNt+AHJzLCiyDL6gnd7AFuJeNQWwEMnupf5XGRa3bC9tgJ2GSppmfXdGUScU2ubWACl5WjDEACgfCjJmN25LVPQUkmGP3Cm1oQz/6yOiUX4yxyZqO2Jx261z48kouzRnBrS67BDxbaBelo8Ayf6A0MPin2L5gJ3NDmMxwJTPCTvmmbOj4YnprZ8VwfE7IAI3ZSaXXN5/CxVtftQpF8taGXocAEHjygUbF4amklfwsQwS9YZJWijwVI1VF466uNdYGQQBltweuavfAB3varWYQqC0EQfrWNngOHTyYn27C1P34EJtrDN8/rwpV2/Y15tgz2PLzSv4yQxR9a4UVn7Mw9AbysqOxp8MFlbrRYolv90B15szt68MYgOlpdBc5m1esSmJh0pcc5tTbabhkjAIIgbO1FdRxhK5i047gU7SjJX4XpnkEgI2JVbhtABkCaz4rMQBCp1z7zXqPTgJdxYEy+HEeq276xtJpT5q7t/bcZjooDL+iU6pVmRCcaTaK2K7IHKuK1raNNO/HaaycHPHnWyqHicx15Ct5MpFbqHDv5GFC+ZwQ++jJB6OOP4yRLuqEjzwKr4gCXo0YT/uuz8MvhS5VKwZMXR4FfKUZt4EIDZ4jv2IGtKJknWzeyLGRlZczGbAGE3orTNZhgaCN97XconGi30oVbsCQDoU3bd5HP8NAZXujQFgG5+q4AjpuetemDyR6tguhRsDDUrvbVRsDoZL9gzoQHFx06T2MieeCBBzq4JspqO51SnwtwyNv2BrnSidUbm/CZDgXD7BS+tqBXydsMgauutC56TZcCL3bEWRtTDjP7bFK3bRU7Q3sffDSb5NFHLvhib2zeYoHshuTsvnFuAuKkTVhkw+bYnsncNpdxol3lN33ZOdtko+j3m0a2RsBka3SCH+MJjNDCztmCZ/VXbD1PG/wKciP/Pv7RZLzErvp8EbzkRKZ0mF9gxiubMuY9Q2/lET6LCPj5BG1aGiKH6qP43MqDPvksSMSzcWns0DfYdIXOFv7QZzhM9HTEh5A930YXdDLku9BBFvwEvMYAfRtX/IQJnU22fkY/cw3ayTpfljZEX999fpON5k29vjb1Xmg1Ns2B5g72jdf4RIFo3xxHl3wM+7OlTtd4dA0WO1lE3pWunX295sCE4GqZh2DttUvd18czhtEOkvZz+mpPEZwy5bdGOQ1XYLQ1pdXAhLG7BxY88FW4rmtp4eWzfpXG8JS+aVfrtHHPoKqfa7tch65ao3mI7vRT1z71fr0OrWip93PteQY2XhVt009dP1dZpg1Zu29CBSu4PA+eabW+Bqz+rtN23v5pP63Glwkok9C0tp6Ft9jnvLSknX5w4id/eRb4lYa0qffIMbagbvvXz7VfvQ5cdb2/muvgwxs5RjbRv+dpMw2+9nSNJzC0Td9p/esz19GpGsxpOANfO7aG/thp7ed52tb7fdd97XJP3dcn9+Z53uq/2lLg1Dq467163fc8/Lbt8hkN5EtXVV6z6E//1OwPLjzEdvJMPQue5/qxG/SgJbT38QUm2wrNs+BXWnKNZzjyeVYdHGo0xsZd5xkY9Tow3VPQC2+Vd/hM22Wq1yUwwWBKBDGLydU6tj5H2KcQ+EPL0PNZNOJJYCKta7/SfnQMsu27WhwtnFmfw3/qWe09r3IYug6cqpdpOObhdwhWvQ9vxZNnuZ/PtU3fs7Zd/Zzr9FOvRwncWs+C2yf/WX1mPa+6qPD1y1+FUdvPc7+2yXXgqnNvZ9ZDNE/DGVlMa7MRzxalvaU7sl4vWtdKTx8dLcz2c/oM3c/zRevYX2SUz4vCqe3ROERnhT+tXYXXd73avi1dgdPe78O5le6tS2BShZPrWUKY15BagVfDmIVjrc8XCUzWimtW/yqvXM/qk+fRybQ6bQN7PeRcYS3TdXhdaz3E0zS40YE29Xpan7U8C41rgdHXN3DVfc/He6sPflu7iKxHmT5fppHNtHo95VbtvdXTeuLZ1WGtOTBZrQCrIU2DQfn1eTWMen9nXAtMHCx0aCgZk5aenYG3D2aVV6772q3lXuCmXgssfZf1b618pf8Qf3neV1dnVq/72q7HvdC4HrAqjMBV1/vj9fMnz0Vl0tpFZL0onF2hfWQzrV5POVR7b/W0nnh2dVibFphsBcEnMHGiWWDijAlj3Aq0jzSufYIYZTjKcLSB0QZGG9h4GxgDkynnDQQm3ghwYtvp8UW+AGg05o035lHmo8xHGxhtYLSBrW8DY2AyJTBJqs7pZ0WgMmZMtr7Rj45r1OFoA6MNjDawvDYwBiZTApM+wx0Dk+U15j59jfdGfY02MNrAaANbywbGwGTBwGQ08K1l4KO+Rn2NNjDawGgDW8sGxsBkDEzGw7yjDYw2MNrAaAOjDSyNDYyByWiMS2OMu8qqxnagL+pTco5pV+F9mfiM7FMvE20jLRu/wo8d1HrUw8brgczHwGQTAhOHaAl/6Ftkx8GwOYNho+Tu67P9GJjffvFtwnGEG4V/xPN/9uW3eOjCj2j6avJRNv8nm1YWCaTdj816U/Hxxx/v5Nf++F/bf7Wf/S6V3/tSVvtmZOhN3fpePtkvh/uNI+Ny6EUH/fEx9Hy1PI79drS7MTDZhMCEM/SjU35o0A95jUa5o1FuVXnEac2i3w9r+ZVeX9z3hje8YeV3XWb1G5+vv5344UDfUeTXVk1I9W+U9//K24/E+dE/P8gpqK527gf0fM+TXwv2I3zrLTMBgB/NoyM/pOrHOVeLw5uVvv7Bj9n54VmwAwtffpnbr+/ClfttjXc/augHCPMr5W2b8fPax+kYmGxwYCJS9xP2BoCfrPZrkQy5fqPgdjNsg97PlFeHtloewQgcP2a1bKtc9Pg122n8Pfvss5OXvOQlnUN//etfv+0yZ/TDzvNjYz7Xv2my2ehnV1xxRTcW/TS8X4utfxtNy7Lhozc6POKII7rfC9trr726X8/O+EOvyXm33XbrZOgXktebB8GDYELg88IXvrALjlaLwy9QCzoEUgceeGD3q9zJnPhhvle+8pUdH3zzEA7j+7WvfW3XDk1+ybivLbhgLpt/6qN1Ge+NgckGByYG2plnnrli2KL3ZTSM9aAJr1ahMkNve9vben+ae1E8nKJ0Lmd1xhlndCufRWHsjPbSzZ/97Gc7Pv2EfHXeLb7tGpjgWfnlL3+5op8vfelLK/adSb+Vx2Z+ljExEQlMHnvssZDY1ZtJ1zLgpku/RnvAAQd0MrKQ+sxnPrOiTzTecsstk9133717vjMDEzoSUMjarFY2TzzxRJd1kancb7/9ugVEsibzBiayLsccc0wXJAlMbr311ufRo81XvvKVyeWXX959Mec0X7BaXrZ7vzEw2eDAhEF9+9vfnpx77rnd7/DY1vG3HQ3NauGUU07pBvFBBx00M5Mwrwze//73dw7GCurBBx9cCtnddddd3eSGJkHTNGe0XQOT6O+2227rVqZkIVhzv/6l3WbXdDQGJtPT7mRkjL31rW/tti/abOBGBCaf+tSnOh+ylsAEH4Ksq6++evLGN76xC7DqGJ03MJEJefTRRydvfvObJ5deeunk17/+9fP8j4XT/vvv323VarfZdr4V8Y+BySYEJgzFQFBE7Ns1MLF9Iw3MoaxnYHLllVd2qWVwrUyWYeBZOVnVKbtqYMLRKx/4wAdWJpJ77rlnDEw2yces17igU1s6+fbrCpeu99hjj25b+qGHHqrx57pcw+WMiSB3LYFJaA4v6txT227ed999OzzGcH3WXvPZ2gtSWjja/vjHP5689KUv7egdA5PpgW8r23xeODCpirAi/tWvfjX5+c9/3qVvHeRkvIDXdkFWa4Yu/f2LX/yig/G73/2u66NfSm0/7zWDCVwpZRGtSJkx9dEUXOjOfqCAAT738GeFG96S+puXntoOPHziPSX4tfMHt2ehwXP98ETO6PF8Gh34tbIJPxlIZEHeeCGnIRhwgqG/2ufKR71OO22zX+s5Gsk/gYl0MDlql1LbV5h915ETuFKke+65Zzfw77vvvhV44JJVH73u4Zf80RWbjd314ZznHpjwctAcJwdq3zk8hqYKq82YRNfa0i8d0d888olctNUnvIEDXvCmXT7PW0duYLMf8NkPPXgWOGyXLNjDTTfd1AVoZHHHHXd0dLivsLv0qbW+ePAcfDIiBzjd86ziq31znefaCor1B2dozGg/K2MSnqJPtARP8A7VaQeGwtbQknHsLZbovoWhL3mRu6J/4PW1jW/RVr+00Q8O9NOd1bwa7vDSB1c/Og7favSDW9tPC0xCQ9rTS8Yf3ZCFz3Bp6y99ug/PfZaBS2BiAaA9fsGoNtLSFljwhn51+MpzNVlMC0zgJNfAIWfXeAt/4Lj3/e9/f/Kyl72sy5icfvrpHY/ph9/Ysmv38VJpaa/h1gd+tA/ZTNtvK39eODDBLGfxhS98oUvtnXjiiZNDDjlkcuSRR04c5LOadYhsSHjuez3P5CKldtxxx03AePvb39459Keeeup5yp4lYIZBaVKOHI3tg8MPP7wrruGysh6iiVFee+21k0suuWTywx/+sDNSrw/iBW2HHnpoRys4XiljKNUYZ9GX53BcfPHF3Y8CXnTRRROFLCu8L37xi919e/NwcCTSpQz8qKOOmrzuda/r+n/+85/v6AxsNTh4vPPOO7s2TtI//fTTkwceeKCDiZfDDjtsctppp02uuuqqySOPPNIZfIXhGgzP0Sf1GQdW26ENvptvvnly4YUXdifdDRpt/N1www0dDQ55cirq8847r5MxOUfWi8iR3cB19NFHrwQm3mqJLNWyFQZxpdU1+/jc5z7X2dlJJ53U2axDbGgiL4HfIrQEPv34kccTTjih4xOvaHIv5cYbb9wBdgITe90nn3xyZwP0jrfjjz++28M+55xzJh/5yEc6uoKrrUOvifzuu+/utgePPfbYjjdwzj///C5lzXnrm/YtnGmfq9zQalwZt2wLzTnUDLaxi2djGm8CNT6BzaeYyNhNxRn7Z6ve8njTm97UBbR8Cls1DqXP+/TawnGmie3ZekAHeukGvcZUfaUVzdMCE3SZxC+77LLOXp0H80bGvHJMO/p2NoN9Gr+CdbTh87rrruu2dlvejEGyesc73tHZ7JNPPrmDzCrf+n75y1+enH322Z0N8IP+tPEGmK0QcNjGwQcf3PkRcr3++us7fxY6AzOfw3d8ljHLHvJc+1mBibbk6JfZP/jBD3YH/9FBBsYfurxp89Of/rRrF9gdA01gYmwJTPDKtumWjbBLfop/aOWIRvfZZfyEa3CCS5tZgQm4/HfGtJpc6kKIzhymNnadx2H/DtRqS3basyE+X0BiPkET2ist0UNqtNFpYJiD8my71gsFJoQnUjz11FO7VJWUl5UrJ8RoUu+9997dgcdMaBE6A7UXT1mUplCgftKBXgczaYgk02cewRssHJFX/pJOR09oAl9qzZ4ggwC7wmdcjBw9jEfQ9epXv7r7HDieubYlISjAyzy0pY2BluwBOA5OodXEVmlxfsJzGQaHtRy00i7y8sz1y1/+8k7GdSCiicydX9FOP3IRvfucvu7T2z777NM5fTqtNPjMgWknKPM5fKTWHm4OFlyytwJy31/ozmn64A4fat8ZEHjz1A6VgkOfyZgEnnsK58xBVHic3lve8pYuOAod2qYvuzNh+E6R2m+eazoiJ/YLtuJz8MAhkKp6SmCijwCC44rtRl76GRvodg6ppYWcFa9yCr4d3gzOwABfQGgCMGFXGlp47WewjQu0gRF5gR3Zo1nQoK/2XsFEg7ZkgId81kcxvqt+9EOXMcfW9In89A0ur1fDlfFb6QWDs+fgvfIZ/vUPfrLgAwQDsXf9hgIT8NHlV8UDg2/oGwuVlnoNPtszFtgYvlLAjHzQ3PcarIOe4YUewKvwc23MsyOygodN+hPombjhjP4iW5/BdhZCYA5G4Knhot9Kp/Z8bW03LTBBAzj8pcOmYCloAAv/ocOiy2IwfrVjoAlMtGcjfF/oCl/4JkdBaRZIodM5p9hRaLB4qPLE/7SMCVsAP/Qbm608jBdzG1zBEz6D3+dnnnmmsy0vQQSegDf0tjU6vTyAf7w7o+hepb/ts9U/LxSYYJZjsPJmXCZpTlH0qliZJFLkzKziqgBFzQyUchTG4XUzq3N7cQaCSZVxLiJ0RkNxaGIYJhlRq8GM1jhtz0XtLfwamFA8B/aa17xmcsEFF3SGjj4DPI5E1sEqdRHl48eq7ayzzupoRIsirRteDcYEJuQoExVnKj0uYpc58cqbvtpYSaZ/DUzQ6jU+hs9pccBgi7oFE9VRJisSflYbmFhdosWfla93/RMUqfFvckkxQEN7cE+rTcL4QH8GujdzAk9tZRrnBpYgAP8cGFnoC8YnP/nJbnXjmfveLDCBoGkaDe0zE4/vpJEZiJO0gnMvhSzqZJzABA9ewaRHQSv5yEBZVcVJos3KtfKEBvA4M7ZI12yCreNNhs2EmuAQHg7d+JtX3tpZRICrP/1Z3ZmI6DU2ZCWHHu3xRQfGH5r0S3bFfePoox/96A4BkrEro8fO2TR8HDaZWdUagyYE8NgsGFUW8MqC8D98CnmhFV5vg8kKsHmrdH5AViqTsL7kBW99Kyf88BXogVtAQ9et/md9lokz+cNh8SNTgSf+ScCKZvD5Pm8FoQlMPMp2WOThSWAm8K+8B7eMgP7g+CoCtuHPWQcLrODmO+gQ7iySPNOmbxXOF/OrbBRsbRcJTNBHv97WwSc7Z5PGrCAPbP4af2CTB11GBngAo27lgMMX0ymfSO8+g6GwEbZWxxu5kgsd6g/XooEJucPJNskaHvyYO6IHONkbG/McPeYRNoYmRUaFTYDne1/Qw29MCzxlPBOMmWPhJKPIKfi3U71wYIJ5KXHCt8JkeO4RkrRuvheAIXNecQLaSP1SmGccR1WqKFdkzYgpbVGhm7RM+gYpWPCiDU2CHwYAL0PJyj6KrIGJdozWQEVDBodBzrFkANx///0d33keWEN12oEpCMtAHwpM4BHEkUlWieQim2TC018bTiY4Pcd3MiYGDn0EB3kYPFldJmDTzrcqRuYCE0GnAbxIxqQGJvgFx8SJTt8bkEwYPCmhfZ5aHzziyaRHBrboAiv8VZuULoXf4Gdzsg95rqZXziYOS3AwDy1pE72acNGjSJ3Xv7RNncAETWRsG9M2SJ7jx4RvMvJckG/f2n1t1GRpsvWc/gSdcXiBI8ji8LSBSzapjrm066vhIC/86G/1nr50YNJ0jy2FJrVnAiP96Mjh1/z14QFHAE5H8HDs4VM/9krHyWDyH7YgAws+AQQZwGl833vvvSurZjC0NeEJWjMW3INnKDARLCWoNonLPugTeME/q4YDfewQDL7JPXyxPfqJjOmn4tBOkIo3sqmvXmvnOf4tLMCo47gjdDLp5GlBwxb4Bn30JXf+MnJn9xkXLU/JcKNhkcAkNLAbuGyzstHQjhb+OoGbMWibJvgj6xqYCGYEiPjWH814kQ1nG+zceKk2Ao725gI8KIsGJqFJzZfBQ3YZE3lOxmQtkKATYwidtaStvmxfOzDRl2ep9Yt9k09e13Y/bbZjvarAxKAywPJHMBF8XSFQTgxRG4cCKZMiRJ/gtEJlaIHVPpv2meExCrV29Y8B2H5iTCZjKcOqWM8FHdK9VigcSB8NBgjjACcTGDzT6Op7ZnsFDAMkjhI+f8mYkJFVY3UmgWUS4zS1kQLN/cgggQlepXU9r3S6JnurJzTQCX0EjknPQPFsLYGJgCqrGfBkmepf8C1Sk5PAzKSH7tZZV1hkm5UGvQ6lQGUSssLhhE0YFc481x/72Mc6ndIJO5nWpwYmJr02UNYXnyYcPKItr93mmWwkW/RcdqSOx8hYW6utBIccNqcJ9jT6giNZQngsRvSrhQ31wZJViX3Lugz9wWMLg8zwYdIxFoMjNPpMvtGRVXKemZQEI2yVvbff6Jl2avTGv/gMbhuYeG6Rww5M9BYHtsG09VfhzXttPEVW4NR+Gcvox4fxnj/t4JZNIh+TafxbYMTfopUvSOAQGOE57VOjQ8bN6p+uTJBw53mtZe/oCI2Bn+eztnIiMzIg29APf4qABWxFkB7Y6ZvAhAxy+DVtUvM1zovhRTuZ/JbWBCaRZdUF3pOlREfgpo48fc6iTTv2mjapLX4sKuCRpXE/vLY1X6ad0ufL0CUDCZetd1v/wbOd61UFJlUgDJ8BMAwTj1oqmyAJuzp50bG0oPuE7HMUFZj5rM69eesYMmUyGM7aSklt1RADSPo5cLUVmBh8nINBZAC1NJjAYvh4zF/gzFvPE5igtWZlKi78oBO9Jt7gbQMTaWg0e97+uWeijj4MNo7DffznS5WWKTDBA53ME5ho5/AoGSmyInGKkVdq961Wydwk7CxLns1by5gkizNvYKK9gLlvQkC/bTr0KDIJoYWebAngS7AhuweG+33FlobxaGLP67uBNVTDb9uEvcPD0QuoMi5S9/WvgYkASpv2zz20xlcIKqTc3Ye7FvcEVILLOOjIzKRGPnRnq6JvotA/JXCDJ4GJsULeJhXpcjAFBAIydKb/auvgRbdikpRRVDvPFdvjS/MHF9wyrGwl49lzz+hAdij8R9ahMe3SFl6+w/iGV5GJAhuvfDc60z/1WjMmgYNe/KBB4ZvJwGSLB7rlh9M+9LeBSZ63tSAvQZyFW3xf2uGXnJVFMyZVJ+sZmLBrto//vm+BtrjCkzHIDhLghqftWq86MGFgVuOckCiXg7V1Yy/PpEb5DK0aB8PPpEzQViPSwd6E4VAyeFMvIvT0AcvqSmqP8dnT5MTtv8Op2B6J0cPRF5j04WbYeMKb1SScFU5fn757kQFYQxkTOBJBd0ie+wce2ScFqF2ctIHvOhmTODJ92j/3rNTjdAwMzsL97RCYkIUVOPnQuQN+eOsr2gpitFVkrei2r+3QvbUEJpxNCxf+H/zgByv2JqWvjfvsNaligYk3O2TXhorxiS/2po2/Fl/7mUxkW4xl8tPXwVVjx4Ti+ZCM5g1MTEqZSATIAp+WjnzWVsofLWxVW/j5G/dMrjKyxsYQXYGVWrsEJiYHvLGZjHEr1Yyt9FltDZcfu6Mrb6KAbStOQBwZ0FG2xoJHPwupLIj0zzN2EBsnG3rRXkkbujauZV4EqLZ+BYPOVskwBDf524pNv1rHR5BLm4WYljEBI7aGJn1ty9nW4qPMF2wq243gy6wGR/rOG5jAZ3InRzZRt3M8W8bABF2ZD9igLVv3FGMsW8T0n4Vqnm/neuHAhIFxZfr9MQAAIABJREFUWAYII4rDMwlylgxcWjHOLL+eGiHKoIj8tI+TkYIEz7M4vDq40neo1pbRGSQOUDFwzgsO6TmDz+es/qwyYvRgzhuYaItfxSoHrRXOEH3t/RgiOocCE8+y39ohee5fYGVfngwzkNEzb2ACnEAxe/d4SnZruwQmVvnRl+xcZNfW7Ies09ZhUxNc227a59UGJoLnvsAELqt3doAuzjtjwqQcWjPOtOsrtZ1rk7e/abx4Bhe6Hn744e6gZOgwvi1CZF6GDoDXwCQZmufMd4fKStkYRZcAa2jFjh52bcxlgrYNYdyaiCID2ziL6A2PCUz4rKTMbemiCa8OKEbus2TWPk8/ZyJs/Rpr/BB6weYv8R0dqXNOK33V5Ix3/fhKejHWLcJkBujGZJ/7oSNtBLWCi6pD2Sd+0b3Qwxelb61XE5joX3nwFRKCMFtH+ITXtcx5MgbuyQRngRQ7nTcwoXuHavGjZPsxvCxjYEJG5iP0kovzkJEbvy5480zgaXyEl+1eLxSYEBjlMrAMMGkt2yRWGw6u+sIrUbAVDIEKTAyQCDIwvBUhak8QA56ggnPRJspJv2k1Q+a4parBMZCcgKZwNOW9d/Qo9utj9OCuJjDBN74qnGk01mfLEpjgGx9kYlBYoaNzOwQmnLTXZPGl1JVI1UWura7S1nmbRSY4MHZWYMKe0VUDExNSdGYv26TkQLAtLtsvtbiX4j4d1/EY/vtqY5AcyU5fk6PxKjgwmchW9O15zxuYSGMnMDFJCz6Gxr77zsokMBFoGvd0TBb8jezsInoDM4EJGGSNHmevkpHiy6YFTH1yq/dM9raG6JDsZFodDuYn2RzflAWeNm1gElhegw2NfKT73kpxD614b2Xn/A3cJvz4V3YKNxiCxixMBEo7IzBBky06Phl/AjFbbgJkGQD+2Tkk+NGJntUGJmTCTsEhl/Y3q5YxMEGzwFOAhmZbWeh0n05zllBwSZbu7wpl7sCEMzPoDRAGxtAZvZVL/iIwqUpC1q4NTLQlYA7PIGSgDgByOAzKRLnIAT04GWAcuEyCw60m3SgSzhyyQ9cYmPzvitmAyGqI/GTCyHM7BCbs1RYeG1QS8MZGa81OfEOpdmzQodN5J+/AaQOT2F6e11rGg4M2mc7KmMSua2AiGMj4oj8TCnufVUz8i/KFbn/Gqz18QVAmbbLKvnflb57ARHtbiQIBvFg928YYkpvVo9eG4ycES/iRvYksbHkM9a/05VrbBCZ4EThYZNk2srCJPQgAViM3/tKrwYHjNVlZyQRP5IoWmRptlKHARNYlGQ7npUxeeSvLlkz1d2glG9s87IeMbedVvxrcYMC7XoEJfgLbNb0JKCNfr8OTr7+qq/C21sBEtjPylu2LrtUbFZiQ87yHX8mBvmwfy9QJ+AWsZFPPyK0lc1dlsFWu5w5MMMTIrJoYGedk9VWNK0xnT5uB9AUm2qWfmsOzMomD4SzyPDCHau04R30NwJzLcD9FX+lAbZRlDEzQ6C9v5ZDxztzKgc9WgYicnugzMrdCjJ7VApU++Zus8l0ZJpY41Y6R57aK8laOswoCofrXB3PaPX3RmMOvdOkV9L4+2gmQs8J27ij8te05BjZHDhw5Wxlq2/bN5xqYTMOl/VoDExNbHB+9GT+hY1qNp0X5ir4Cl845fHjJS4DlLZY8V9fAJK83ut/+WRknMDYxTvueEEFzAhPjnC8iB76GHaDFGxuZ9Cs9Q9dkUQMTk5rJy334ksmw7ZGMxBCsvvsCSBOugMeES+8JcKosambPGOqDhS+BDV6trmUayAHsnKWIbtXGNt3wIxZ+WXQENvyurdDZ/LTAJG/laNdmM+jahIoONIEZ2K5lZdCgCJToLTSkjj1rs9rABM9KXnHnj1q73MjAhOzZpMVRaGvr8O++85rRl+wIOWUbhw8WeKb9rlDPHZgYUCJdDomzN+GIyquQMujqhEDgua8tJdQ+rjk7qx2DDmxBSu3Ttm8/5w0VTs7g97wagc8mG4bPWGzxVDoovX0rp8WRz/or672VA76/nRGYkGX+wod7slV4IXcrz8hEYJIUMEfROrXA0C6HI4cCE9tzcNCNFXH9C5x5a321ldHIVmG+MTO0V1i+TTSTlrMIcaq1jX4cVr7Ei4Nd9BtpwbM1yXbhc15qmv2uNTCBL99BYbKwsoKvTwaV10WuwRqCZ7yaxPGqJDhMewFCZOGwbfC2ujfubAexD2OzLirSRw2uyRcucNlUcNkGcF9/B9z7dFxh1WswEphYqXorJ889Yz/kC7YJbyhAT5+2/u53v9utgPEny5HnsWOf6S2BCTxDgYm2tkTYp3b8D9ocZDUOA1uNdpMyvNrI2pC1AMCzFG0FLeDhf2grZygwwQf9CkzAsJ1f6XCdrRXPZbb7Akf2lLMys86YeFmixeEzngS2/BAbAUdGrradFZjwdWSmtHNbbBc8sseP0hcwyJgkMJGRauVe5R/64NMW7eTtkHB4qWMo7bd7PXdgQhBZ4VAIgzYgCLkKifI5CBMHBTv0VJ9LwTo9Xu+BIVUVx+PQYp8B1z65ZjAOhOmbwCSKVxv46BQsxeisaP0FxnYOTPI9JlVPrmW7ROKRuS8FizySBqZn53b6Jmr6yZssYPQFJqJ+Dp3cwfFWQv0Lvnnr6ExgmcDEeSf6q/wFHlt0aAx+K9f6Lblpw6YTVOCXLbVOKW2n1WQED1mwX852qP1aAxO82p/nxODkUHPI3LMU+MmGw16UJzDomJ20ztd9Z1rwSmYCCu3hU/uMNs+zYqx6jx7BMZmZPLW1IKGzVm4WRDnkqp0vnNJXO1k4EwU5mLS9fdW3KtdWYFzfekFrDUzyunLww+E7U8In2OEzbabVvg8pE5RsR4LHyIKNyKokM4OHaWeh4M7bhdoqQzT5bR1ZEG1klegQP2CEB1kV2RdtjE8Tah8/0wIT+PUno5yDiH7BoqscJvZqt3vB79r486vE8LMlCwT69ixw6uFXW0Ge1QKeOSUHX8Hp246dFpiAwf70rdmf4InOfJ4VmLAxWTZy4Xd81wz4bQns1GRpLOgnE00mAsZpNpG+261eKDBh2JRHcNKIImCGxelZTThvYgASLgVrJ9UXoXEiAhqrPdsUHLQBk28hZNyKKJsS029abXA7rGiiYlBWawwBPWijVPvznsVZah+jBxsN2zFjQgd4930l5GFgcoSCEN9PEh1xdvWL8MhE8OY5mZENp60Np2HrwKuHcbr03BeY0GG2SLQxuVhF0gs47GWRVWh0xl7gZisyeFa24CiemUzxYCLAh3bwC8Rk5jgxba1OZVw4EXyyaSf5p9nb0DPOCC1wmRBko8gbnzJOAof0XWtgAo5gO1kTOI0raXNnGIwzxSFZE4M9ft9kGvzz1HRncjNROFfi3BZ+FEEY5xyZsa9MumCjgUMlc1tO6GI7+tIPGwBfH6ta2br4DK+R0l90xNYEn3RjjLNFgVb8A58ksOTEwWAX3oARkMdetbd9y3fhJX3VbWASG8OH5/DHPpxfy5tr88gQfoGxccQ2bHWwO/6G/owpZ4yyiCMvPrUPNlqU22+/vZM72YPNltyvfXxmj9kmo0NBOdwZe3CTBzjwotGh2BYWuNMCE68hkz0b5AP4XzIKHM/B9lymyzgQOOKffAQrshuhgazbACmBCRjGsIWJMYUfWZ688cPmtBHoVRuJbNgfPAq5h8Y8ZxvkEVrB1cfz/LmeFZiYk/jU8OQwtSDVmKSXvFEWvKlrkBrfS2ZDgXb6bcd67sCEEhXRrbSbwaTmVGQjvGli5cZIc+iKgk2A2QOXnvKc0Bmgge7NHIoWOFAkB6t98M0jdMZu8IFrUgCTg5M+ZaRgS3lyWtoY0FKdnBr4HAW86AWHwQ/h1R+dBggaqyMb6tPedybGAADLwAJHG3/ZyoEj7613D577p5325KoNmtHvPkcvSMS7+wp5WxXZemPknIAoPhOB+76gS99KpwEke6AdPByrzyJ5jgpcgzurPbJtz5ig0+RYU6Su7Z3CGz1UvNOuicBzepOejs3gx+TL0dpass2gHfx0KTjL6hEfdG0lD3/4Q7+D3WtxAvpHrmiiIw6KnQvYw5vJhBOnH+NnKLtiEg99VoPpH948982S5KCdydtYsg2HRxOTZ+zM+BzCU+Hmmj0I4NGoP7kJCowt9uSeYjXOeceG9YfHihVN+pMFGZCFcSMLAb4+igAoWU8wfb+RA6Fkw14iU7bWZr30p7NrrrlmxS+BYRwHp35oQAvYNcUv86O9SU3AFRuLHNQmz9iab9mN36ht+q7RZhI1VuAWpBkzZIY3n9kdf2mMoYMNG3v69sH0LPJ3UDdjv22rv4CNTcBtzLIVB2UtEOhTEdyGNzYqIGxx68tf0YPABq7IKQEyHOjHKxtJ1oMt+E6p2AL9w0kG7BR9dMU/kwFaLHroNDgSmIChwMG+9TeGzSXu68/+zVHwtj6tBibk3/LJDhOE4QVcwUr4DT3sKrT0yR9c2WE2F57YIJs2htBOzq3O0GxrE+4UZ7RaOtt+2/HzwoEJZRNWVQ5joihGwagInVMzGTAiUbR+omcTgoCGI/BMP/21NWj9ZgtBU8YshaSN2iRusgPPIMlAYfRWUCJoA9mEwFislJLeZlwmS4PExD0UmMCjDRwMjCHFWBcxjjqZtIGJb/hEH9lkz71D8ty/yKaedM9kSsYJTMBAJ0dngPmckkFnELRngCofVsKcFeeJHv3oyoRHvwJIcnOfTtvABCz0WK3bP9U3OidHOl/ktHnkAK7VBeeGNrDABZ9d+UXeahucpICPUyQTcggv+nEUtqUixyqDea/hsyISFLEx8FPQJUgJLIGJycV9Ns+O8qzWVo74QbM0eTshwsl+2DIHDR6c2uNLMRGTB2etfYU/7RouMnH+ARwwA18NLppM8i1cn/Ho97QSEOofmYOJZ+0UdmtxwR5N1mkbXjh4W4KcvbYt3WCwM9kEgTN7iOxTowNeb9hkcgXL2zfasCMrZH8VPjnwZ4IqdKGFLPvoqP1ca8OmvB7MD2X88U1kyoeQMRkKHOmabGdlt/hYPJpIW5z5TCb4FCwbr3CDDS/8fKXAxTiyUIqdyeroGzhqutZXm8gucsKjLSFZLbIhI8GksaAvWLIbglHjIrrRDjzbns4Pef3bnII+Y4O/Do4EJujkH9m6dpEnWHwc+zHH8Od9+hGYxKayxVj51EfGip2gE88WQNrkz7Wx7DkaModUOHhW0J1xqa0+Cjngr/bJtTNTFv10hKdFMnSBsR3quQOTyiwFGhT2xKxUDHYClaKNQRjMMiQGZU6Ne8Y4rHq0t18oWKBAJ/0Zc/pXfNOuM4jUUsDSxmCaiGxZyAYkqlUbeAIlk34CCzilNt1D69BEAQenoWi3KK3hwyCES8lAzzNbT+Db6jLpZHDmeWoTujZkHHrRx5HKmBi0BoG0oZWgYJJMDGwOyb2hACw41PRIZvpwiLZGBI/6wkdu6LBFMm2QmmTpnG58iRA96TPtsF+lo72GG20CUjaGL3bkc18GiO69WSGlz+6s6G1zOLgpzbpaXVa60AQPvsDGq60iKXLyzmRssqI3cmMLQ7jZBn7YiQAS/IrPtXvkbmL3yjMd480Wqq8otwUTXbV9p30GF12yMmi1NeVQ74033tjZErqnBXL6w6svWvRlQ3gxeVSetVX4BnC1055vMXF71TsT3SyaOXwyY2PkgF5+SjDhWcZK4Bhv9GDMyUbkflsLwtGubbai2jZDn+lHhlbgFH/pbA2YoQdutsiXsl/y6IPnvrHEvtK3r13uaWO8skNBmLESm+cr6IGfsYUpiOFDW9xkh2+lD6f2dM2v45F/rb7Ac7qNLZCBNnx+AlttyEN/4zN+wX0BqcyWOcf4smDCA3rZCd6qTwrvbY3f8AGm5+DXdtqwefC9add+SZv28b1gVTuucFxXvfOdxgH/w58OjR3+WlCiCMT65N3i2Y6fVxWYEAQFERrhU2ar4AjLMyV96n39lWn9036e2iTOUEKT62o4aFTgc7/SnGe5l7rizb3U9dki121/n1MWgdPXFm81MDFhaed+ZK2Gr8qmD1a9p3/kGlpT13Z912lXYaSdZ7lebd0Ht+UteNTV7uAMfavFX/sFFpo4UXXf89BTn027bu21ry1ckQUeh2TQ13fWPXBjP4FbaerjJ/dC1yLtyS72hrbAmkVnpS16rn3rdWC513c/z/vqRdprG97DU+gM7tSRVR/O3NMWb+rcm1ZrB19wt/3yGe7Q1cJLm9T1uXsp+oNT2+Va7Vn00sLwWX/P8yx9WpieB44+wZF+02ptU9p2gRM++vDqk3apWzhtG/YMZkrFHxhqwVoyQUPnjfpwbbd7qw5M1lsQUc5q4Q5lFiq8teJYa/9Ky866NpBqYGJ114dro3nZaHx9PG/UvWm85lnqeWnSfjV95oW/DO0W5W8ZaJ6HhtXobh64O6PNdtXBzpDVesCMbQhcZM1s6dnKcSbF4eD1wLEVYSxNYLJW4c0TmKwVx1bo3xeYjLLZ8fXCraDHkcZRZ6MNbG8bEJQIPmy32tp2KNl5GRkT2z6yK7uqDWybwGRXVWDL9xiYbG9n1up7/Dzqe7SBrWsDzuw5LOygrYDE4VxvTs1zpmo7630MTJov69nqyu4LTLY6TyP9W9fxjrobdTfawLANOCCfFxW8peXQtoPEu7rMxsBkmwUm0n9OkjsF7g2Noa+T39UNf+R/2FmOshllM9rAxtiAN868/eONL28oWViOsv+fyRiYbLPAhFEzbifW1aOhb4yDGZ3JKOfRBkYbWNQGWv88Hj7+XxsaA5NtGJjUwTEa+ugsqz2M16M9jDawPDYw+ud+XYyByTYPTEYn1G/4o1xGuYw2MNrAaAPLaQNjYDIGJuOe5mgDow2MNjDawGgDS2MDY2CyDY2xTQ+2n3eVVcKuyveuot+Rz+Vc7Y56GfWyVhvY0MAkv23iZ+qdRvYGyVb78i+/5eF3Lpyixs9aFbDW/lV+JmIyzcHXwN5Vv6iHPHx5EXvzuxZ+CTUy2ZVr9uDHwfweiOIXoHdleYy87zoTKdv39gu/4Ld7/HCj31Dydf07yw78tg8fpMC9Wjz8WXy8erVwtkK/DQ1M/ECRX6D0ZTJ+oCh/W0FQaGQMfsHSe+d+Mnzo6943ih8BiF/Y9bPpfrHYL9X69kA/r+0XZd/5znd23yDoh8q03e7G3Cf3M888s/tBLL9+7AfK+trsivf8qGN+edeXPO2KMliU511x/Cwqo2VuzwcKDvx6sC8184u/fnn5hBNO2KnfHeLX7c15+QXr1crIDxuCxbdb2G9ne9zwwCQ/CW8izd9qFbXR/RjCWWed1U10yxCY+PVZBp9fo9xjjz0mu+++e/dbCy94wQu6+yafgw8+uPvFzvaXjDdafpuBz29PkAV97QqBidcP/VrsrCyZwESArfgF383QzVbDSbZ+0+TZZ5/d1pPCVtPLPPQKSvwis+CAj1S/5jWvmbzqVa+avOtd71rJ3puT5oGnDXuQAZmVORdM8MN77bVXl6GZF37bzi8Tg2PMnnzyyd1is22zXT5veGDCIAh2KwYmlJ7AxAr8e9/73txGvDMMRvpRUMJYX/SiF3WZk/PPP3+iyBQccsghK5OPQXHbbbfNnLB2Bp2bCXNXCUwEzX76/fLLL58cddRR3RfrTVtRjYHJYtsXJrb77ruv+7rws88+e/Bn6zfT1kfcwzp95plnuuyIuWf//ffvdCmAf/rppyc/+clPVgLNeQMTfQQ6AoQ777xz6jwgMIH3xS9+8aoDEwsNvzacheipp566U7efNtuWxsBkwcOvyxSYcJYJTKQmDZbf/va3XfFbC/ZOb7jhhi5SlzWwOnBvs41uI/HvKoGJ1ZsUrx8BE4SyhWlyHgOT4UmsT25++VXm0SLApPD73/9+qnz7YIz3FpP5esnLpH7LLbes/EDe3XffvWbdWeTZChJwfPKTn5wKbz0CE7KQmfHjfhYfjkVYeExbfKyX/DYDzqYGJpvB8FpxLmtgYq+U84yxpnbg05kTAYyBZFW9Vhlspf4bEZjM6xzmbbca+QpMTjnllJWU8awAtA1MdiZtq+Fn2fpI2e+3337dRLSdApP4iWWT93rSg8fTTjut052M/XoElR/+8Ic7ePzqRgUmZIIXC9L1lM8ywlp1YBKDVhu0UmW2NhwI9fssotS0CeOivGzlnH766Z1wbUdY3T/11FNdccCH4Nu+gZHac9f6S8c5PwDGz372s87w0j/t0i91nvvMUPXzdoLijQUTujbtXv2swER7/Pg5a7U96eBc77pmTBKYVByhX4Qtsle8hdGXrtQWrXRJBmRJpj5XWVX4uc5zqVF92YJ9+HkGEHn95je/6WQOZ/rSa2woeIZqk7JMEb056MseEqSdccYZ63LGBI9sAo9wfOc73+l4RTv8nvfRpw87iIzUzvr86Ec/6sYLfmftUffBzT0ygoOepJX33HPPLmOCPnDhJpvWDtvABDzjgN6M48gwOuyMZso/fFXbYQc+ow/s8B+6F63JGCx8yAaxFXTSuXt9Nh0c5GA8ZkyjJc9qrR2a6bTe96NqdC7jaAw5YE5O2ivas9c+uO6hHQx0k4uS8TGN7sDTjz6iF/j69IJmfegxNOUeOsHI+MgPxWlPruC5R57wCGzTZoraV3jGIzr5jIoDbDjCS5XrotfoqHywAfMF3OEzeNR0Ej8soyyIUBsT5KPEPuelBUzjSeYCPMUZLTBTPK/wasbk0Ucf7WTNZvkAPGS+SZ/wEJ74C3ZZS/SfPqnpnu7oQNEn8kmbrVCvKjBhIITH0KXIOH/72lYUBx544OSkk06aXHHFFd1+Wj1wWQMTZ0wYlchTNHvQQQd1fQUs11xzTRcoEGCf4VAKo3IYyFmKI488snMaBxxwQHfi+rLLLpt89atf7SYAdKZEIYHJkOzbXXjhhd3JbLQ7EHX00Ud3b7tI+bUHCb0BwxiHzpgYmFbpZOKsh8EavOtdkwNapJeHAhO8n3vuuZ1DtT/pdedKB1mQpVfnHALjdMnRPiyd0IftIM4UrNrXtf6e0ZmJUR8pbyfdydWr1eQcmac/WByfQOmcc86ZHHHEEZ3s4U7fhx9+eCXITL+2NsDBwKNf5yQHtkgH9n6tbtd6+JWc2e573/veLvuEP/I59NBDu7e0PvWpT3U8oq3amutbb721ewPt/vvv72Tw+OOPTy6++OLJMccc08lZbQvmrrvu6hxWn4xbntvPcBhPr3jFKzo9284xpsD19ptiPFTYCUzIxhg0Gb3vfe/rZI83stRfu4zhdoIKvxysX0VlK841cf706S0xPyRpsUL/FX/Lw6zPaPAmwgUXXNCNT+OUvzFWL7rooskDDzzQBR6hKbjYtjfX2AMbHQogOHR6wfOll166Ags8b+LhxTkugYmtMuO7FhNA5QF+PFvweOtJW7Syb+XEE0/s3rBg4wKm2tc1Or/1rW9N3vOe93Q2F9/Etp1x4ZsE3/7SN9c33XRTh092FBxnY/BlbAqu2Jwx5xV6fBuH4OHzsMMO69odf/zxnVzZPT76/uA1/r75zW92dPL7bCd6Ae/Tn/50F4SFxtXWeL399ts7PfL3bIytyRJeddVVkyeeeGKHBQL5s7vYvzHBV9KdsWG8kIGFwSI0aU+XaLAIAJNeyTeFzmowkMCE/Xzta1+bCE4uueSSDgZ5kTVaHnzwwV77NLbYbwo8vq4idONV8Voy2+U/2Rhd8snugU3X2qXfMterCkwYKkfL0KNwk16KeyZLRnDPPfesCKIGJl7ZYjQGOoXp45qi1Yx8KB1tsHNQ4DMOfWVi4IdX8RaGX9g16KK4qogEEGBwzgo6AiOfGUx1HNMCE6sg2ybwO+hkwhiKbCstq72ugcm+++7bOaoKC9/4zIRF5lYQtQ1dklNkiW86UPChds/gE9RoX/uLyjnLtCO/6FI/n/3ace2DLsGK15nh1TcOn9yCV1+0cUq1v2swrJ5kg/bee+8ORmiG37U3wGxfuV7tWznwmJwNdDQqYAYu2IoAWaAeOjlysjrvvPM6+XES5MBpa49v9uZNKjAFuhxsK9/Am1abeMkMLDIHz2c0RhbtAb0EJtqaQARbrsk8OtGXPgT65ND+uff1r3+90z9c+uuTa7DQw09wpKsdC1agN998c0cXvuBQwIdT8TUEbKEd78aksaGNyWjIOcNBN/wJetknmZtgBLvwBZcaHbVU3etHj3ykAI8M6Vw/cMik6t15heiXTMlJsMuugxOv0ad7YPJNbUAEjokTbXyoA5r6hdbQDr/x8aEPfagLuEOjGi7t1WRCx+DmL9d4/MQnPtHJHl/66A9f+PVZwCrwXdS2yULh703GxkvoCk/wuBZwWQQJxNCnn+8oCR11XIBBDsbcol/5YPIPHWAr4OE/5bjjjtvB1hOYkKfgF1740R25hR7ZF7TjIUXgDQ8eUvwicZ6rH3vssS5YCz3kDrbPajhlZ2qfZb5eVWAiyyAQICRKscq++uqrJ3fccUc3EAQNic7rgK2BSZSrL2VYMVrRxHETJkfTKonDMAlwIJQpctXPQLbXR/EmoRjw9ddf3xlJ4HA0UmeiSv0pzupLVGllA45sj0ic4Xz84x/fYUD1BSZgC15iQHBz5rNSx2s1jDYwsWqQ4TGQDTgytTrCo+DB88ghuDmLe++9t5MX4xWVG0hWugIHE5b+yrHHHrvDgCNLWSFyZAuCF8GYYPTaa6/tVgJgCjD9BadJIHIEFw46NHlydDI3nDI5Klby6ZsabhkMdgK3gShrYnXBDunQhBIdrzYweeihh1ZoCQ4rN6tQkyWZ4AENb3zjG1fkg1+yRRMa4hzYGrvGK7snv0wEAgJ6o6NWT+G7r5btkvWwqkYLXORv0klpHXANTIxF4xmtVrjGAN2b7NHuuUkW7vy59iVVArb4ARP/jTfe2NmdLJsJ0hhC0z777NO07fRsAAAgAElEQVStFKsd9PFS70UObBEctLAL9mkSYmf8jnv8ATrZUSZAuIwHuNkR+mRe+mTLJvks7QQTgt7QQh74yoTCXqXyyVxh8zIzaQ8/ncBLNui2KECrzAQb5x8Eq2zUpK1v6JIBtJhAC70IbulFYCtDnSDZczrDE5zpb2x5xg7YlnGpH39AlnymZ4HP7mQf6Ax9Mi76xMey8WRnyBQe448M2Ag4xheb4UONP3qQUcS75/xtuyiKvKbV/L2sJzhoBpMuyIgc8V9tQwYqspTJI2fZCTyGX/5FVuPKK6/s7GMa/vaZYwp0zk+ya0UGC9+CBc/YZWxQ/wQmeGCjsj3oMgbNWfRFT2CRo23Y2p9O3v3ud6/gxAd84VPWSjAE/m677dYFgnwUm4GbzGRmMh+1PC3j54UDEyvwrCwI02BjtBGkmtEKSBhJBgvma2AS58nw0lfbRH5RokEbGOBaQVMMY8xWiQkajAwYToEiYohoyXMRtYGOdjgYfdKAaYNWPEl/U3pVXCZUTioOBV0mRPg4IisZji501/7reZ3ABB8Kh8npSKObpDJgrYhFy330uIdHhi/1a8WJn8hSmjYOm8xM1HjwnEM00cINVwZU+gtIBD3ozISkH0cemslKelSfyF97aXsDWDsBwTe+8Y0d9GAbLzq0WjLRZ9KBAyz6s1rOgGe788hff8VqNM4Vf1afVtzhBc1gCvroHT0chr7woCGBCdsQ7LZbaeyEk9LfmJA1Cf55aA0euKRt4eGEBae1v+f1cwITsiFnGY06weGNc4tNW32zE7T5M8kkuKef7LPrB492JnfBG75McrYvIptKy7RrwU8CD7Xth4x3/eDjZ6JnE7kgLH/rEZjAJ/MSeySLyAp+svUXPmxtGn9sl/wE0PpHr6n5Jb4qunGf3jLeIlc2B7bn2hpnCRzYZTKSgZvABG7ZinYb1meBCN2zO4GHTEDkSs8Wb+igO3bNL1ce0WCShUOgZLzWbIVreASncMAlKEJj5DSrJluBNRyK4I7PjY3pz18JkNAJjzb4iKy0MY4TnAr4PAejtplFS/tcEIInRcYrdqCu9OlXAxPbNnxAbSOotVgxRsBzjcYWJxl7ThYJTLTBH114Rq9sKDYFD5kJ5GMfLdxl/Dx3YIJRxibajHAcBM2gaZmLENR5xpilDw1YBlSdfNqoKRIO7WRnAouTybaE1QaFEnxraNpbIWTiEsUGxpNPPtnRAD5jtRUBZ6XT5/Db3q+Bib54MElyiOhleENbUJXH9bjGd3QBNxoUq5gMVDIwgZggpp134YzIsi34NwjBNyCsNCIvztlkwSGYDE3S6R95p23n1SaTLmCLgxdQZI837VODI9jAB7xWN3TiPmfEMbuPP8GP+8FVYXDMaF80YwKGb4kMDpN+Bnt4Sf3II4+sOAarbSsTf9oLTAIjKfGqe+0EhFnR2QoM/bXdrGu4ZB/Jqy8wafvXwER2xfPgTU3OyZjRs0WEZ2RN5lU3fINnLR6yMJHHTtvMTdu+fmbfMqDxBdddd93zcMCJdyt09NC1xRI4/rKVQwerzZiAVQMTtsD23Q/PcIV28sx4sfBJQBeaatv09wwfshrh16q89g0+fWQM8GTsmfz5IfeVBCaCFjZHXxUPOIKl6KT62MDQhg8NLVbtgQEeWaa/xQra81zf0Co4sYjT1mKxZqLSbqgWtCcLiNc2OEo/80AWEGzAeKy01MCEHYfH1IGzSN0GJhVfCyeBSQ0i2zb8YLJk7VZQ2g4FJvgXxLI5wWRdFE+jK3CXsZ47MMEgJ8O4MhGZ5BdhSvuk/pwv0bf9c88qgiEyZmnFGJCUKuG7L53HcaVwjAaxAapY6ScVLcUOLjg1/W91mgltXj7awMQ+pgAHXSbcRWUyL96+djUwYdScmhWl1a9J3WrDKl00jT7BoBWofn3wyIc8GLoVsUDQZCSjpD+dRJb6k7e9X/c9N4noF32lDi665uCSIhZs0FtfQaNUbA34tAOLbuFUZCuGUpR4CX2co0ASTaFnWq1v3sCCR1o0fVubNUklvS4o4Aj9cdayc2TDKSXD1uJNwA2PYM3z4Grb9n3WFi66BoOTSnA8BCeBCUdu9eVP27aYWI03MHPWRxt2gC/3HdKkrz49uiebAoYiW9bHQ989dkiu+tFf3RZO+/BnAs6ih4/y3J/Uu2wKuaA5AUX6q8EILjxZ9LD72mYoMKltXLNFQTM4xh26QmPbtv2sHR0aH+zIdmE74QcWGxM08sXGvhcJPFMSmMTmWzw+y/CikWwdyEybwPBZwOK5drId8ZVsS6BPpraKBbB8gRIbiD3ow9dHh1kIBt+02oFm9qmvBR9Z+Gv7oFkQFX74oerjhgKTFs4in9vAZFrfBCbGioOvfW3JTtAUOfncthOY4FFJxgTv5jvjhD4s1Ph9wYn+VZ8tvGX+PHdgggmD3GAzcAiCQWJ8XgbnDUxMnoTvgJbzBRGutD/BUwBjd45gqNjvZAjaiqb9MVYrWrDdl+qfl/a0S2Ai6BEA5OAnmM6+wLGITAJ3NTVcDBkv9qqzGom81HTGiLOaFJxkgoEzbQ16GRWTiK0fzpWOOem6x2v1G/44HW+Z1L10q0mraenEwE4NHx2SlUKHAsU+HbovpWlC11aKktMDy3aee/gW3ISeVoboW21gwjFkO5AdZpuqxeGztjId4Uvg5I9ME5gYN0OBCT0muMXvojaEf7jWEphER7XGQw5S4k2gCI/JPed3jDETAT0MFeMi+qLTPhn23WNDmZjon7/pa+eeiTnbOSZrn+t9trKzAxOyE8DEZtlPG+AM0a8vuQrE0S/IGtp+BUNbNqct+7RNHt3NG5iQCf+RDIP+YKe2yNGG7mSkAt+2Kh49o5eqd/66Fs/iI40BQeyQDOp9uEz++IPfWcH6vF5rK+uonWLL0Nhnq9ote2ASuVrYkqmgtM9uEpjQWQ1M9HeuJ4s4Y9K5Fwt8cCKHKrNlv14oMOGcCYXyRbAc6CIMzhOYcIZ9gQnnz/HCHxpyPVSjk6K96kc5HJsJQHsDazWnlBOYUL7zHHAYcPAwDANkEZmspW0NTKy0GaG/CpPRxokJKNEqcIixeu6aYVv9xOHgxeTjDIlgEJ8mCYFJ+sIjWHAwkoMiA/3JRjADj5WodvBwFrYbwIpu9JlV4JXezCqCPgPDNlrlt16vJTCR+bEq5BiVZIIq/PBFHibw8MQhRK7zBCbozERP1ssUmAgq6AdvMhb4MunHThLwDumQ7LTxHG8yoK0Mhz4795CxLVBma0NtycwYQCc7zxZhAhb4NyIw4eNCswl5Gs2VF3I1gZKX/rIdxo77tZ1r99iM116Dy3aK+8rOCkxCh0xObD26JV/XbdEui0k+xRwSONNqfMjS4A8MGeCh9toKYrVTyD2+Qp9lD0zCl7Ob5LhIYJK+MnVe1DAG6IDcBLeyvl4VXnSuDtzNqhcKTKQlDRzKF5Uuyuy8gYkVJxw1Y0LwVvsEjgYrL+lI50dmFZkNA1mmQNoTDJMng2XUiwg/gQkDUqTf7CkzAnBNmnWPbxHYi7YlfzjRMRSYBKYUOoetvVVMHKZJNT9u5Rk43lAyucqGWIk5XJeJqA1MwCdDurU1JkABh/44IifiI2c46dAzRVaEDhUH2IYK+qJDuDiewEBneGzrtQQmJjSBSfAM6TT24zxAbEKg5j7ZzhuYZFJdtsAkkxw5ZCvFpM8eOEDjiH7YV94AUvvcV4ayRq3ufGZ/bElxQLOvjXtkbSwkuGPnOei8kYEJWrKoIi/BdOxjiPbc1052M2OUXxnaogzMbKexuwTDnkVns7Zy9CPbeTMmodWCA3/6O7/Wp+e+e95AyUIlsPpqPBg7sjTxJXD2tc09sstYtWAUmGSRtlUCk2RoVxOYkAP/6hwOn5tzfHTElhx9sECN7URuy1rPHZhgyGAXFCiLrAbC/FoCE44nWwqMlfOnCJPPrIJ2xV4cJVGWCSDpz9A3T10DE6lj+7AGgUOhGawG5Tyw1tpm3sDEIBdccHpotFWTwMThNNtSdEo2+dIltOXPpGwCIrehwERb9JCpgCNpdfgcRoTPc9s3cSA5KY6+oRLdeo4mn2XrAiNnP/oGnLar3coxKeAheJwD6dMXvPAI1LUlR+eO3EfzdgxMZI9iD4JPk3/0NKuOHvtk2d4TxBjrijfN6KRtk88WHQkktY++amDC9viA9ElNV4ucMZH164MDHprZQWietv0U/OrQEHszJvHgfm2XtnyOrRx4BIg5y6L9zg5MnP3gC9AKF50b2/OUlpehz/iwYDGe4OFT/Q2196ZLZGcsxr9pv7MDEz5oiC735zljol3Oiaw2MImtCED4IF9fIThlI2AK7tJmGr3L8GzuwASxBq/MAGORdpon+q1MLhqYwJMzJuDkjSCCdkK/wm6vKaAtnCKjNUEbzFHUIspKYKK/w7gGo/5SibY9DFgTWlaXLV3r+RlusoBzVsZExJzVmMmSM0GL1DoYBrWAwn381L8EJtoMBSZgxXFw2lKvGRQCnuyZei05+PJq7CyZBK52aGMHaMG3b5cd0h9eVhuYkK3VIFrZoUNrQ5OqyUemiHw5ALaA1u0amJANJ0oHtgaN61k6XM1zZ6ay9Rp/0+o6nwXEgiQ0GX9o9FcDEwubvoCCntrAJOe1Qnc9/Cog4PzzrNbgyMqiQwbHpFifT7vGi7cq2Bw7Itfw1/ZDn7Nz2hpn6NNW2dmBie0YgSkeZYXiM4J/Vt3yMvTZwoWfhcc4H2rnvrNx2pEH/1bbClrZEX/BF4W+2mbR63r41fepTOu/UYFJSwNb52ONUXLho9o2y/p5ocBEFJrVqoyDcwmzGGMEabNIYMKICLMGJtKV7jFAKyiDs8IPHnWMr60ZUWBMe30wMCpM1wlMOIOaloZH9oRcTGTOHHCObX/tOEKrIU7MdQZ223bWZ/DxMiswERSYZJMxEdTBq4QfcKy6grPz6s/9M/HGEYGjX9oN1Va3ySKgL4GatLHPdOitAt+XMASDrMjGX9q4J1sWvqU/hwLktQQm8PjCqdDqwK17SmhJbbVm8JOviYVd+iOnjcyY5NVotMQ2++hFd/tWTnirtXaZ5OgrOiRXAaZ7isPLq7XhyLCv5m9sjdK1ccU+W9sLvbaT6Erx/Ubu+2MbJnD3+QxBdovLOGKHCSi0b21KgMPW8Nv3PDBNBvyKdnCawPJsVo03i4PYdr7moO2HNwf3badpKzjIto9n0RkfNfQWjGwE+vRfdCtHxixbBWytvi4cffTVLR+zPnsbMIsbgWk9tF/70qnzcZG5N//8pY3xuN6BSX1D1OQfXH31RgQm5N2H2yJJJjE2NW8Grw/WRt6bOzCJoSVSZAQGqvMgCI5gYhAEYBVTU2prDUwYpr1muDkqk0UcSPCig5PkaCgldKd2L6s92R/8ZO8tbTgIMNCbdKpn+MxEbsBkHzsKw6uARGDCaWSrIs/BMIgYqq0wh3lNasGbdvPWbWDCYUQOYIBrxeZEO8NEF7qdqg8/HGFWJf+fvTt/sqYq7wD+f8mSlJYxiSAUIkGILyogoCibCARBWUVA0SCgbBFkMxoEJRHZ1LAolZBUWcZEQyqBxCotEyspYuJPmdSnw3fycOi+t+/MvTN35u2p6jm9nPPsz3Oes/Rtv43Q4hZo81aPQFZHSORkv4FNiuQVnEoyVRdeSU1eX0WzqXC00CNZxFkiByXY9J03QUKXZ/hke4Fhk1zsoNaDK2+qJEiH79TrK1PHb24YueJBYEzHXNugpW7otX8H7f6UO5GYoAfN1pbpiFzNBsIfWqOfXG8nMQHXJu/sqyJbe4DIGx051GM/5DhrGSY0tSU4fuQNP3RgT4VOpvKlDj+VEKqno7TODpa/LHmIF+wwr2tGP9rzSW8WZR+VxKNNYFyzZziyiTN8KivtfvmTT9GF2Rt7ZVrZqE8m9Zl74in42nqDUBzDb3hWSpLMXEbXZgvcDz2rTkzgkrRHL2KyFwnYWGhwrh65LfKafpUjmeEFHvI0uxs7jsxdZw+ceNA3UBEblp2YSJLDP7to7SWywM8qE5PIgT/mLa7oQCk+80/+w1/5Y5Xxup6PTkzCgE4ku8E5hh/A0blLQkwn6kj8EqP1LSMQwTx/20lMImyzJgmIAonAr6OVcEgiBEG/52EXvzcKKCJtlfiwOU9bwUrHY7MnGF6XxYOO1ojC0oxOPU6v7azEBHxZvmDESbxqq0MOXiX6E1CUZiCSGEXGY0uOy+DAkRULiF4pMwLytopRJPieo0fQzgwUWhwSoyQmNqZKtgR/jmbUbQNapddISWeMRomYH27j9DpkQZYe6FywTKduMxqY4Qt9dJiA49U2dJN/dKhjRTtbq86EZnz73QJ04R9fYPg9Bo5oI5wOyC+qegbPIolJ6MSfDisyNioDl07hYPN+QC042Av6tU/Ht5OJCZnh1aFzZWvoYdMCaf2Bve0kJnTAJzK6Jx9LiXyF/cPjsBHUEqKkzmxi5LpIqVOpM2++CwQHO9NBs6UMVtiDgUFdZkErWznkkEM6ubBFbSIX53w6M4Jklx9vrHSyOXHChnz8sktxAhz2wPbU0QZ+sSeJM9nYI2EJRH20i5HgWe4Rs9Dp0KHZAxabs2zER+FIbPKmRXyWTZJD2iuXlZjUvSTiQJUHvSRRI3fnlm/5Pt1LqMjk8ssv75IF9Nf2Y87ZGBuy3wYOPize8HEDLqWZC/blOd3pi/xV+KtITMRHuqMn/YikSd+HLjFUfxIaVp2YiFOSdgNu8uEf4pP9g5a92Qo6+Qb7CF3rXC6cmGAGwxyTQjifTl5HIzDrlNPpCNj53QLGsozEhONyAJ0hYTNG+Dg//EYbGflIjBhvdVrnAoflDAYfGDpR648SLTBy36hFRxyFzkpMyEY9iQ+5OBhlApbndqYnqJCf5QxGHviLGAu46OSUDnyTuSMyyHN64TzJ7OFzkIVAR44OiYdZBr9HQqbgmN2R6AWHQA+3tqbHtYNT4BAk4NIObveNaGpyp63ZJPUSUNSjLyNf+kx7MHUAVS5gwS1piNORtXbqc1AdTe1s3N/KyI3uLZHQFVxgkpEOrm62xLdODm2h1flOJSZwCopZ+iB7Nm0E6WDrEpfQtp3EBAy8kY0lHTIhf/KhgxoH3JMUSDKrH4SOMSX988PYChzsDl94tITmmQRGpxgdpIPScdMXHUYuaHSwM7bn+17snS1LTGoijUa+wn7YVnybTYkXYhGbqG100DoC8NDmgEtnpn5s0z2DuOr/khfx1TPtxCN48Yz3LMmKHZmxDo3gbDcxCaw6iGoTE3UkWmSORnIlXz6BLiXdS+Tw4c3F6EXbMYdY75B8kDVZgiVO0Cc50h0cSn2NQUz0HhzLTkyiK4Mv9FS6xC/9iEQh+FeZmMBhqR5O8o4Pshf30OYgK7ZCnqE/9K1juaXEBCOyftN5AgYnoyAHxxEsOJGlFtmb+v4kJpyfo3Ge3O8eln9+hAcM9bzRQZCMWukQ4KxrekWTwTLKdBzaCBJGHWYQTOWmXS0ZsA7ThjhBGw/g4EEpgPgxsHybQ1v0GgGgzfN2KcdzhwAlEIeW/LYJGEYSRrORlVdkw1vajy1lymhFT+SVc4EBHh2V2Qwy1ZmHDzhybiSmgyEHcgQDfQK3UZ0ga8RtZIonwdgyC9malTGt7D6n0I4sXQta1nvJuvIILx3qyM10SFC0hVt7h3vW6ukQ3VUmcS5JlpGoIBUbVLJBvAscbAQt9CWhDs8V3tB56urYjPzBBD+2Fjsxa2K2qPIIJjp1OvALEn2JUWSRhJg9k01wD9HWdx9+OCSa6RiiD7rNV2zVM6uILod9V/C1BxwSq9RjBy1eOrDcYu9ZdECX2rAjMrPEFB9o28+6jgzQS3c2QPLt2EhsVRBm4+jTpv3TXifKn6uvsxNJt1G2hEbMQjc715m1tIFtFiC8wo9nB/vi2/7SzqhVjGSfiS1oj8/Cp8Pnm+FVW+fiq848NqeNAy5JsH00NSlJO22jM7F26LeaMqNJBmYBtWtpMIuZuNJ+5yYyNktgjwX7DY+hUwJhxscoXr0KPzKaVapPdw6/xWGAwD/if2RBX2Kt3/DIoKuF6b5Yhhe20vLa1h9zjX9xSVzIQIzdR150Kz6jnXzImTzE0SH4EmL8qJdZ6VrXmzbgO/CbZ2xVX8uW4am2Ql5eACA/tCyqg+DY6XJLiQmlCLoELxjovM0EEJZ9ClnvSgcSpiwDcULTczp1Qur705GZJud4nF37GFNKQs4arcDI0eCXbGhLWer0tQ0MHYBOmQPayGumw0hS0gNG7VC1AQu/puk871s3D+xMZeNVxxYZKAVZ8rIuTyZpU+uMOUc/WnSK8ORwTc5oNYqWQAzBi/w5ryljr77p7OlRUolH9JGl2Sc/rmTGCt3RLxkKbqbr6UEywonchzeya2mAm57QLQGR5NjPEh1WHLUtvA40KckTvToYtiDhEZDJxzPwjbrbxKzCnHdOhmDZeMvO8Gm5jIzwEFkETnRKZux4yF7U94c+elNvq4kJWPBKGslAwsGu2TPdVjtUh1zYCRsJvW2JfrQ5+IPn4bGWOh4bMtk12bAjyxVklsFBrb/oOV2DQ97si6+yFXqHA22z/uCjJzKmN7YibokveBLLJC90ZWmFPodoxKtlDjDQwvbRRW/+arvYDV9nN2g2W0gfbDR01zbOQ5M46ZtN+a0mfgIXf1Wn4otuwAUfL3yohe2aLdA9eZCLtmkf/Np6Dk67FNMhfpVXPJIZvkInuaBBHKxw+2iZd097+jAzwGbBFivYGjs3w1Tl0MLTlv1qG91ul6bgY5f0IdFP/4fvbD6HmwzIkbzJuqUv156L59qjD+w8cx3+8cFn6zO2xy7JI/YtjoKnbuhNm3Uvt5SYVKYiQApwuM5R663qHK7gpkjXW8EVONuBMRZvcG2V1rF4Fq2HHvxHBn305TnY7fO2/Tz81Vm0pcdZuGfBC+6WpllttvIseKqtbwXOqtpU/qss6/1V4o59BPeycUX+wbMoX237rdIXOMoxNKT+onIJ/Np+qzSvql1LY712vmy80f2islw2HYFXdRPe82w3ynWTz1ZksO3EpEW6CkNscSz7ejdo3g2cY+Q2hq6hOkP3l4V3DJxV19kOj6umbYI/bu/CMuS0U3YAz07h2o5c9gKN2+FvartzvkXWS09MJgXurAIneU/ynmxgsoHJBiYb2E82MCUmI3eI7yelT7xMQWyygckGJhuYbGBdbWBKTKbEZOlrwOtq7BNdUyCebGCygckG1t8GpsRkSkymxGSygckGJhuYbGCygbWxgSkxmYxxbYxxGsms/0hm0tGko8kGJhtYtQ1MicmUmEyJyWQDkw1MNjDZwGQDa2MDU2IyGePaGOOqs/AJ/jTSm2xgsoHJBtbfBqbEZEpMpsRksoHJBiYbmGxgsoG1sYFdSUz2y4/x7DU+Wnrb62kksf4jib2gI3bl1ydDa36hc5X2BvYq4YeX3Sj3K1+7Icv9gDO2vp/tYkcTEx+38/0O3xTw7Yi9KFjf1/CNDDz0fWhpnQ3fNy180yHf+HC9zvTuJdrqz+vvJbqXTaskxPdAfKPDN0180di3s/I9lmXjE0N8iyTf6vKtkGXj2A14PsbouzoO36rZi7FyN+S27jiXpUdwxG/feFoWzHWS3Y4mJr4u7OuePpN9/vnn70mB+iqyz0j7iqPgsU7KnEeLzsEXKH0F88CBA4Nf45wHZ688348Ou66yJ2tJiY+VffCDH+y+kOrrr76m68u7PpS5Hdoz69IHwwcj4RFXrrnmmm3h6YO/0/ckuT7Whx+x5u67797zPO20DNcVX76xtV364me+3uzDn9uFt27tp8RkgXVFAWMdExNflvSFzXmfFk9iIuDtx8RE52UE4UuoRtGrdrZ0xr6iPPR5+VXTsC7wBVwB8rjjjts47LDDuk+vv/e9790444wzNk499dTXfA11Hs2RK5hmWX1hd9YXl/dzYnL44Ydv/NEf/ZHQs3J7nqeX6fniS71JqH3ZXIxQbleOfOHKK6/c+I3f+I3u0CdtF+a6tZ8Skz2cmAjglpM+97nPbbzvfe/buOWWW2YaqMTk3e9+dzcK22+JiQAgObvhhhs2dIhf+tKXZspiGY4oIfniF7/YdbzzZL8MfOsKgx3+93//98aFF164oSN985vfvHH//fdvkA/7FJDVWYR+CebXvva1jTPPPHPjwx/+8MavfvWrQRj7NTExWzIlJosnA4vY2arrsvvvf//7G5dddtnGO9/5zo1/+Id/WMgP+ugT626++eZultDs90033bRtmH14dvPelJjs8cTk+eef75ZmBDHGOmtkuZ8TEwHgySef7EYQZLETiclf/uVfdkt6Ri4Sot105N3CTe6OH/3oR12gJPtrr722Gxm6v1W6/u3f/m3j937v9zp9fuhDHzroEhP7c8iSbUl+pxmTvZmgSCIk7HRpG8NPfvKTLftE9SUJv72CDzzwwMYvf/nLwaS9ttlL59tOTBKYEoRSEkI9dz1vj0lbf6wg23bt9Tw4qa/MeV8bwWHsUs48WH3wF70Hh2w8AUzmzBGG4LSJieuW3/Z6CJb7qZsy9+r1rPazngVGSnXx1sefe+o9+uijm0maxMS9HEO4+p67p37KobYvvPDCxm//9m93ewGSmAReysCZB6sPR4WR5y2c9jr1tlq28u2joYXNL2xyZYdGcN/73vc2bXCr9P3rv/7rxrHHHtt1zGeddVY3I9PizXVmTOD/xCc+sam7reIGt7aNfbWyCf7tlBVPPWfLmaqflZjUNqEj91Lm/rLLefKAP0dwD9G0KKwKp54HTy1bGuqzWedDNAXePLxgg/GRj3ykixH2JfYlJmPgVDqD373sWVkExiJ1K96dPN9WYoJBU66mbH/84x93u+/txn/55Zd719L6EhOKsyfAzvMf/vCHG//8z//cBaExwtNWtmi09td//SgxRBsAACAASURBVNfdxjsbUq3jRWHzhAmGDprBoN0bBHixto2GSseYxER9QdWywi9+8YuZAXUebUPP4UA3HALYm970pi6I6Rzdc/zsZz/r8KsXOG1i8sorr3Q7u+mP7PFu2t39tJlVooOc6JXsfvCDH3Tn7gVvld8sWO0z7egQH3SDNnjQWmeF1IsNejNDx6iD+sIXvrApi+gCvBaPe/g1xQqHTo7+2WRffe3dB/Pxxx/vZJ9Nl/SOPgfdo1N9NJJ99DIEV131AsPySKUXHAfYL774Yifzv/3bv92kNTKvbRY5B9uSiT0d9GmDnX0j//7v//46XwAXPjzTEXmTO1v0xp17DrIFdxE6yJ4ObJrVOdvgJy6Qn4N8qgxrYnL11Vd3uMheHMKD+ADmIm+hkb1YwqYd4hO5V7yL8DRUF03wsD04Ejttfh1KTGIHSjrAG/+VKOMXjNZHhvAHBt7IPHF0aD8EudArPczSLfyx99gPGuDjr565H7rIIT5IDvbLuad+rRPbZJfoGKsPdOOPnNm29mYdZrUXx9iatuhw8I/AUZIbfkJjLdMPWI4UIwxi6Ci+oZy1RFlh5Rw99F2PFr9+Cq14I0cxgg2zMzyHl8Bcx3LLiQlhUO5nPvOZbn/DO97xjo0jjjhi45hjjun2MVx88cXd1Ho1vjYxoRj7I+x7OProo7sRkrdGbOwhRAJr/9wjWAq69957u6Blyvetb33rxtve9raNE044oZs602n853/+Z6/BgElpDMda+Nlnn92t/wmEjuOPP757s8BueIqN4rSbNWOCLkbAEG36IwMGlPbLKuHBm7cfDhw40AUwnQLZ22tyyimndPseTIFL0tSHu01M8GZmAa1Gp0ceeWQH74ILLugCVNr10S0hNN1s/Z/86Z4ObH4kT6850tEsGH1wc0/guu+++zo+0Ea3bOz000/vbE5nJCiDry6Z070A4NDmtNNO2zxMp1Z70I5uvPaNX+u/Rx11VMcHPOD94R/+YRcsWx4EZJ3lu971rk186IOP/B1kIOjgR/t77rmnkzP6Bd7w2ZYPPfRQV49OvMlScdPlN77xjY42Nkpfb3/72zdOPvnkbqbAq+xJhlq48651Ak899VRn3/TJHx1kys7ok84rHPZ00UUXdTohs8j+93//9zfl7ucBKg+1fd85nZIdnrxpo3NmW5FrSjpP+5qYmDERZz796U93tsyf+QV4n/rUp7pOIe36SjqzRPfRj36006/27CK2Z7lU57gITy0ebekJHnsP6JL9wMWfr7rqqo0bb7xxcyY0MybiT2CJX+j4/Oc/3+2pQh85odUeq8svv7xLsmd1fHQuaRPDxQy+W2GQwRNPPNF1ZsGrg2MP7N8eoCE58C1vXoJrJjedp/r6De0//vGPdz4iyRbz4ScHdo2HK664oqurjWSCrNgjfSbWSYh/+tOfbsoldKbk8+yanYLPpuFwzsf5pX6o5cO1/oVP6yPI6umnn+76FrGFrsj8/e9//8btt9/+Ot+A/8477+yemynhG2I0/fLtHJafZyVH4SMlOcGZA5yXXnppk//0l/pPcidH9JKXGEfu6JUEtjwHxzqUW0pMGJmAjtkEI68GMihKEEzcdy7zD6M1MREoBGnKestb3tI5hNK1Q4LSN+0FlvvnnXfe5ujYZrvghhd+2eknP/nJbkQf/LVk6IxOWxvMjLS1cTjPJj4dWjqYeYkJ/tDtrQTyeOyxxxYyukrfrHMGpXMUhNCPXzIzWg0PZM95ZP2BVRMTTiWpQKe6nJX88Q4ex9XRVePNuYSDg+g4gldSYg0VDWB4ZgpT8qNd2oaWWaUgICiBEVlGv8EHP4cGFz2eoz8BQFvXOQS0uiNeW4ljlR+6cx0bPumkk7rgqMMMzWRKXmSNHjjxDRdZOviGxDdt2KK6cBg15X5bChpwO9hPnhu16YTgiL2SNxrUBVenXXlM23kl+zbbBl5gkSceyRF/8Aru9W0ngw52pE3koK4DPUodxyKBF62SLXYJZmDHrpXkW+moiYnORmKkLZvU0eIh9EnW2UufTMhOZ6JN+MA3WbALMOiZTTz33HO9MPrgtvfEzwcffLDzMbrEI7j4wrd78LrvaBMTNm9mxNtO2qFVfZ0uHbpGq/hgFrEvWWVPkk0xIvXhjl27hw40GYCEB0vHcIJ/6623bt7P85SSpviHwVz1fwk3+wBH4nriiSd2NJB7pR8NdPnII490dJIFetQJDUpxrB10wMc+2TXZVJ+BJ3JmG/ohA8rWTj/72c92fLLxr3/965080V1jXXR3ySWXbPYTkYEkGW6ycuAH3no8/PDDr5FN2g6VdI4G8GIfZF3rS9olLHhTl+3Sa2Ibmd11112vaVPbr8P5lhITSQnhEg5mZdYc4JlnnumCqeAqQBgJyEbzVxMTSiI4WbDlCAbPSM2eeAa2rD+dD2HpHGyKY0gErp7sXTuBwjq34C2wBYaNeK3ByRbRRrHwyGK9kid7lV3Loi+99NJOmWCm/azEhBMYIYBH8WZbKu3LVrbAQm7eBsEHfiVR7jnQrWPLSAX+mpioT4YSPCOfZ599tgtARquRncStznhxdvDIhqOzAUHayOLb3/72xne+852Ob0lAnEfQmDXl2ycXtGuPL8GVLOlXgDISFoDVQY8DfDzr/NGuHduJLJRok/BUfGYf1BcYr7vuug6PDoNMzYZIiuiTLdfEBBwzcrfddltn/2Ccc8453Y/X+QE7+NhRlf1WEhM4Qq9ZFgERPYKdDj82bxQveBr5kkfajCnV569sltzA0RHaVM0n+bpkG17P+asOXDv82YAnyEmK1HH4LRH+RG9mBcbQUeuwWz6NXzjhJ1eDHIeOks7TJokJPTjIx5IOHeDBzJtRI5sFj7yqPsHBzx133NHpUz2JJTugAwk6eviGmOW50WdmQxeRubroT6dN7vwJjXzIjBk/jv+gt01MJFZs1jPyPvfcc7uZNMsw6DXTRwZkQYZkEFmlxI/YHXl97GMf63gUw8mafencEsPDI1hohndeYpJOuS8xiRzFEMkGWbNnMdhskXv4Iwf4XLtPF+RkNkCC4blD4hDelGKvxAJ/4JgFZJNsAo/sttqsPqWdEeRP2jvQq5+QuFqqJOfQAL7n6Ic7sjL4Za+ZWcUrnxC7ciz6xpqYJe5kUE8PbWKiDwzfZkzIht7Yllkqtme5L3RWua3L+cKJidmKBEiCpuA6XYhZTm/tzTRhmNep18SE0RKUTFdGr55DHUGEYMGHLzAY2/XXX7/pkAzVmlkVJtzWEQUOSmMwsmH3wYHP1H0MThAQYPI8uPCE/jraGEpMBOo4AZySobYTrDQu89xGQ47LOTmKvwofX7muiQnZCtDkV3mnN6NKwZeMOHISLLJh5PBxRgHHNKrn9eAopgzJAgyBLnINLUOleqaykxRIetzLH31weLMRlW7wODt88GrX4mhpoGOdqv0LgZU2bMZoEiyHEWrb3siPk8MpYUrbvnIriYlp9MDSmdExWsCqSQ/aJdvVV9JuXsnGdVBgSwIFbXxGn9rTp46QTeBXEgtnbE1dtkQObEMHWfGC18quPu87p1/JATsz+EiMCawKryYmeNC5SdyjU3XZjFEjeDo0Pl9h0K+YRA54JRcw8odGHZfOig7AqbN2fTz03ZNUiE3a80FJIb+sdfmkROHQQw/tZJ7EJHXYGjrBkNS0M0Bij7c1UkeCgZfwayklSR/dq0u+4EenzsUCfhC8SgkrHZPBrMREhzsrMUlSZPZDR4/m/KFT4gQHmwNHDInNqcfmzPiEFjqr+pYkSGbYpGUP9FT+4CA3Mx3wqCfpADd/SUw8Z4NgVBxJzMkZnZL29GVVZgas4PMd/Vt9tpVztEs+0eVoExPJCNsgG/5ccej/xK0MLuqzdTofnZgQhsNIlBIIRAfCoPIsJeU6bxmtiQlFq9fWcW3komMiXAaZOtbS0hGY0qrOFGNSMh4jvQTc6kCCJkMHWxZdRz2hP2X4CC9gt3tMPLMGCSbjs3zBoUPzqkuJieSLPnQO/oZw1sTErIZAi8fqbPjRIYKHH84ZOZg9scTjmU5bUqJ++we/Eb6go67kT2AcoqveB49daeegO/dSxzl6W5o9n5eYBEYtw3/ugZ9DoAoddJw6KXc6MaGPyLOlOzRVWeXeUEmGEn1wHexHsK0w1NHeSI3f8xszpPDH1pwnMWGLbWIyhH/W/a0mJpbnQnPg40ecsjxIfuJCOlzP1JcIkIFkwajcvTxz7tDpoCs+wL75epVXcLalOg4dCjk6xNI2fqadRBQ95C15jqzNQKMfHxIsCWnapIRHbNRZ65zAkVD480wHqjN1n6/hq/0LrLb0k/+JNzWutvXGJCZkwJbINvaMPtdmxvGJfnImp4pDPfFMgoUPpVk0bfFuqwAe3bdJNfA9r4c+xVIdeVo20nHnL4kJOuwvgZOsKixLivRAT/bTtHSiOYmJRGknEhMzjOTmMHuLX7RHfuiv17m/TuVCiQmFZxTJWOrG0DFM1cREBz4kHAGfoTh0DoGtc0jCYhSBHobUdzBGSQyDMRUfXKZ4OQRjNiUWpXk+60CDv5qYCAqyfQbHCYyETJFVmKF9VWUSE3wukpiYXuTYkUulT7JGPg5LFHkmuLlHB0aL5C8Y9B3WOU190qEASUeBM6804sWPtpbljNDbxKbVFZhbSUy0A0tAkajh3WY8ZaVDh9LSvZOJiRG8ET+Z6DytTZN/S9Mi1/jWydIpmEbS/vpgCMB8Xl0zGXCzc3UFunVJTNglmto/NJpFIz88mNqO7dszZJDimQ7NSLrPpmPvpsPV5fPiTJ+8+u6xr+hQzCDv1o4j/6HEhI3zDTHMMmkfr2CAazZGEqG+JEKnyo8shfLhxPBWVrOul5mYoMs+jFYGeEJrEhOyiq6qXPmsAWp0QW/0LC5rS0aW3wyo6Ngh5tVDApTlawmKRDN/NTHh6y2drtmEWTo0SILaxB69O52YWLLCP5os+Xhjizwjw/BRZblu5wslJjqbZNqyS867CENjExPTqoTKcL21E0HKrt0XWCQbgpCRTt9hlB6nFGySLGSJRzapo12EfgabxIQRykbBQ49DshU8i8Ddal30tInJLFgc054QcpU0DOlPACUfPJkGZdTgSgzdE9Rk5aZBjb76DjrJSEQwbpfcZtFpmtHoFi76NiIxfW0kLhDEwVoYiyYm4AjURs/2RVh+ssdCIBRssjaMBm90tPh2MjFhVzoXNk0uAg+5m7Ie0mNLb3stQEfPEkBB2l9bz7W6ZAI3GsyWrTIxQQuayH6RpZwkJn08SObAcxhQxI5MhePJfUkXu5Z8DB3sQl2x0Fsqfbj67nlTIh2G6fa+0XWngI2NbqaYrPlqnTFxHh50QDriPlzu2VeVuuTCj834BK7YxdfyNwSn3l9GYiLukrfEIYlJxeGcX5IV++SP7XPXeNcP4FFiLXmmU0mne2Qn4RzSY+7TOZkYyNY3fLL5FR1De6XIVKKX9n0DsJ1OTCRoYhn+yYEfGYSz8/RP5BT775Ptbt9bKDExaouhm7ailASnMYyMTUxkeDEs+0gYoEy07ltgiJZPGE3fwfBzyIjRx2h0lhTG4M1uuD9WQRw4iQn67IVRws8wlRKFsfDGyGxWHfSsIjGRRJAdnmTc0bNZgxh7ZNtXkm29b0PzIp0nvnRM9uoISnDqBDiYe+yjz+4WSUzoCA6Jr1lAukOzJErSJYFzDi8dW/JodbGTiQncEkudkUBIJg4JsuULwZifLGJ7Zjzx5rDJsa+jhBdMNsDeycMhFkQe8C57xmTViYlOO7LSUcauyaK132rL9ZzsF5mat88l9kRnffpKkmAJm/+hK4kJHegsQ6tZleigr7TnKPo1aKJfSbj2DjFcXNXWXx+M9t6yExMDguih4pIw8cmhxEQb8utLTGySx5/ER3t9xawDHs8NSthd6BiTmKBDXIKLbaxDYoJ+SbC9lPhiA2wJf+KdPXXo7ouh4X23y4USE44VQ5ck9DnWLIa2m5gYvcepLOXoiMxazDtshqUInWNG8QzW6GEWve0zzpvEJHSYCrej3qiebEwtmnFo267iGj07mZh49S58m0GwM50O5h2WYhIAF5GD4GRt10xZ9gWRMZlnB3yFt0hiYubFGr+gxGklIt7I0eFKWK2R21Efe1+HxCTBhD0babJltAuKztHPJ6tMZp3jM/wZWer4hurTX0aWcO6nxMQGQXZNFjaK6tjyBtCs0ttD7RLjkPzoziZdsoPH3o4+XXUZwsCMCRg6S/pGr7jXByM0iLfRrxlkOhTD48NiOJ2D6y/tZpV7ITHxUkX0KV7P0mF95m0fMYc8yGBMYqKexAQ+fcq6JCbo0r9JcL3MgDa2oJSQLpJQz7KHVT0bnZggwEahGLqlgKER1hCx20lMOJCfpo7B5XVM92cdSZ4YG3oz2qQgI+8hWvvuc94kJoKDEaSRKvym2SMbr9qNdfQ+PGPvwbGKxMSarOxfEK0zJtasI3+juFlyr8/q9OFY3lKP3ji7DYmm9I04yV72nxmv1B2bmERukhL8mFbPjvtOca8GaXsAyIFe1yUxIQ/y1CFa2rLsgEZ8mF3S+UUe80p6js1KOmYtt0nqsz+C75jy9gcHH9vLMyaWjpMweH1e0lptlsyHjrGjTu0llOyXrtgyH2l1FPtrZ0wiZ3vu2D843qYBt4WRa0l99GtpVPxLDEeDZNw9PESXaTtU7oXExN4wfNOpGRlyxuPYI7zv9cQEH3g2C8Se6DtyMchfZBY7MtmpcnRiwgGsM5u+xJwOvk57jSF4O4kJ/PYZwM0xrZnNcsqWHnUpKa/CcmxvGiwCg/MmMTFFpiMEEy7ZqSUA9Bm91hFlS8uyrtEjMeGAZMKRZgWYsXtM+hITnY+RpFcYyc4IDB/kN+/YLr/RkTcSMnWLZ783U2HXxMSSR31Wz8GzCVoHCw6nrc9zbmNjpkL9zknoyPO6lON57reldmaYEhTMILV1XJNxElwdR31duK0fWnSiedsEfHt7PMvztl29ZrtGe9qZ8dNp1ec5B8uzLKtJYmpQW0Viwp/gQZtZjOwtCm+Vv/q68Ng9JnUpx0bnxDX7RyRo4JPPvCP0RFazSjJMMmxQI55WPrTNX19i4jkftMeLXCxrDuED1+9ZqMeWnLsnBtRNzJndnRU3Kg57LfAArmX2+qye289gz4Z6Ymbls+4xWcVSjtgrRpGTgRXbWfQPL8tKTGxSFmf4j+W1KqetnJPlrNeFW5jq81Gb+i3ZosVght+k/2rb7Pb16MQEoTJPmRbGGJzNkNXg5jGzncQEbLMTOhO4ve4qMYI/hzrOCTv36rl7NsCFflOZAmzqtvQHVu4z7iQmAll9f1xdHU4Cj9kd04JpW0tTqjYSCwoMpj5b5Bw9OkfyEHysKc6Ct53EBH8Ca2ZSBB2vBEd2s8pFeJpXl/7e8IY3dDy3b8rY0Ei3gpLfdwALXS1MNqGzU5fcsmmurWdGLUFYJ9DCsvGRHMCR8Lbtcw2fZRZ6UtePLOVZLdVLkjEvMdEuMken+uBbSgSnwh06Zz86ckktv5Kop65nwQGe1+/BF+wlP+wsdZwve8ZEYpLXcvl6OvHwXHWx3cREx6UDix/R1VgZRl5jSgl/EkF20JcQd0LtWcoJfHsH2DdazRqCGT2ljjK44KFbMx3uiz1+WCzJTd9r8IFTZZx7YrgOFn4/7NbWcU12lsdC51YTE4MCtEukgj8lPOzOzBNa1I0fi6vkjEfxKr/Nk7bK2G7knXu573pZiYlZTXoQSwwkKx1bOcf7oolJ9GQAFTu3FL8V/DvRZqHEhMEJXoQsENqlb7qwnZJUj2OYfq8d5XYSE4IVQIyY4Sdc6+zJ+CMsuNXlwPDl2j2HgOf11QRyI1RBDw+eg+NPO51+lgtiwDUxqb8h4DkY9i2gjUMJcKErJXlY6pG5erNp1qg4bYZKOG1gjDyMwvIbKuG3tt1OYgIOmDpo/Dl0xkM/OS9I6DAj00rHmHNBW+IZ+wGHfC0h6Ujpj+4qfPomd88EJnoN3eoFFrmZMVFP4DIK9DwH3ZOV0VzsRHCpuMA1g2N5g/wlqjaV5c9zf0rwTOMfcsghHe3eEgPfMwe4eGMLGc3CW20D7QKJZFjnkrbuW9ZMR9PXWaRuW6KP/8KFBzN+eSshfKCLXNkWndvrw6/BCn9oWHZiYvlOB4o2AT1vv0QHKdGw3cSEfvLGDnwSIp8NwDs8waUU18QFz1p5jrk2yxD/sRzORyLHtCdPs4HqoSeJLPye5Qci2Tp/YA94CK2WZ+x7kxg4/IKzpT/P1cvmUPDNfNuvFV4rDfyHfVR7E2/FfXRJUIzC00YJh7iYX1VlV/MSk9o+5wZ1bA2PZvNyP2VkIQbhoyYmnvktLHHCs+ypCP9Kf2QhxkSf3c1XfRaeZSQmcPkeGTnQhZgFb/jYSgnmrMSE7xikKdWtOAzYyAQ9y0iSKuxlni+UmEAsOcgoi+IZNgUShCk0m6skL37/QrCu7/lvJzEJ04IQx4hwGaYpfLvNOblZFcs8NvOhAb2Uk4NjC/jZTMnwTbXZSCb4gWPmw54CU8kCCUPK31Bigj44TAvDzXGNaDiuvzxnLOTiOUPVgbbJVXgdU+KH44FHHzaKkgG5cziyCZztJibgSESsVcJHdjozm810vHAamQmqgqHEy8xQ8I8tyUzQM/r3y8JsyuyMgKqDJDedFT6jV6XZL/SQgzpmH+zDQJfp4/yKLTpsdJOUsCMzZ+wKbxJRcL3ihz/PHZIJARqe8CGYJzCSB9vAP3zwSiQShMjeyF89QcGrvmiyj0VixIcE14xG1auJiSSIrXjFU3DThq3yO7ShET/z9h2EdiXb0QGYASEvdJlJssyBBwe/8FaV5w51dXzax67BWWZiQsbkJviSQ+SP1/g5m8uM5HYTE7yIE14fjU1ITgwg6BNOOMjCG36Wal1XW6hynXXOxvK6MXmzZ/HKqF78hI8svSnmOf5rYgI2X8hme/biF5/ZG79Ras8/tPVcPItMlWKQARR9qpM4R+9gi6N8TZLbxnB6yZI6+iQgfEk7fuq3Ygy62LLndLedxASN5N3KFB/sjv/hoU1MJJDiv1jg4Dd+KVZMtJwi8fQpDr5PBwayeKs6XVZiQi5iCXnou8Q0NsX37Yeht4q35bW9VndWYiJu0Dv9+aVu+qQfcZk+6YR9ZdDdwl+H64UTE0IxKmdsCdwE7lxnn6ntBEpr6wnObWIyJACC1J7BSQyq0sDiCIwJXobLCRkmoYcm7QUXwte+HjoURprNfHEgMNwDA26wbYzU4eVvVmISfhgDmEaxAkAdcRi5CP5Gz3CQV10SCoxFSk6G7nTI6Jcwkgs5BdYyEhPyl4RIhsgYTrxW+bvGG+eonWvoGCqjo9ohgYUPwck5nPhjVxnlpR3avCkhaKMLDdEpXerAU1dwlpCCF/p1wEaxOif1vdIp0Ykt6CCqLvFh42QS5dAW2QvQ6TzVZRdkAl7w0hv+XLM1CUvkhxf0aiupQpO2kUnw5B5+6DhthuSc+5GF3z2w9Bi86AE7nWN0rFPOdDkYq0pMwEabJD+/JYN3MiIvPkOO9oL420piIoZUObEdcuDf0Qe5imnkkISFLJx7Q03HGFmOLeGU+PLL2IA4ARe+3MOrWBZ9sLvoKqVXhbMHRxt0GhCBkdkzMHSCfXSaOTaIqbEOPnLlM8FNFn5ojHzCoyVduMgi9EYv2pGX5Cj87FRiUmdvycnMDZsl28gab+IDvsgZD+5ZqsSjduFzWYkJmPU3uMjIzKiYBj/cYlnwzivBm5WY5CUBePBNp/CRA3xsJfzOw7VbzxdOTBBKMAKg7xlYm6VoRkjZnIEQdALWL2Ms2kkSJAsCudHJENMyycBh4NVYgl+H4JshHBw+uAmcEnQunpmq0rYeac9ZjU50PoIw4xRwwAAPnZIiQS+dEcP1mh/azIbIsisPwaPTszmUs3JSeGo9GTIaGQpZbGVWocKDV8elY8M/WdAHvvAR+umMvtAvOcpSR4Xl3H10o9+oA/y2Dr3aUIcP8MjPATfZGFlLSmrH3MJor+EhYyMMgT+6DWx6gU9SmQ640uacXo1szdbELshEEDADkyltdU3jcnA6UMeBF3I0/WrUlSSMPMlM+0o3fOyMvWvPhoJPogNGaFTXDBYdoC3yoiOjUDI14kSPg07TVmdA3mar+Jv2bBVf5MRPzKqkfqVxzLmOyhsfEoH4cnzKPc/qzF6XEZSlKqN+dLGZLLuMwTtUBx8OsUDCFXmRLTw6xvweg1hgNsl9djMEk12QK5mZHeirh0educSbfB3kQFf8yUyaD5by2a3IWht2YPAlCUV37BtvfMcH7dAQWp1HHinBMDtiiZGvhk600oEvQZspSfKO1/rn2oCLL7Hr+Apa+ADcZkM8t7xXeeWjBpkSDvXQDT/5WyoQ78RG8gJLzKzt2Qe+teV/rR7UFTckXnRF13110GFZSx3wkjRHRkrJpo3wfJFdo1MZWWtvdkjMbnGYmQzsWV8E5x/q4cfMWwvHNf+S6FQ5a0NGfvqCPvva9d3Dl1igPV17o7DWs9RKD57BF37VtxXCK9LoJL/abp3Ot5SYYIBwlByZk3F0oxAKJCj3MR4jUdcUsODJgPK8TxjqGS3Nq6eTEJx0DHCb6oVfW88i+NAQmlN6zjnNWFhnNfUOlqk+dKYTQ2P+GBi64JiV5RrNqefQibZ8MnrZqwCYxKGts8g1w+aEOnVy0KGSjQAaPShdo0ndIfhg4c8xVA8s8tGZCkTkzwZMlbpHrpH7EJ6++9ENG4DbcoIAa6rbdGQ6hMBO/Qor9Avc6BIIBUozfTUAaMtB2au1dPSTW62HT7YAlpEunbtX8aWOtqZmJbNsivxCX+jVjg3hC04wJR2xAbYS2bdJHdq11SmwU3rWKdOn9sFVaRtzrh0e8Ea+bCj+jCf3wneLg1/Age7YO7sYg3dessbzkQAAIABJREFUnchMrCAvurSEZSQcmsBgK8FNPkNw6Zps6bOVbdqQsYMNkC05SBDZOLwSzWpDaTe2DE/kFttjA2yBrNFH1p6h01GT8LRHg3ODCPYrfrE9vmKZoL5ZhLa+P+09I1++pUMjY/pnk+6nTstfcKsXW4QXrWjDQ+w4LykEBvvAF52hM/drCb6EyKFefVbP6Sn1IhNtc7BrvsFe4p/0yY7ITZxSR/0K1zldw40PNtY+z3XwK4M3z1LCwebEIboWzyTdYiWZpd6YEo55tJExevDMhtmvfo1/RE5jcO1WnS0nJiG4T6F5thtldcDgj7GE1pT1uXN/9V7a5VmFXeumzZgyuG0iNdVmkyejHdN2Xp3AjuENOdw8OGOeRzYpa5vQUe9t93wReYem0FH11kdH6s2SW2AO6crzoWdwpn0t+2gZc0/QT71lwOujL/DnlVW2OZ/XZuzzlrdca5+/sbAWrVdxOU/73K/38myRstJfYeZ+WwZ2reuczTry11fPvfYv9ZTb5SUwWtra64pzVectzlyTUaUz+PM816sug6+WoWtVuGtcgndVeJYJd9uJyTKJ2e+wYoxG8KbZbLyqU/37hf+9Yvz7Rd4TH//3dtMkh0kOe8UGphg521anxOTVVzZ3wqBlrpa97H+w5ml6Gt7JSGcb6U7oZsIx6WCygckGJhtYDxuYEpMdTExMwdvI50fqkpRMjrAejjDpYdLDZAOTDUw2sB42MCUmO5iYMHoJiQ1IZk+mmZL1cIIpGE16mGxgsoHJBtbHBqbEZAcTkyQiypxPzrA+zjDpYtLFZAOTDUw2sPs2MCUmO5iYTAa/+wY/6WDSwWQDkw1MNrDeNjAlJlNisideH5sCyXoHkkk/k34mG5hsYFk2MCUmU2IyJSaTDUw2MNnAZAOTDayNDUyJyT42xmkfy/Qq9rJGMBOcaTS8UzbQxq1pT97BZ3v7OjGpBp7zg8XIw69gkr+dCizrgOdg0fM6yLqlIbKvvzhZ6+R5tdH6fDrfXx1R9B295ldYc50y9lCf55469S9tpnJ/2Ur0ua8TE0z6bomPJ/lCpm9AtE4SQeyn0rcdfOTJB7K+8Y1vrM303DwZ+74D2vOdj3n1Zz33nRP8O3znZlbd6dlyg5uExHdlnn/++df9TL9OJ98HmuS+XLmvqzzFXN/g+dznPtd9oNA3vFpafRfLhzPFLd/eSXKirW/w+NCdj/E5z7MWxnS9f+xpXycmAqQvgebzz84PhsTER958PdPXi31umyPje50dF40Cjy+lnnfeeYMfDxzDA14ffvjhTu907wupY9pNdbYf2MjeB8Pe8573dF9Crl+wpuMHHnig+wrr1VdfPXUw+3gZufWl66+/fuM3f/M3uy81Gyy2z6+55pru+Zve9Kbui7s+KqiOr/6edtppnS/7crevL1ebauFM19v34XWQ4b5OTAj4q1/9amfwOmmJiXvLSk7S4RvhczYj/vq3Wwr2I24+db2XEhNfIPX9IMErHzesyVR0Jtn0hc55v5z7ta99rYMFns5wt3SxSrx+qM9XUvs+2b5KvEOw6ehHP/rRxgknnNB9Xl5CWD846IOVPjvvM/a+ejoEZ7q/PzqXqsckJr/1W7/1uhlMduMTHeIV31d+5Stf6ezD13214ceJDWZNKuzpfP/Zy5SYbGPU4nPa99xzT5fRcywf5Kt/u+UwezExkdSdf/75XfA58sgju46rTUx0xNddd13XsVmiqc9bWe/3xETCffrpp28cd9xx3efNW/53+pouJCFnnnlm17F86lOf6j7zLnlHy0svvbRBrzqX5557rqs7tAdlp2mf8K2+Y5OYSDokGZbUq8zZjeX2ww8/fDMBuf/++7s6v/rVrzbOPffczqYkLI4pMVm9vqp+duN8ZYnJrE5jJxiF37HIjEnapJxHJ6c5cOBA50zHH398N8U4NjGBA/yU83At8nw3E5Pwk3Is3Tqpn//85xtf//rXN/7iL/6id5rf7IDp3De+8Y1dIKuwW3x9iUlbp7afd562KdWv5/Pa9z3fanud/SmnnNIF6aOPPrqTW4U/C277rL2ucBY9N1tiKv6www7bePDBBzc/uwCHjkdS8ru/+7vdMh19LxN3pRXcHPX+Tp1vla+ttlsWX6vCD+6sxMRze8sk2WyEfz/99NOb8dF+JbOpEps3v/nN3Sc9tsPzqvjcDk1T29cmWwsnJlWp9bwVrGd9z7P8kQ487dq6Q+1Tf2y5SGIyFqZ66Puv//qvjXe9612dM73zne983donHmfB7ON5Vv36TNu+4O7ebiYmkU1La72u560M6rOc48m55TJLAQKUjq6Vb4U1LzFRN0fwzCsr/Hl1PQ/8WqZd7uV6bEkWRpjve9/7OjlITH72s5+9DlcfvEXp74Mx696Xv/zlzhfo5+yzz+5mEOE0s2h2R6cjabGXKDMpLbzIpaW1vW7bue5rW++xl1wPte+7v+i9MbSG3go77VLmWXud+2PLvvZ998Abuj8Gl7a1vXN6ZrOzEpPAvvnmmzubts9MopL7YLAfSYkvs2936TI0pgwe1+29PBtbLgPGWFz7ud7CiYnpdBmsY2gTEuW88sorm/W0icIFKdO6L7744kZ2Z9ujYXrOzm2HkbE9B0PBqyoEXIb/y1/+suu4nnjiiY3vfve7Hbz/+I//mDtjIsij1VsccD/55JNde9ON+ItjVZzOX3755Q6HmRIBV7YPRmSjlLi07XINrxkCvKLZ4W2Ff/mXf+n2qswzcM85aOT2ne98Z+OFF17oOqm/+7u/6zpw0547vfl1Fl+//vWvOzugr9iDc7bgsGnXQXaRk5IOyPuRRx7ppoJ1fFdccUW318R+E/X/6Z/+qbODtKuJiWlh+OhTckPHzz77bGeH7DG0pG1fWfl6/PHHN5566qnurRP66uMLTAfaQmN4EXTpGhwjQ+vofTj77sH3k5/8pJupIwfLI95+iQzhQ09tG/7wQAbeUkL/Y489tvHMM890S0HkoE3q1vZjz6+99trNxMTMyX333dfpBE7+wR7RbNbkBz/4wetoZAtsmg2gK75IZ5Iv9EeuLU14Jud//Md/7HxIPXEHnsDhn2LCEI9wR1fwsbtf/OIX3dJDYJgVEi+GYGgDBh7YLDrdE+voms4tZeXNs/CjpANtPacb8Sg0t/ySBV2jh7/jn/zaern21ou6DkvOuZ8SfvGKHaEzcdQgh1yG+K3t0cS2xaHwSQ6WaS3B0n3fUg7YaLLJlY1IUCq+n/70p539aJ8XGIJ3kTJxJ3L29k/kbLMtOw3elOA715a8HWzMtQO/4HzrW9/qbFZMr20XoW+q+/+zJgsnJgzD8oXMVfAYUoKd+WYRTjzxxC45iNAlHAwQjI985COdERtdCVzeJBG0ZMzvf//7uzcrBJK07SstpzCKD3zgAxvHHHNMB+Otb31rd37hhRduXHnllV2wZPDt5lfJjCnns846q9vtDb8ROeexQe9DH/pQ97otHC2fH/7whzckJZYWJCYCsTY2/uUQBCrNgSHYGV0a9aLZRlWHTsbbDF6rE8hSv8JwLtAJuJIOOPFLbkcddVQn2y984Qu7kpjM4+vGG2/skoEECCNYQR7PkVlKQS58CxgnnXTSxtvf/vZOzumQ8e5gi2SpXtokMaH3u+++u+uIrVWzrciaDaJJ0B6SNXgtX2wEDNPL733vezt96YTAqHAEZDjYiaUXnQe68EvXYNDZn//5n7+mXXjoKy+99NKOZ6NHdpekmK/l6Hs9mg0/+uijnV8de+yxnc3gAw9o9Dq95I5t9eEdc4/dhiblH/zBH3SdEr6TwNPdIYccsvHNb37zNTyTlY4Yf/iIfMiIzujXTAuf7aOFv5x88sldvPHGj85VnGEf/JqPOBdrJBnk0cKRBJCFWVAzcl61h5e80MHH8GEvlNiXZK7CQV9sGC/s+6677urgogMcPi+Z0M4fW5cQmFVgy3RCN5VmHX3FJ4n42Mc+1sUt8pK8VTpyzh7pVGKAdvAlC9VOE08uv/zyjnY0hl9vwZCZRIWOArct+Z5N5nTAprXHh7j+iU98onvTbigxISN7ksTQD37wg52/xZck7RdccEG3/wR9bKnFPeY6MSdypqMqZ3TqB8gZn1U+4JO9fYRkfeqpp3bX+g5xKXCU7G4MPVOd/09C+mSxcGLiffIEH9lmCzQGZQTPENXVxp+6MkqG6xnnE3Scc1b3dfQ6E1O+EoSrrrqqc+4WD3iCi2DICbSxeUrwEIByDww09CUmRuCcAX6HOkcccUQ3ZZg2gol362tHiRaJk+AZWWhvWj0HvtrEhHPI/iUU8GqrnboCAHmEFsZv5NHyLSAJ4BwpNGpHdmjXPp0WfnZixoTOBRC46I/u0CSRoFfnaLV2rFPOGxl0KKBx6MgjPNUAJHCBRZdgqJPARwd4F2jqSDCJCXmcccYZXVvtyFl9MvIMvTZsGhW2ssaXkfNFF13U4WRfZEpfDvS4B5YAJSGoHTv7VCd2ZaM0WbiHH7YqcZ+XfFe6JFd4BhM/Dh1YDjZgUFDboEPiEd2QNfr5iXZgkavAq3Nug3KFNevc7F9oIxMzJmCxe51udIz3dMyBJ7GIP9FLdMz/0Be71hn3yctIFi/a8UFyIGtJhevYoOfOjcrbGU17m8gILm3gxgd6wSOjyJ3uvHVU7RQvZmlShw/bpI1vtMUXkqSq74/MJQzwwpEEiDzcc6Dlpptuek1y8NBDD3W+hqfLLrvsNbYXuSr5ZvTM/2rHy17BYQ/wgMUfxRcleaAJfrGWzFr7wLMkjE+CgX/n+GXr8TXPXLebX+mengxUzQhW+AZg5GA2zgCh8rXIORv84Q9/uLn0jiY0StbwHtt0z8CuTVzpWRtJNVnq09hRbAyNYLHN/C1C31T3tYnK0hMTAmZYOs8Yel9iwgE8N0Ixk8FYdcRGdabpGYg6HOOWW255ndNxqDvuuKMzjCQkRjkSIrAs53zyk5/scMRZ2hkTo1wOKCjAYRSnHRokRJwIDYxOpl2NR+cKl6ClDuPWVqeQQ4eaNhzDtVmcdGZGIl6hNNoBz8yP0VgCoI6ijubBUBcuMDiTmRswdIo6BrJGr+cCxE4kJpxRUIEPTTp6o0000YXRFr4TsAVHM2f+jESMUsheQCZL9WrAlxTi+9577+3sQR34TKE6LGXgvY4ok5hEThIHHQk56wg8l6SA5SC3GhDpjb6SlNCJGTR0Rl8Sc6O56AtfNXgmMWF/Ce5G4OxLwDW6AoNeYyfzSrSb6jdyA5fMwCADhyWi2nGDfeedd3Z6IVfB074repE4kx8e6c1hLZ/NoaOVxzza1AfP0hlbzgyW+5JGsjNTiM420ddZshudmSSGr1puYhtmtdxHP577Xv9OYhIbM/K2kVpnxB8NQi6++OIurqijk0k8CF9JTNgDffFF+MFAM5sGl5wk3zpr8k57ZU1MxA9x7Jxzzul8gLzxhB56IRcxiC5D08c//vFuNka8YWdkqdPGt1gYmrVla2nLlvlUpcU5PH64DD+OP/uzP+v8zjMw2KBE3TNxRfLBvmJnbIfNRCZkX3XHT8Vr7dGI1ttvv72DCwb5JaaB0ZeYgEf2dXkrfLALfUliKZpDe+rMK7WR/EjE0UD3ElyzXpZF4Tarmlgu2cjm7cBOYiKegCE54cvsnH2I/Xgl7/yl7VS+NukYI49dTUw4ghkEhpODYhkjw2DsjIDjJFiGKdORAgNDMZphIDoCCYsDPNm9TB4Mjl+d2nOwBHWwGF7ucRRBlcNpiw6JS3Cn1AFIrNRh9HGePG9LIxN1HRxDYEmAUhfd7kkmEmAFCnUc4Bv9ay84CtgJRpwBDDzA4zkYq05M0KWTh0tgwhdduR/+0SRgX3LJJV09Oss6Mrojd3rGG1g1MQksyQedq3PDDTds6rovECQx0YFI8HRc5Bua6FjgF+zho8espYceP9IWOeILD9p5Hhtzj4zRhC+j2rRPYuIZ2ZjVsYcADdEXeKFpXhk5qCcogmlkn+QVXkdoVE/Hxz/QIJjqYFPPc3+SBkkyOZCHmY7wN4+mvufoDH+RRVuvva++DlsnIcGEHxwlfqrvmK1s2ycxwSd9txuCweHTloMOPfTQjlcdbp01SWJCrpKJzMBFXmC4l46YvCwXVR3WxAQtki33wIhM8OVaO0sYb3jDG7pEB1w0pq6SLAyAdJbgSdAymkePwRg60CyWtXIWS8UMMUwSo/NPHXS5x26TZIUXuNVDq2TTYAce+JN8e2bQATfaDPDUrQMEcMR4S57q9SUmwRW6hsqx9dr25GTGkN7JWvKXGdLAVEqAJC14kaREFuAlMTFjIiaQm6XPqlN41M1fS8d0PT5B2bXEhJGb0owyq9IYCaMwOmHMjvzgjnocwowGGI50BtrFUAJPMsLQ1GsTE/X7DvC1N92cjoljBaZSOwEiiQlDzQix1su5gGDaPsFFBg9GntfS1KtpVHUFWXjQZMSp43DfWm7ftCH+JVpG0nhedWJiTV1AgksnaSo2vEQX4dNGMXypi6+aCNB3Riye18Qk8MyoJXB8+tOf7mTSKbz8S90kJmzHqM/90OHcHxw6eAELXeSZOjogOo2+kkAHvnqpW3+jI/ryrE1MjNrTrpaBuUjJd/BG5qENTHaiDCz7G5Lg+3VN/ua5P3XyJ+nT+alLJpLgCifw5pUt3Hn1xzxHB33glW1ItFraamJiFsvzvoMfShDJjm5tgg4NNTEx20qW4afCkuxlBgcMMwOBURMTtkqu/lp61RcD2B1adNiS1tTrGr2qI8lF3mqCTxzQXl2bUyUV5KJO/Cb0Gs2jw3PLSv7S1mCOvuE3yxHbSdvQwmbyVo26khF4JCChC5xKV8UDn6WY8Gm2zr16BGe9V89DS7039jz6IjuysHm1ry2ewk+Vs7qeaStW4MMsdewjtCvrXx+O6d5r9T4kj7VMTGLU6VwYiREMQ8CIQGy2JUFKR+5+/iqzYxMTzqdTlYwIUDJ/SxECBjxGDK1zLJKYmPI1rQuW9WAzHQ4dew7XRiMOSw/4Fow95xgCrnsO2X0cI3yn3MnEhJwiI5vT0Cr4O3KuUwlv4Ys81YlMt5KYJKkN38roPrZD3klqgyt1lOwq+5nyJob7ZhYEIkHIrJsOJzxFd66d2zcVvujLfTBqYqLTV899dNTDvUUP+xfQ1iYmgRs8kkb2ovNiz0N4JNXhgT7JYqjurPtVF0PnQ+2jP3qVxPJFS2+WFiyDmJWkT/zorCucsYkJn7n11ls72YFjgENm7reJCfiRZ1tK8sgfjLx9pH5NTMieDVQ667lNuPgBx1InHHneys6yFFyxx9QlB0tx2dcluUmcVCfL2fwts3VwkLHZHDDZpgSNv6K/HmKRa0tAZlYcZh/AthyJHgfb4ef1L7wo5yUmte6yziMjckYjWSdpHcIROZOLpb/AqImJOJ4Z/Nhs4A3xn+dTOS7WrWViEuWZas+0q6CUYGRtUKfBeDhX6veV8xITHaIpOcsinEvCA66ZCftPGLRr0+BtkBmbmDBunaNRBecwEje9akbIvoWUzu0M960Yo0K44RUwjGCz1uteplOrI+R8pxITfFlyi9PTkbejHPTSHvjj1OrrKAWyOP6YxMToM3o3YyK4al//YgNJTOguiUme1dKbI3TiyCwWmOxGEEYrfbW85Dq6M0OlLr3RFxw1MTEyFtwq7u2c18REYo7meoDNX8z4kQG6srFQvRZ3OipywEedBWjrzrquuhg672sf2tFovw/+7FdIcqhjzewlGiPjwKqJif1HgdeWOm37KvAIDpvEOzh9iUngKwNLffuVyBUcy4qeqaMTd99hmacua1RYziU0aFDXjEXoaOUGtiQtcI3q+Uto8lZXZlLtJwkeCTLbhcNgqNofurI8hAfxyHJe38GfzRjDzyckO2gyEwm29rkX2kNDyt1ITCIfe9Oi78wMha62NMOET/XNSpIzXpOYSADZIvm1f2DVvxb2dD0uKSGntU5MdL4xKNP82dRnCtJ9BqSDSlDoU/ysxMT6sjclkoyAB49lEh0Pp4bHsdXEBG2CIYcAnyMLtjpmnbTgMHR4jgYduMNIFgwJSmTRx/NOJSac1gZkPDnQhxflrAPvRpN1uWBsYgI+fegMMjLsk8HYxMSoKHox5UtfaKGvBF1BP7qaxRfa6CZ81cSE/cyit4+HWffYKDmw3XY/BR4cZnPwgD/469JZH2ybFNV1SP776qziHlp1yjaGZtaGj+gAXEvWLZniF206R7xVWmpiYkN4ZNCWdKBuYFm2om+w5iUmFZ9kAC2Spcy6eF4TE3thkmzUtjn39kfknWUQz9o/PFS4lgt1jOFNbPCKM10bHGT/hL0p4LPLdpOuxM5AKfjVGXtIHNFpr0Z8RKJW/8Jjyt1ITCIfb1XGD2w8dz90taU+h0zUl4xJSNRPYsL27IXTLn8tjOl6fAIyJKu1TkyMYBmIw+hJwMdI3Qhn89isgN+XmIChjRGLjoYhgm+0YfZE0OO4Rm9GuoKPwN6+KjdmxoRRw8U5EgRsWMubO4JhzvtKU9nwCj4Jpjo/uIeUupOJiU2scWSzTpZA+vho75kNq3obk5iQleBJDstKTMyYgMfGamJis3P0hS+B3YG/WQd96YzovU1MhvS1lfvZYzIrMdGZCaR4q4lJiw+t5O9VZHXxvZOJCTswG8bXdJYSVwMOPx4o6TLyx4uZArqal5iYccRT30E3fkwrvlRnNcYmJuDWTZ9+N8U9ckVnYM9KTNSXmKRu9h+B0f65Z2kr9igxyaZdcMgvM5fg0Z3EJfJSJlmO7tMBgynpzhuFZOCgj/aID2dPU2Yb4TQQqLQHT8rdTkzwiU5yDk19pdlHdfmBt+yGEpOqoz44073tJSdbSkziTH27wCmEs9gDEUeSYfvzLL9jQvFDm1+jVB1BjMSIICMbr2WFBlOPqd9XDiUmnMv6PPgCImcEPwEGLNcCv2C53cQkU7/w2awLfmRS6Ya/Hl2lV3+IDA3ao0kArO3q+djEpPJa2489FxAzHU2ffW8uzYJV8ZP1vM2vdLTsxMTaPltCfxITfHktUgdY9TWLlzzLCBlvO5GYsOGhGRP4zfbgTWfP5kNnWxplmz1QF8/tb/C09Zd5jU6xAG4DhezZqPYBn1lMutpuYmLjYuJHZlfAZ1/k5ZmliSEe0WVTcWAYaITWMYmJug42FhhmHoMvPp/SfRu/6cVBDmzU/cAyiMryrz1RBljhJa++hkbtdLhZ5mMbdeNt6JhX2meDHjyQgfr5a9vuRmKCBjx75Tp0ZiN8S1+uJV+Rs8QyfU47YxI+lWk7ldtLRqr8Fk5MKDlTgDr9CiznjEHWLtA4tpKYgGGTGiMBwxppnNGoNDMd3t/P3pPgr+VQYmIzF8dMEArs2pZR2n0/JjEx4zK0vIIXSZZAgR9rtmD3/VX8zvNnhJQ3gPBuN35bN9djE5M+ngNjbEnPpt3pyOhzli5mwVw0MfFrkuQ6BHPsUo6Ng/SL/iQm4NoMWPWVkZNnY49VJSZsQhLBdtu9I5U2+jW6ZnN44TdD8rKZL2+aSNSzgXeo/jLve6tJ54hGCQob6vvLW3rbSUzYmaWXJAQZJOBnbGIi+TQrk9jk900ijzGJSepaauE74LDD3G95p9PEQnSz/dSNvvHldWN2zCayTGSfXF4nT5uUZB3bMJBMTMrztoSr3stgC010w0fyV+s5363EBG6zQYn17SbjSid/yQywmFBjzJSYLC/pqDIfOl84McnaKoNmbJTZGizHve222zonUW9WYtJ2jnE0SynZuAWGjiJ4TEMmYeCIlnYw6C91Ug59xI9TMVbtzcAEbxWUUaQRKcezuTFLOYGdkR76BHMjV+3z3Hn4Exzyg16M3lRwnsWZU2qfv9BDphmhwGca1XRtnqfUdsxH/DiaH3EyXY6PtF+0FIizSdhshn0ClX/nua7nLZ4xiYnXDHVg9GHUWGG08tpuYkJfkk32ofPAV/CFj5TxgVynXFVigo7MHrBLGyOHaLA8iQc2Y1QbmwsvSvfIi1x1+mYRtppgVrhjzyXSGWj4vRjt8hcY7F8yhg8bEOknz5TtHpM+ebhnZiAzj/w/CT6d1cSkdv7BE70aVVv+kEixjSS06i2SmGTWVjxg1xVO5V8stHcE73SETrhCT0pyTAfMF8nJLKbn4aGWNTaaec7elFon5312U2dl2KFZnfylXXBbmkM7Pfe9Lpz6qyjNJmXmm95sEWjxoNNyuVjGX6qc1Z0SkzVPTCiZ0jiJTUCuq5J1MDp6G9cSEIcSE7/rYe1TmxgwB7CeKulJezMFSQqCi8MJourYcyFYMJ7AUbr2jQi0qldneIz0ObFn9qkkEHMsOLw+abpWOweHaoOhxMCPhoHhsIGtOrDzSo+Ntmh24MnrdqFZPYc23rPP68DhV2nWRcCBS0AUWPKDTJ5rT5beOkjS1fc7JnCY+aI/evL7BpXuinPMOb4y62BTq2QHHbUtWRkZGyXqZOoz5+rPW8qR+KEX//QhELdwcr3dxAQcSwqxdbbqTZXwFb3ii77wFR2mXGViwmZjd5YEyLTSFNsThCMzI2k8pB4enfv1SwGZXZKr2cTIcSdK/i5Z4GdmE/lE/uDnm/xVpxKezf5UPmpi4g0TsqcrdRyxPxs22So43sjJc2VNTGwETvvIgIwlMtqxC0dG1dqrNzYxSX0dNrmjx/KR5CDPyADvfhTOcz5t03P1H3VzoNesJTmijbwMPvyFh1om+VaXTAwmxRNw2E8OsZd9t0uBnmcpNPLkk9oHD1rFeIkPPDudmESW9qRJ1CJnNFU5sg/LPOkTzCZVPtikmEtX4mb9C69TubzkZeEZE8LPmwyUbGOVd79tCDQLYDpRkMnrk+r0JSbuOzi5DlZnase0Tg5MzuW5jjhBvypeMMtvNKhrBkUHixazK9aRfcCPMYGjTk1MBJDMyKBVcPeqmCCNF0tHcKfDBcdSdlwDAAAgAElEQVTvQHDGSofNVJny1wGA43cX8ONnjvMbK9rIyAW88GZEbsrVXh2/B+JtI85hdKQTaZ2c8wiEkR0n9zsc+IKPnMjA6IADwdMmJhwVD/bsgCNY4M2oeyiAVX77zk372zgJJ3h0YbNv5Quf+OLUZJy/wBMEkpigqwaNWie/sqqOETSZSdjYnp87xxseF0lM0AxeRqwJZkaq3giJvvCFDzijL3sDdOp0n9E3esFYVWJCdnXm0qyeJJoNuM/u8uozm+F/dIwPMmaj6Gfn5OQHx2ILlhRmjZyji2WWOl8dF/roQtLF19iJUbjlFjYdX0YrfmvHURMTMMwoiiv4NFDS6WZZi53WJI2uHDUxMYMhlhlssC+xCYyMqMFgzzrr2AuZjE1MYiMGduJQ5I9u9OLf4MQAjZ+TjbhaZ46jg9DvOi8GkIHXpuk/9dpSO7/xkaQQHksyXq9nR+KJczbhGb20fmkjsfiJfjSyJT4iuSU3+1vy+0toAmenZ0zEBHLWX8TGImeb8MnZbLR4T68SulbOkjP25/mUmCwvAWltMtdbSkwYY5wpiubICRwSCwFbp84YBcYgrJtfZaeeM2rGnZEM5YNreURnUx0vcBgboxJs1I1jO8/ICj2ZjndfoEp7MAUbHYqfGUYHg7PcghfwJE1mZkIjviQXgaGUeQsAqQMP53NIWARWuNRVchCJnWehmxzgVLoHlkDct8Qk8Omcgw+dDk4Fp/t4jizhSmcdGgQXIwjyCU4BvPK16LmOUACKDeADDehCk2sHefdtmkZjEhP1aqcTWshPspYAg2912Q4+dBqSAbBqYqIjDoy2FHQDx4wOHNGXujoe8o48q7zhZKvu6egkR9oERhITNHre4t7OtUBp2SN2kICaZJpvhA42KmHVAaEV3fSUDslIEn/suCbS26Fv0baWWMx8RhfshC+SGx7NWBl0xJ4kifUHw2pikoECueMRv5GTEh5Lc/GLyKkmJtpoTy41NsUOzHjybSPpyqs3+oKr76fza92ce/slcSw4xT40kAd4fMNeliG/CA/sQmzWdl4CoA144NY4CWfiF3rgdxgEhd/gU0pC6EpdbUOzmEZedCiegUF/8+iKXJZZopO+vAIcnyUjMT9yRjc5G2xWOWtLrmSCR7qpf8ukc4L1f0nPwokJJXFooxkBW2fA6AQS2bLRjdkM2bJgwuBl3f4IvSYmntvUxSkFGkEEHI5lylWgYCBw9ikMHYKTTB4sRsYJOIkpTzMJMnbPHBKRCsdowqjAtB38HAkvZhPQJUibDTDdymDBFgArDLTZ84KGBFL1yEXwMvKp9KPZiBRtppzhFfgccPvdBlO6dWmqtocbTRI2P0JFXnF8HbZ9BJIMDohnv9KoTYURGup3hOiz8rXoOfg6QHyZTo4+6ZReyMKyGruAvw8+eeg02FENDLUuPGa2jOzMFOCf3LQzg4IG9SU/RrTumz2rMOp5PgevbmYZqqzCl+RGYhq+InO2G77UrYcEkC3hhz4q3u2ew8PuvMrM1gRLco7dkXPFIbDqQMxM8El6YXPasCNLe+1vg9T2qz7HjwGPpYH4BN2yaf5gRo882T279sxoP7ZUExPLQb4xxebit2BqZ2ScN46qrpzXxEQnHNtgZ2RFxl4hleRZvtOGXFI6zz4FehAfQ98s+WkvKaZLsY9O6CdxRAKapauKKzDdq4dZ17Eb0bVDo2TBa8/oxmv8Fj1mecVwcV3dlgbX2ovZ2icmiYd0IWE3i8IPxDf+G9p3qox87Iuhv9gQXtGLVvEw8brl0aweXycPvlz/doqHgwnPlhKTKJmyrFNat3bYA5AORRAxYrRmKQFoExPZKUUzdHU4OqNgtEap2sQJWiOJgkIHXGYS7G2wb8OshADhfuhAC3rTNiUYOjOBDX5rst6u0U4dz7VDE9h909zq4FtHIYCY0icXOMHxPPgCE2+ecxRtHJIsdI/lHZ3oRpe2dX0Y7PAMf0sD/BKYjMb6+Ko0jzmHA1ydIL6M2tGGRssiSTJbWiIT7Rz46qsTGjzDq6UXOPCuU63yhisyyCgv7VOCQ7d4d7iueNls7inBi52wFbM3ksTYSvhIG9f40W4Z8g3dwaNEP951DDpciT9csbvKD92wdXLjZ2wOP2j0rMLfrXOykiCiDT/8iC7RhxclmXvG50MnPnSm4ko274KVuCI2kBN5VZmkvbImJpZM1eWP0bnknd2xJ/Ltk5l7ZFxtquKYdY5Pti8JC//0KR4M0QyeZ/VILJyFq+8ZeZER2ZpdUEpGYh+J4X1t4ScvgzkJpkM8JAcyITPwA6sPxirvVfmRMxsSp1s5D9GgPdod8eWuUxvYvzMEZ7o/bhlo4cRku4LNjIkAklFkHJzycx487tUj95W5r03Oh8rUqe0rDO3yzHnq991PvVqm3lDbWte5ejnqs+CtderzoXOw0hmpA04LK23VdW4UZGrS5ro8W1YZHIEXXlPmfl/Zth1TJ3BTpg0Z5LyvVD9/ntf2swJxYNX67b08S5nnyy7B74O5arx9OLd6L7SGl9iu63oOfupUXDUxMcL3LPpLqV3OU1YYbWLiWXxKW8dQQhI4fbTl2bwybVOmfvjPdVuqn6N9tuh1iztwU86Clzq1VD+ydn+eP86Cv6xn6Kiwcj1PztqkbtqHt1xP5bjEY56cdjUxMS2KQMoee1SGxrap9Wr7g+U8/Idf1wK56UtLDWa63Mvzg6nEd/7wXWW11aATGG15MMl1p3mtiYm9MvAv8qd+m5hU26iwdpq3efiqnc2rOz1fTscZOW41RqT9VPbrY1cTE0s5k2L6FbMquRgVmMK0H+PAgQPd8pfAtip8E9yd1e/BKu+amJgx2YpNt4nJwSrLie/JZ3fbBnY8MbFmbBOZpRwzJlsJILsttL2MX2LidVJvHNn/kanVlHuZt4n2gzegSkxsZLQ0KTFZ1J7FoSQmYNgkO9nTwWtPk+53V/e7kpjYKe91RaN2G5EmI9g5IxCAbfyyfEPu01Tkzsl+svPVydoGaG9niSt+o8JekEXkzS+8tuunBrxufP311y/UfhFcU93V2cEk2/0h2x1PTCQidp07jHKmGZP9YUhTQJj0uJs2IK5480Zc8QbdVuKKt0a0B8ebfbvJz4R78qeD2QZ2PDE5mIU98T4Fm8kGVmMDNRGp55O8VyPvSa6TXFdpA1Ni8j+Tga3SwCbYk31NNjDZwGQDkw0sYgNTYnKQJibTqHIKFIsEiqnuZC+TDUw2sFM2sO3ERAdXjxCeji/Pcn8q965xR5fRbavLec/VH2rbwtqN6zH0L4Ouiqc9Xwb8gwVGld3BwvPE596Nn6vU3X7zhaUkJl7NcxAO4UdI+dXEVSpkLOzQNLb+VO/1AYA+h3RKvrGD2ELsgSzzvN7bSRmjaRa+0BceXOeY1W47z/LpgVly3Q78/d42uhqyyf3O/8Tf62PUwSaTxNP4gjL39rIstpWYEICPzflEtl3xEYjS9wR8tdK3E/K3DoLy/YZ8NyP0rgNd606DbyH5SJcPin3rW996TSdPjr4h4VP0V1111caXvvSlze/deOZ7Gz7i5Zmv/nr7YZX8wqnT950U3+yBf95r6ezUR+5uvvnmDd9JwQPbXpWNkJcPzV122WXdhxddrwrXKmW9m7B9gJNNOny7aDdpWQQ3PfuejW/R+IbUpPcpwVjEfmpdiYjY5sOEYrMPzs76HlRtu87nW05MBP6vfvWr3Zcwfek1wuBkPnR17bXXdr8pcPvtt3eOt9u/l4Euv9/h56p97MuHvtC5jspBa451oe+73/1u9+NVfnxK513pQqtP0vv9B899GFAi4j7H0QHnmU+HSwBq+2Wfw+uVUV8C9dXgiy++ePNz7RVXZOyH5nyi3ufP8wl0pS9G1/rzzsFLnXqee7X0cThfzvVDg36Bly3Oa1PbT+f/033jifzYVpssr7N8fKjv3HPP7X4QTmK66kR9nWUx0bb9pIz9iCWHH35495kRkwJ7PZZsKTHB9DPPPNM5lh81MrLMiFTpx4ne+MY3bpx55pndaJXx7XZiAr/Rs45RMEPfbnx+e54jkq3Rsy+ZkvG6GJjRqaTDccstt2x2wPhBo0/TH3bYYZ1cJSY6W1PsEhNJoHbkrlTXs3my2M5zuoYPLWecccbrEpPI1ddUJTCc+nd+53c2zjvvvI3PfOYz3eiDDhahAUxBwhdLfe13VtuamPhe0ZSYLB6gfXySfv2o2l5KTMyUoJt9+rXa/NjhLHuZni1uHweLzMQcMUQMO/bYY7vVisS3vSqDLSUmgrlfb+VYf/Inf7K5t4AQBOUEC58vJ6B1EJLEBN2nn356R5/SNOq6Kc6sjqlpCZ8OfbcTusinJiaf//znXyc3U+k6djbh8OXo6P2hhx7qRrXuS0x24lc1LePAxxbpOolzaIpd3nDDDR1NRt0PPPDA5hJUPtce/seUkiE/9X/UUUe9Lnlr20+JyfY7GokJHUtMHn/88dfZZCvzdbm2jHPyySd3tBu8TTMm27eFddHtbtAxJSavvlr78MMPd9mZoG9Ub1RMIZZ3zjrrrK4zOPLII7vlnXXbmGYvgW9i+GXHdFK7YUxDONFlqYlsTffuhcSEHOnZ+qasXWdx6aWXbialOvmPfvSjXQLg+b333rvyTiSJCVpOO+201yUm5I8usyWSJTM8HDwJi1IyM9ZG+ABfAMvRLne1+p4Sk+13Rns1MWFT/Pz555/fMHhjG2PtrLWj6Xr7drTXZTglJq8mJldffXUXfK3D6zxfeeWVzrnMQJhK0hk4bCDMSHWvK3+n6E9iQn57JTEhG4H1+9//fjd6tUxmBqUG229+85td0mJ0u+gSyVZkPysxQZdDYpJZHrNUuZ9SsuF8DH71nn322c7uJV/tclcLY5HEJIl/C2OvXC8iw0V42quJSeUxtlbvreJ8rA76cG+nbR+8vXCv5bm9XicepsTk1Q5Ih5mRoZH9gw8+2AVwGw6POOKIzcTErEneyokibfyy2dD+Ds8EXYL9q7/6qw1T/l/5yle69WKdRjUG5/ZevPjii920rXrwGqXCOysB0gZOb5bkcI2W0NWW8P3617/eeOmllzaeeOKJbskKvieffLJ722PsWxQ6ILz+6Z/+abdUgO7nnnuuW1YCH97wqcOGK19JPfXUU7tvd/zN3/zNJt1DeMGwAdnHzB599NFOjuj1xhT5wKVOjpZf13RhuYtMLdGZGXPuTSZ0ReftUg6Y4GdvkT0dSVaj34suuqhLTGyKnqWrPrq2cm8oMUEPedD/t7/97c5W8YU+eiLrv//7v+9kMUtWoUkdMNnVl7/85Q6evTZXXnnlJrzYnLpp1yYmbJH+7D+wkfiP//iPOzuRqI6Rl7ZG35Y02Bj90Rn7ZTPBu93SXpgXXniho/H+++/v7No1+it/FY+ZVLIlB7L1DE324fCL+Hzrj+Dh3R4MuiLfRx55pJtpIL8777yzk/espRww2Kb66BRjLNmxbTHHffrro923vNiDIzow+LKsSb7eMJOMVl5nnVumJYd6iE19bdAFtjcbg4dNk9ui+7Pwhkc88GV7AqscxCNffVenjxbtK+3ecstbb+IhedKLwQj7GIIDR2I/OvDC3tkp3bIF1/qDPjrcE1cSD9kFXHCaBccTv2Er6Asd4V/b2ACbQ7OtB3hTJ7PTzgOTrNRxb4gm+vCmp7rg88W2rjo///nPN773ve91/Rb8XgJgC7P4rXDAxTubYH9kT1785sCBA118Paj3mHgtSTA3MlSatmYEDO9tb3tbFywya/LjH/94U0mUy3itwasnsOgkfA3UtQBjrf+kk07aDHTaOHxcS7AneF8ANVtjI6tO/LjjjuveoOC4qU+hztGFXns2HPbGwH/00Ud3na46Vfk5f/nllzuY73jHOzoc6EIffGB49ZWRxPjTLiVjYfgf+MAHNo455piNt7zlLR3NYEje8GhUDQ+jFTzf/e53b0jmJHvkByea0eqAt90oF37J2UyWOnCZtYDLspA3U+ylIB/09vEsSAjW1r7xqC35otV+ETMK0XebmKD97rvv7uqfeOKJm50PWZCDt1vAs6Qi8UFDgkDktexyKDHBO7mzgZpEkzUZs0N7e/CEpj5ZVVrxohNhl+DRHdnTAVgOuE444YTNZE17bfJWjo1r/MJyFxq0RQ9bEHDmvWLNhugXDWlLd/yE/bILAXDIVis/Q+dsVCC0hwZP8Qf48CcZ1bGwoxaGwB+f4+sGJBLU8EpeYErCqn3qvMQIsotNwkcu6DBA4idsq91jEr8QzPmhL5nDQSaxbfjRze4NhFq62Ty6HexWkn/KKad0s2z4d+Cjbdd3jR6dV+QQuGwt9dUhZ/R6SwyfaIWHbfFtS6Q6yrQZW5K5N+XYHDmAS+7sRIxgZ1/84he7ThrMyC/wdfZo1la8v+mmmzp7oxf00Ytn3tB87LHHNv0n7ZXe4iRz8dBsuriAR/jRA4bn3pw0+yqRQkeF4QvQ6qCF3sS9Cy64YFNW4IitOvvwwJdtjjbQC+/pP+AXo9lPEgrt2Kx+RX0l26x01HN1A1uMy6AsddAiEXnPe97T6ZHMEyPwYvuD5EwylTYpw7/+75JLLunoIScyZ8ts4oorrujkIT4f1ImJEQOBEoSSwxIgQ/LGBYEJGBSRUZCOSB1ZpWTGc78XITAQMjicg6GDQTHqC1SyUA5lJCrwqyOY2x/gnJGBKfjIIDl3bc/QTdlHoeoyDM4WA6ilUQy60OiAA36HczSA4dqoK8YTnEZV1113XYcvuBg4hzn++OM7+aAZDXmbgOzIS0dCHvCil+ExNgd++xITa9WCdxIaNJIlXJHPoYce2gVVBl55dc4hddacmk7BEQjRC79r9KIJP32JCRlzSqPiKg9OS5YXXnhhN3pvca/qeigxgQ+v5BI54ymBke3akMiGxiZPRldsQcAFyyHYCmgOOvVcgEpyUBMTtu85e5CIBpZrsNiBoB67xkNkLDDrxKI3eNmCgw7dBwNMfpR2i8gdzUa0YLMBspLsSljZZeSIXh1OAnxw8IfYJh/1+nZ8no3pHM4555zXtJMIGFCkHdjkxEd0SnhCS+jpS0zIWydKp+SAbjoCg12zaTHFfW9itUmVN7SC4+mnn+70qC7ZSsB1MK3/h+e+UnIoDjnQA7aN2alLzuIjvXlGRuRMRniOD0oQ02ZsKdkBjzzJkkzIAi3gkqdnElwdOTuJrfADyUZopi/nYpo4zGbJJfYKtn1ksfXQaIYNX/AkQUAD2wwMdDjwa+Y3NASGGQftHfyYPcHNx8Q8uP08AdzassU77rij83c0o1Fd7cg2MhUP0Bx8fO2zn/1sh0cdMzGhoS3pQx3y9fMYSTDAklzr5+CFH31iAlrDs2d8/J577unahgY8OPAs9mvPXuHBAzsET3vy8PygTkwozZQcY5W9J2ASqGzRFKQM0LJChEyZzpOYxDgp5MYbb+ymdY38BADTz6kvSWBAhM54bLAUYMEWlOEy6oiBcXQdRYwHTvVM9TnMusQJ+xITIwujIvSh7ZprrukMAz6HTN6oBT5wBCgzRcHHqdEYQ5EccEg0e2tDYoBmowWdeZas0OmZpE/A48A6HImWw2jLweirTE2Nk4/6gowAa/StY84rxwIsetFU5RPD55CMOzBuvfXWDSMT9JoVQj8HSNBoExP0kIEp3kpbZEJuEhTPxnb2abvVsi8xCW72ZfraUhee8XX22Wd3uhUE2uRqFg14ohM2JngleJiloE+HZ+RYdZfEJLYo2Auo6vED/uVHkwRdNApCZhdDC7ySVLNsYEgaLr/88o4HSxD8hq1KAujdIbhVWw2seaXlvOgfHgGUbRlF6mxN5eto0MF2n3rqqU06ybwmJmxUYDXKY2N4FROy7whffMhzNEuodV5GnJZ+2CTZGLHzT7IhozYxEZMkSXCxfXKyRMaX4KRjdi3AwwOG5A/+yKMmJnxMh2L2Cq10akpdvKtt0ravFJfYF/noYNBeExNwgpM/ij18Hs9kZcZDMtgmUH242ntshQ2JbeyU/ZOjuMTOknRKitxveaqJibrkrx7ayFIsFc/Imx2A087s3Hfffd0z8pZk3nbbbZ39iA9gwGFwg3cw6D1Lf+EniQnZgcEuyYXf8HmyzeBNfGMXsV312RH9WVbhm2wEP2hiw+QBF/491zZ66ptV49MZxIKDl9DKBvUFia1mVfCIVj6qPxJryQp+vmGQn/Z8h4/xWzSQrUGTwSwe+DjfJDPtyeygTkyiOIqnwBhxPY9wa+m5ICR4EyJh6qDrCKvCVF+ApxSBQwBkCIFJcf50epwCTEbQ9wNe4Gonyw7uNjGBT5IEn2DG4AUTf54xNHDckwWj32G6OdOOYCZpkfVzJM/gBiO049lrg7lWgm+fQAKuUaS/tNU+R+7pjNAAJ/nAFV5Th3xMd6pHPkZPeSawcAw60Tly5KoP9VyTBbmQXV9iUunSph6V73p/ledDiQl5kjPcAk940hGGntCbMveHytSTCAQeO3M/h7ap5zyJifoCkmlpHXLVnUCILjKnH2vogaGeRMZ9uqeTdFgVp47TDCS907/p+sAY4qfeB1NARaf2AntsPXjI0zJOeLccqJ3n/mpigg4/Kob/yCRwwrvBSXxIUNbBxe8DE18GCGTTl5gI3O6j6cCBA68ZJMEDDj7MNup8yFHHjS7P0JYkIToyaMBrnvf5dZVdPdfGAbdZZLIEtyYm4Onc8MQmJD/4zp/zWUsKFV97Di9ejeBDd+rwb8kJmhzO8yxlTUzMBgdGZIk3ejbww5fDsk58DRyJCTmzAYOhNs6AIWE4//zzOxmQg/gWHGAkMfEMrTZAg6NtaE1ZfYyOzcCEntTX1mwgWGiTZKQOG7bMA5f2ktq0Cw7xms605avkEnolf7FBg0x1Yz+BQ6fiMXuXrLIH9zwXDxK30cfeM7CAI3gkOZI4NBz0iUkUs0hJ2JkxYbiEqHOOklpYBM5B1WUgDKXvTztGY7TGiCgwBhCYwTGUmHjOKeADQ5DKKB8Mz+th1CXDRpv1bgYOp2SCgbhv30WMPHTUMjTlnuskJmiY91aO7BzPjFbWHEePjEI3A5alc64qH/c5PlrBsG+GM1Q+c266El/a9yUm4WFdylmJSWgU+PGOp5qY5PnYMjJK0CQnSwi5D049d12DpqlsHW3FR4eudSaxJ/pxj950Agl6Zu36Ono41Werkk68GnEJfBXX0Ln2RupsQ1sdfPWJ2o5vmlUgSzaZ0TI+kpiAw790rpFHW7I//gSODsysVsWTc3CNuNHVl5hI2jwDwwgzHWnaK4PbMqO66KtLMzUxUWes3CqOnAeXcigxUVfcwTue/Nqy+ollzgNvK2WloZ6DZfQde5IMtrhqYmK5IvaZzhEM5/wuyZURvhgeWmti4i293E8ZnHSQmRczWuwndeJj9IVOz9IudZTuGSSqR56WbhIfPasHGGbD+BkZiAuBaUZC0sA2zBK18Vxi5BmbNwMSGtibvgBuvJj58ixySz3XbB598IvR4jpZmi1yDb9Brhlp7SLz8MAuxRC4psSkGRVH0LNKgqyJiY1wraJr+5pEWCekmL7D8osREodgiNaQGWGMawhmnTFR14iIkTEQnYAACnbfwWgEasZguUbHYE1bB+CeWYhkt/DXv0pPe57EBB91xqSt55pM4FJXkO6j0z1LAJmWVJ98GDOHZMjam6UxBUoOreG7Z4pUW0ebmPTRttv3djMxIaM6Y0IWZOiIXGpiYpmhL+lWl73Tj8MI1D0+Qx+5b8qf3QzpP7aqviRGchE6ZpWCqzet8KMte4tt9LWTjKnHh7w1oI4/duYeOPZLCMRte/XcM4OXuvzKXpPIrspP3byVI3Bnr1bgxjf5oaR8SDbum0Xi85IYSzXBUxMTiXnuB8dWy6HEBHxLC+Gfrsxgsg06nyX7RWjh+zpfM3yWoyQJznWu9CeOwlVhjklM0K+dJC42I0GN3GpiYvaiwq/n+DVzAIa4lA5ZnSQmZGTj8ZBMyCtL6uCYoYmNVVxoY+d1id9gIDTzU7bEPpKYp714L3EiMzMidanHrLpkwjMJu+Vj8dVR+7Bcm6VCpyQGj3BYMsUnGGbywyve0JdjSky2kIxEiUqCrImJ/RD1eXtuGouyKIcB6FCHDgFPPYdRR7LjFmZNdmpiop4AFXw2JjHEocOmr8xAmEYTbIxM0147htv319JUr8cmJmRpbw18DFeCASc5tIeOz71k/uTDmHXeeCAzz2PofeWUmLx2earqLPJK0KSTZSQmbEdgjF2bFUuHoVOO7tkqv2j1Xq/tz2InNn2CWekfOmcjGfVpa4llqC4Z6ODUc0hSQmsSE/e9gaDuEBwdsX0l6urghuq5P5SY6BQkGabGyc5okiyGfNloWX1H3QBZE5Pse5tFz9hnsxITsqp4JQne1jJ7Ip6kcxqLK/XIXEzU6Xq7Q2fJJhKvskfINZy1kwVjKDGJ7QePTlNcjx2widjB2MREopC9UejJ7Bsc8TF61XEP2RIY+bFPdfEdGtsSjPwmjrqWK9VxHz/pF/AkDganpRr3JC0Sraobg1qwHGZhxGD7gxy1D8t1EhwxWr8EVnzPPXs20RIcaMjBTyWxZDXNmGwhSSHIJCYUZro1f9VYCJ8SZKEUr67sk/MoZx02ODFqyqowc96XmETB2V8Cn5EWWPMOtJh6FmxsBBRUtbf0hI/gDZ/K3Osra2IyaymH45EPXGRENg6d1NChU5JEkY9Rq+nFyBcu9EQWbTklJrubmNCTxIRf0FNGWOlI2OGQ3vOM/gVrttpne+09NmbNHQ74Tfezi7ZerhOo1bUPIbQmMWGrNhmnflvyDRszszHU1Hlbp17XxETHmWd8CM0OOPkw2bD9viPP1KtvvNQEwTJv4G+3HEpMwCVf+0DMVGVZWcenc/P68lZf+4bTWyZG5PQDns5M5+c3fHScnsG1SGLSygL9EobYTH2bbIRQGgAAACAASURBVGxiIm6yn8S2uiG0Jiaz3pQR3/hL7MBM3CzbRSe5wGlmMHxpY1YjS6H2v0RP2f/Fr8yCqJs/WwvAgp9cq91VP3XfdXxUwphZJgPI0JQNyXC0x5SYbCEZiYKjzL7EpNbJeYJiFGODkOUaU5BDh+emrRlJTQoCU9mXmOS5xCSGzDgtfwzhqvezJmjKmGMzyGyiiqHWMvj6ykUSEzjivDYfRj6z6FYHDsbNecjXIQijpzX6XMvY1SOfaSnntUlKZJSgSU7tHpNW13Upx0i+HaGmvmUXOnaY3obLs2qrOuhZOm9tNTCCY6hM8hsb6dv8V9vqQFLXa6dtYuKZjrC2ac9tRKyJySxajXLZoxGlmZbAMnPJD+ET+NFdZdB3nthR9bAbiQke/FnO8HadZbrMZrABHZe9DLPkEjmkpEeb17UnF7O94gUbtLfJTIxzna9ZI4kJ/GmPnqEZk9RRokncFR9iB5bGUmdsYsJuJGHoBcdbjIERH/NsXmKSgS0b0S/Mkll9lfmuu+7axAcv+UlC4JRESFLtjTTjRJ76FHxX+N4yUh9um8H5Z+Iz+3P9v+3d6bMtTVEu8Pt/CWoIKKOAosKrvIrKqAgIIiggYDAJAkIwi4CCKJPMaiAgIgqCgICIhgOTCjiF39QPd9349fU55KnTvVavtffae591ckf0rl7dVVmZWVlZT2VVd88d+MxSp7aOHhuYnBF8xIDmUg23FpjIC51qGA3sqQU0/bk3d8zVOV7bBkzi6BiT2doSuBlp+o0fgEhZ/JqN6Nyuj39z5XNNCDDLKwELuVdTdC11xXABN9fkkS4dkcl9EROOCL9CijpgOthYvoHJ9WBkbAv6itPUJoBJ2qLmzflZgIm6qq2yaddCeylNmy7dH6+zBU+7ZZC3B2vMk9/yxrnrA/iLrSViQi+7gAk7Tn32oIX+XBodjMBEdIBdq89MNLPZyD+XztG/LGCCF39SoMFj0vSWvpqnnuZ4Hq+R1cQJ6NDPgRwDorbJoYy+D8Rpu7MCkzwpqL66XL4WmBiY7adS3pGNo/hMH3N9GzAhW8YPdrBrGVI0ST7H+FQnHRq3RJnox4Zs4EVeuqqbufEov319sUGRD2MBwOUe3qRzR8q7xyeTUz1ZQpor0xGTM4IWSl0LTDQQQ45xetJG50mHdT8HujnflW4DJow3wCIRjyXac9fNtiDq0WDxVP+28cigIXFye4KCzGN+dTush6vLQT9Zvsr9pTT0bPyzZKUuYEgIeanTCHGrh37OO2KCz/B0Xullbn6lJ6HobbKcBZiga9nEAK7tzAwNYNvqO/SeaEyAAuc911ausRvLRGQHFOwtcN3fWmCChicy2JjD5telvWLkWQIm6HDqaAijoyk/fpaOOf1cNjChO3yRh1+wZEC/2nzt0hJ5vb9FGfqwITSyRhd+8zN8lzx8wiERE3TYtYgMPm1cFR1IfSMwUX/u1ZRfih8FpGyAzv21wER+DwSkjyyBdzywsSxZshfLZakvKX1YGqJH7WDPknP7oBIZTF6p/mhpkB74c+BFO0bnNU25qg/nXqUR/k2Ua5l6fggwqXWl/quU/p+LZIYy9gEmlhwySEP81t6COuf4XqPsbcBEBzDDYnDWd6HUJWCAD4YWY8MPAzHDZIwO68Tp4CMwiWGNcniSBw/KC+XNGX3KWjelH3kh96xN5n5NU49rOdd5zL7IazCpu9xrWed0oZNwXOcNTMKPZQub/MzM1z45krJjepHAJHULvdOl9tgVGTgrMBFKjvMGKuvMNPzUNO1Zr605F1o2UyQToDC+ewcNtM3Ck49DZpuhvxaY6Gv0wpbVZ5AQKdXHQqumQBN7rBETvKDjxVXuoWMPRZ2xRhc1navjooFJeI9fqcDENXvZyOMQBZG/6mPp3PuN2CV9WJIJ3ZpflImP1cellnhCX/4s5aBTHxcODXnxqL3kcbAXk7XQGYFJytYUDfTTdvbqZWlDvn2AieUUNoSWDadVplqnfsuG8Mx252w8sqGXNlAmPrfSc84GbTLOsmTe/UIX0UctM9cm/KA61GcsCBgNjaTGHXuEyLlt86uxxbKYMRgYm+Oj8nSZ51cWmETp2eFN6V70xBAyi5KHwdiFb0Czzuz3NoVuAyboCUeri0HYza8hddrQlTJwu7zzwqsYFRDhvQ9ZiuGovcuEoac83vBvJqEDolX51ZGztogH9SsbI4pBRXZr+QyXQ/EsPP0AHO478IR/+kk4sNZniUZni0OyIx0oCL9S+oXY6cVxDGBCLo9oe2SR3Ns2MFf+l84vA5iY6cWRAJfZk1HbLvyeBZik7bN0ov3NUjltbR970fbsyXUDBgcWXsLHmtRTIeogG3sDNGo5s/k6iJuVq1td/tYCE/kd+kUGN32B3ZIjNok2mnksFV91jwkaZqgZaNk3m+WYDRipx7llHgOmDY6upy+Tr8qUQaHKfei5/kg+Oq0vWEMPEDTT9xSQ9iKzQzSTLvQ/8swNnkv8iK5lGUgfqz5EGbRsppYHfX0wj2m77y/AxH0v7GO/aQ961D7aIO8D0SYAEZ2GrwpM7OFTRlu6L+VnRHdESegHH+p1P3TWAhP5gVGbrfGMH0BWnaGFf/uRREK0Bb0aH2Ij4TspG8kTXPylKIs2yv2aqkPkxcRRXtEj+siEy30H0MVX2TCcsSA2qA28q4UuyMDevRcm/NGZ/m7viigXGeaAiXrwCSgZmxz0j07l+SqdX1lgEiXpkABJOjKj5fjsovYMvnCuZQwgQKPsciDbgIk6OQ0GoJHVKXJiA5r1TGuPDMgz7/gw+DAK5WJoUh1AJ3foEBwcZ6PTeb+DEJ3Hw9D3/oDIGjryxpFY90VP3WS2dyHIX13kTcdivBA/MAdg2OBGP745opObwRhEUp/yOi/+1Edm/JLf4GC93+AHJOhY6DuOAUx0uHSutHWddYfntellABO80R1HRI+WE9gN5+r9FHW3PzsDfOl81+ZXeRx186u248hFA7QJnXGCBh51anu26i2r9OqIra7VYfIZLNk6uThvQIV9AQycrf6JBzZk5lYfreVk9wUm+jydpA+Qy74F6/qWiIB90QMyR9cZwMKzVJ/JwIBvAwm7dt0+AX1JG2krfa6Wde5x/Oh+l18Zy277XYEJnmpeEwB12pdg6YyPMwFKJJbMymTyUcsunfMX2oU+6UH/BVa8fl0ftwTHf9KDduQr+KUAjxGYyIsf7aC8drFZtfZfNPFYeQowIZ+omDJsFWhGi13hL/2fnx1B1FpgknpN1PhEcuHbJtZ8mddGaxFj/LjPjgEHfSvlx1T7JApiY290NObzGx0y06s6AAKRVD6ZDarfk6n2I5KZLpULMHHOruN71cuHG//Yr/HEObAUGeaACToAGaBOTodxBdBy7yoeFw5M7CinREc2CC4pRsNChVCtBmW0KashNTTHlEbh6DnfbYa1C5jghWPUKWJQ6nLosFJ1alxGkpfxpE6pzqSzpqMyKIeOEcNAA/92y4/yc+TkjVweQU7d0qy5qsthAOdEGXB444TCvzrRsi5a38SYes30886Y8Cd/nISUY4uu53gOrUNTgMnShDrStvvMCsd66SSyGNDNDuqf/KJW8mgbDmukcchvgzI9p26y0J/fwGxmKUBFBSaZLY11cpTKao8RmGj72CrbUpdD28deok8zr23vchjrrb/VIxKIX/TpCz9xmKkDQK57CkKDPcvvAIJzfVuKDnnVp1yVy28TBg7dOXnngIlZIoBWHXf6hVRZB12JAoyzX5sn03fpeRu/+9wTbUibAhn0q7z69TOy5r4+jFd8uM7n2AyaMmvqNXh6g6nBKHToDzgguzpM7kxC4mO1tXZD3x/9ameHMvhzxLbzG698if488hhgQg62gxflY0eh4RpAPafzABPtZqK2S36yixaLKOJdHeRVZ2xACujyjfKPfKcO94wvwC4AAGAu5VXGPWMB8A4U4Dkypn/GBrUHwKiO1Ke88U95viP8o4Hn6F5bKe9+gElohA9+h07pXp3avk4gav6rcH7hwETD2tRp1/XS66ajGA2ThmcEnIwZqfVCMwqHj1KZNULBFK0BUiZ0agrxakANu+0pAwOF0KTGNNAIo3LuZlieFtDJvNdhRPTqUj8+oHX7TCBxThS/EDrZ7ecwY4FkK3/h3QzNI6Hq44zMIG1yJOtch+VEIG4zGfpRJvrhKKB7+lnqeMCOPJyxupS1NKSst2oa1AwqDrO4yvN5nOOLPdAPJ2K2H10eQp/+zNqEcrO0MAIT4CV5zNgOqWeujEHVN55ip9qQ4xNKzZ4j7S6P+kU5xtll6LLD8MiWYh+577e+IXohMmZg0/ZsVf2iXQYctlrX6lN+bap9RKFEHAAQbWTAl3oHjvai8wCvShd/5NcWbLre23ZucAPwldV/1KVu/c86OTtUN1Bun8AcLY6dzzEzBQLQQEuf9ltUQvSAnkfd8hXhG5iYo3/INW2PrkP0NPXSseiUTe10xW70Q7zaa2HfzD57SypvaNtzwX+wEfYh1d/pkf/AF7/Gp9KRgRpvFZgYFEWQRZj4cbzhka3xzXx0Jk61fucVmNCt5SM+LW3CT+ojQBBe1J1DeedAGd04du2rSv1kZ/8mwtqcf+PPDegmgABOlvJSZikFHukMWFjKU6/jOWOBtma/9BWd6dv6BOBvLKllnac8++Yn+Edto+3onw7ZtzYhi8jiGE1DAy2THDanDU0Cl9pp5OEyfl8oMImia7qP0BTMuXJYGkMnNavmfNDxJ08aYo62gRswgTYZw1yeeo1RWYdWl4GM88WDOlNP0lou5/IxCGU5dsaApjKVRvLXVCdQVt06Tgavufpcc+iEIiA6ovqsq7sWunNl3ct1vNl0rKy6Uxavjl10cv+QNLyrf5du1tCfDKJ8tC+/pWP5yD9e3/d36JCFrdBjbCa05CFf7CA6zv2ahl7K1Hv13P3oz4CSetXhSN7Qy+9DUuAKyFWPaKbfaa+kla4661HvbTtXBj2DFJvQh4CclNGO7juqjLkvzZ/z0OE7+JARbMzp5hC+a/1rzsd68czH6Lt0zP/MDVpraNc87ENd7JF/QJfu5JG6R4/0on0DovGTiIlBLUuS7vM1/BNatQ1GmdRRgYlJFH7IGVsy4Qofc+XRcF2e8F3lW3NONvuP2ADbDc/oLtVZ6cqj/ByQrfnmzvlzkdKMBXRH/tS9q373jQPKS0ebCB11L9GyLUDEBIg5VIdzsp33tUsDJtuUd95Chh7HlLCuUBrDyL1taZzbUrqt7NK9JcOp+ZfyLF2vZev52vxr81Xaxzo/Cy9ry8q3Nu8+cobuUroPreQNrfw+JD0PWef4yLW16SG81zL7yLHUZ10PzW30ci9pypxXiu6xaK/hsdZdz5XNb7oagckhg1oFJvZYoL/t2MV/yu7Kt+1+aEi35Zu7t2+ZWtfc+Vwd+1zbxg8QCIRZsrOc46GKbfn3qfcYeS8cmBxDiCWaOo8GEWkw+6gv0RHSmluGGWltc2y5N5bp31dzQ9VFtsuc48m1i+TjvOuakyHX1qbnzdM2eumj29Jt5fve9XtMREzMuvnVfXVTgUnec7PNZvalf9Xzb5PVvWPyr71slrW3xBKySfox6zsr7ZMFJhoaKrRR07pbdl8LY9lIZDPYGtS/zaHl3lkbocs3kGkbOI4NpI9uS1v3u3VfIyaAySED6a0OTC7LzoASr4XwMIY9Z7Y/HNJ+F8n/yQITShQhyS5kSN+5TUPWN9eAkotsiK5rt3NsHbWO2gYu3gYMYh4EyFMh5w1Muk2P26aWcDxl6h1E9vFozwYml/ictA5k97Vd5pCi58ZtJmtQctyO0I6m9ds2cDo2YBATYfYqdu9f8kTKIQObp/48sswn++DjzTBAnoId07OnrurDE4e030Xq4qQjJnZAewpGmh3m3RlOx2FeZEfputpublUb4DMNap688TST/QmHTO48yYKGhw7W7O+7VfV9bLlvhjHwpIHJ2MA3Q4OMPPfvHhDbBtoGTsEG7HWID67pKcjWMpxvH72lgEkbz/kaT+uz9dk20Daw1gYqGKnna8t3vlvH1hqYXOIemO5ot05H67butm4buN4GAk5aL9frpfXxfzcNTBqYXOnn2buTttNqGzhNG2hgcprteh799ZYBJqfaCch1HobQNHY7Ca+PtvHPRsBDXjB1FXVsE6ONiDaHj6+4PpTftsndtnSobk+p3Kn65FNqo8uS5aSBCcP//Oc/P71oLV/KvCxFH6teA6SPATrsej9WPbc6XXr2mKQPZ/lw3NxXdG9GHflOCZl8JM4H+g552iJyewLOB/F8p+dUgFtku+z0VMHeGrkAZh839OHGm+HlYJdtK6dQ/0kCkyDxL3zhC9OXVn0Xx9d8Ocs1HeFmaViDiDcy3uc+95k+e23gzEepbhYZbiY+fR3Um4N9Mv2Tn/zkTQ8C9QVfa83LB32d+FBgYvDw1dW8xNBH4m6mtr2KvMaP4e2U/Fbk8jbeNXIBI75i7IvwvnYuYrmm3FVs0+ZpXTTxJIFJOvLv/d7vXXtboY/3nRowAUJ8zt1g6a2Mvv/TM9V1hn+IgzhFYCKieB7AxFdbTQAAkzvd6U6bD3/4ww1MzrB/zcDrS8p/8Rd/sXnTm9507T1Mh9jtVSpT5Xrzm9+8Uy75P/OZz1zzcT4nQi8NTI7n566CvZwsMKFcn+P+oR/6oclhvvjFLz5JRym8ea973Wv6DsK73vWu7rBnGAx2dcgGJsvOEEj2TSrg5CEPecj0Iq5d+uz7y/r87//+7+k14vr2D/7gD04viTwFfR0iFyDyoz/6o5u73OUum2c84xkbe71OQRctw7L9nzQwgaq9adBr6K/61xQPMVLyGRC8SREI6w67bOiH6Hcs87znPW+aud31rnc9qaWcb/mWb5nkOstSDl3Z42TvzX/8x3/0wHFGgGwz8u233z61ywMe8ICT2T9mGcb3ykR5b7vttlV+mZ+znGN50Fu8O1pyXD83+r3L+H2uwKQajPP6m3CWGaxhz91zP/mTHqqQLNmgo776ey3N8JB0bblD8qkj9WQpJr/n6NV71mnJCKD4m8ufaymnjugk97aVDU/yphxaoRcah6ShM7e3IfVuqyfla925lvL13prz8DKWDzCxx8Rm4zW0lvKEx3o/9c7dq/m2nSub+/jPkWs1ldcekwCTpzzlKdfaV77IX2nW8nP3U19kqfnRSRn3c9Q8uV+v5XyJD3TGcvLmGMsnb9Lcr2nKps6k8mwr5/5YNnSVC53kyb0xrQM4YGKprOZRfhcfyZ+8Y5ss8bB0PfSkNU/kSj0133g+ygVoJM+28iPvKbMtrXxVfufKpO7otKYpK50ru+ZaypIj9JTLedKR1tJ1+cLjnP2HDr+efGMZtJPvqqUHAROCfuMb35h2Sb/+9a/fvOQlL9m86lWv2lgztCYaVFsVQnCDp6cAfBBKJMN9MwOz/be+9a2bl7/85Zvf+I3fmD7wBCErs6/yNNKXv/zlqQ71fOQjH5nOv/jFL95Ai1OWxwxPPcKM1jN97I88NpNaKx+f6BF9+dCHPrR5//vfP6XbHrPEj42Sv//7vz99oTO6qYagvI2673jHOzavfOUrp7rf8pa3bP7yL//ymi5rfuef/vSnr8lIBoenIsZ8ftMz3X/lK1/ZfPCDH9y84Q1v2LziFa/Y+MjhH/7hH076cn+prPJf/epXp422r3nNayb+tNOf/umfbr7+9a9PA8xc2bXXyM+e0Hvd6163ednLXjbVwSbIaSa+1EFFw8guauQPrb/5m7/Z0B8ZtaUnRfC5xE9sTKquz372s5s3vvGNEw8+1f6BD3xgKp+lHMsVhwIT9sD2yaod9B1tjk+2F/sIT0s8z11PGTr42Mc+NumAHZOFDOqtUTX5R2Dimnw+k/7qV796ag82o/+M/Vle8qhLP9EOUrJVe1LOkqO+mHtsEU/siR1qa7zoW2M9kdV3WtD31I9r+qsy5NPWr33taycetHXq51880cE3yaM98WB5IHTn0uiSXdEFHtmlOvzGf/LU8q7pt3QRv5K9IvrMS1/60qldPvrRj17bxDnS4S/0Sx+7s2fnvve97+Rr2HGOXfyPPPnN99If/+h3+grboxv88Wv0h6eRr9DUPvT6uc99bmo3ZT3RZS9M2jB5a6ovV7l80I8PpascFYDxCfSkvdiYVN+sNHMeXn099xOf+MQ1H46vt73tbZN/Xdo0W8uqL/5R2d/93d+dIjX6zZJdhoelNPT5Z33cxwyNdfqm8VOdxjv2nLwjrehHP2Lb+smnPvWpiVe0fv3Xf33qo7UcWtpJfzG2kMehL7Ax49pSfZXOZZzvDUw0kIaz5iekbaObzmMD3Z3vfOfNPe5xj82jHvWoyREROoJLKZRirBX62q9BgFI9VRI6aDisU3P+hxiDDnb3u999enoCLfXpPOFHiu4zn/nMSQbrlnh57nOfO/1OGTwp++hHP3p67DiyaGzy2yVOBzrc2HipiwP5sR/7sYnO/e9//+mz08mLBwO+T1KbhauXLh3h4fGPf/xEv+rB+WMe85hpPd8g6bjb3e42Of7QrilHYwD0dVB50RdKxb96bAw26Brkazky4F8HUpYulFOebvD8wAc+cOpcS52+0hvP0TcQc/rW0dGL/KlHOz7ucY+bOnT0X+m86EUvmso99alPnWi98IUvnGyQbKFF5kc84hGTw6plcx66HPYv/uIvTrokH5vGB7l9odrhN3qHABODuL5z++23T3YTfaaO9B2ONbztk5KDDE9+8pMnGdLWdKEu7SzqY0AKXYD4jne846QrfdI+JU9AyE9/Kct2DSJkSFn1sY973/vekzzaT51sJcBAHv3lQQ960NROBlsDoXA+20u/V478T3rSkyZgqVz9U+c73/nOif7DH/7wqV6+w+CGR3TCq7qAHgPB85///Im/1CPVZz3dYRA1GESepOqmIwNtdIF26OPbV3YByixbKaM8/8he9Ud2baAUiWLH9Kmt0cGD6wFZVVb+Qh3yOlJOm+QwAQy/a1P8kP/nfu7npoEN0AJ6oht8qfdhD3vYZN+RqdLX/vwE3rWXMrETZckVn0UmNEInfrDKpWxkkpIr+YECenSwLfe1W+Un52yMfeijbIlMeItMeCU3cJwySdnA+973vkluMlSZ0LHhln/kq8Nbyq5J+WsT0/jssQ6y6Q8e1ki/qXRdIzu52OPXvva1aa+NcuEVTaANf/7UqZ2e9axnTfynztgfe9SP9BPy56/We5nnewMTA7jQIgEpS4NzeBwOo3TdEyKumamMDWnGwOFrcMAADZ3DEyUUBaSEBqfDGPZVEOePpo1jDN+hE+Ilh4azpo4Xhv/EJz5x4kX9j3zkI6eBjMN1X+MbTAyi4eXd7373dB2vAM2cQcmrI5AVHQCo6oNTevCDHzzdwyN5gTpAiI6VQZ8ua4dC4wlPeMLkcPEuj8Gl5gmf1mXplgzoMVBggoxkSnkpNJ9y6gBoOKAYv7YGyPCYsmhqw2c/+9nTAJTya1J1mBXRszrQ0dnYEsfvnGzqUF+ceKX9ghe8YLI3vOE1AyPnCtxyKpEdDfXVNkDLb7ZqQEtedAzG9ET/9IYPh3uHABODOJrqQINz8Ju8ZEdbO2p7UZ8q55pzgyTbQV8fZMveT/LQhz506gt0yTnWwTjAxD2AAk/6MQdPdry5R346NuOu+tMn5FGXetkxnRvAks+gwfHiiYzoszftgzf6dU1Z99mnvSr6aP7Ib+DBi3oAGDzpM97Dgt/YsnrYlAESTXKxB3Xd8573nGigQzcAddUtnrXTc57znKmN0t7pMwYGvGon/RqYS3QXHcCEjpWjF++8YcfaWb8xOIdPvGmvAMXISjb6Imd077eDjTroJ/qt/C+do22CoU58ZzKk3eiPfugJ3w56FaEa6Rn86CBtLR//wlbIiD6eTTRM2CqPkUv9o1yRjz1qd/UaNPGERzzRuXpGnrQXP6BPhe797ne/yYdrc7aAL4cIRS2vvUTB2LY6tJUHJuiEr3OdrA72InJYy685NzbEJsiuDnqjI/0t+mBXXv9AZznQV55cDn3FuMX2+Qn2gw7bIkv0TY/GFvnIbTz02wRNO6VOuhFdjs7XyHMRefYGJpRkpkA4Sx0cNGTGkQo3MQQK1MhmbvJHWQQKMHFfQ5ihMnadQNhUiIlRxJB0pn0VwVEIp77nPe+ZjBk/S8BEPXjhLAAMHd4sBz9/9Ed/NDU6o9SQjAYv5JGHDtCWzoXFyE4H6jDwMJaUF4rTodWNtndAAAbAAP4BCig9DkDHhZRTXlgWvV/5lV+ZaOBjBCY6bHSJDudDJp3LAA300b0nlhz+0PfHyOkj+tGxhFLpBX/a3ECRgYt8fu9r4PKLcpDPDBU/aJNfWNl1OnKQdaTPIbmHTx0eQPIILB7xKvpg0Iqehf3RiE1KhY/pRh6DmnO2DAhZ1sCLx7LpkJ4PASbqSd/hUEQNOG51WMrULuEBH5z4KKu22XYICeONLjhXoV52Kory8Y9/fALGoxNiQ2Qml3o5L7NHSxVk16/pFE0He6qDOR7pGx3l0dkGTPAnosBvpM/Tr1AzntWBBnszCYo9SuUJn9pClEy9sWVLLBxw8qBllsym6IF/sZRg0CKz+2yu6pQ8lrDYMzr8mUiR/qYeuqSf2BQ+RCNDQ78xWCiLPl3wYfTIJlM+fLJZdlD/6J1dpG9J9Qllc6gnda5J0ccHvhwGLOCEn1Qfv6OvmBymHfn50KYXESj3yUVuvk3bA8RkIyN/7r46DOz6Vv7Uw9bZvzxzclXbQhdN+glPfGZ4kupX2it10quJKT/OX6pTZIzdszs0a9RPlIJNAj024/Jh2jptZTyq7QnsAtqVh13n5LcEZ7LFz1qOMRHSppbDAI34Fn1gXM41kYh89Ipfk3oyskn9J0EAdWknAIRM7EvURD9JO8sv2piJO3CUSWn84i6Zcc92RAAAIABJREFUjn1/b2CCcYLrOAEdruXQqASmQAbIuURYKYDAyBwGvroE4L4OQEmZQeoIKb+vMjQ6B6QugCh0Ug/H5p5Gt/wDLORPXfIxXLzIY0YeGu4DDjEY+Ub+DPw6ijpEZDIzQoNzUxZ/BgOO0/X8oYUfMzK6ZLjWx8c6XENfHoOpP3noUQdNWbOcbfsEMgiEvjVdRo1Hg5E2rx1aPs4RWNHeeNDeeA6NtakBisOtuk1ZjjMdyKwV2Mo9aSImHC3wUB2b+3g2CGag4VjqbN65tk9bmJEZlOkv9dAp/Tz2sY+d9MkxHBIxQZMj0XeqLsntoAMzGG1mZrSvLt/+9rdPcpAF2Atdqbq1V21n1w0sGaS1H95cj+zKGVzYD7omE/pV7tcUHbxrr6pjjly0io0YqA0YtQ7nfAlHS375tBegjU5sGjDBgzpEIkZbwKs86Q8GGgNM5VE9ATjosIfKCwce0IBnbYJuzeO3fJnJS6PXCkzYyXvf+95JtvCAjsOyivodliNzP6m2V7/7h/ar0EoKaEQ3IkL6Clny59xSir6kXoNbyuIZiMsMHIg2yOd+UrYCVCrPZ/FzVXdsQcRHO5KrRqFDY0zlwbcDSKj3+QdRMJM7NmMyQ46aR/3sCL+VFz43di0yQ/axrHL8E4Cqfm2qzkp/zTm5AaTQj03jhx2LpNEXGcalXDYV4EKvlrNG8BIe0Itt0TGfKC85kkcK7JikyQPAAPA1khr+apmLPN8bmGCuNm7OpYQnXNCaRuSIa55ETCjaTGROWA1lVkNpHFXKz+Xddo0DjUFvAyYGYMg8tNJR/QYuhPPwImRW83CkHLV7QmkVqMlnQ597Oo0NhCnLOBkX3uiB84qM0hzyQ+zyyMsZjAYGmDBWRwUmdCiSk/qFRdFLxwgvc6mOYMaOpkgSOcPfmF97A2zy4nHsVGP+pd9jR1AfWfECnKLPngCkykuAiTY0E6n31EVeZQyWBk6DlXYKH5yzmcwd7nCHSVaRhbRj8uAN3TyVg49DgEnohcekeCSnFDAiK5vRd1JmTcrGAsA43DGKl/pCy2/ARLup0ww4f8mTlJ3FlhI5zL2ka4AJXRvER17Q8Beniicz+mrvFZjgB40cyjs381cWr8DLXD36hn5LZpMCE4bQMaNNectWkS33a2r/ChryRyfaMTNsgCXAaOSD3lN2jAKo85jAhG7iD6K3tDtgwfcarAzWkZ+OEuFlYyYuuVdTcpqksV/yiVJU2c8CTNAbgUmNGDuvdVW+5s7t+6AL/lU0KbaGRj2UzdK9tq6RpDm647XKU3wLfbseXwT04QM/NutWGmwqYwC9GhNyv9J2rv0sE6HD/7M/fqXmU9ZvQE2EhkzaXNnQxV/OLyM9CJhEMAqDAgEMoWlOxea5LOdwVHVNjjICTMbBugqPrjAf5coXg6l51pxXYFLDrfjQWImYGGiEwkIzndRvaJODwYvZQuWFUVmC0WHMBDlFtB3umeFrdIOEDole6gZ2lIP2IXLXU39NDarJa/AdZykjMEkdwnUZpCyHpENU2kvnBg5OicyMXCgcvaWDM8+gpAMv0Z27Hn25p91FyzhNO8c9scHJCZvjhb4AxaqrABMDDVBR76HpN90DuGjIl7ZwH5BCVzsBfu5VnuSJExHhk/dQYBLepBw9wKfvCDOT1dKjgRIvDtHHlMHHrsMMkKNJW4jSAdyJ1I3l0a7ABMCMvGNeoC9toG3G+36n3qWICd1xgEvABD/6bNrDjLr2twpMLCOPuvEbGKM7vJq5z/FJH4lkAqqJ2rI/+lM/QM6elmxeGF5EMm2lD6gLjQATdei/ro+8us6fKK+PjfePCUzIVydK+Msf/uldW7JzftJh0BLyxy/fMPqhqmdRJn7NYErG2t/omj/SPvtGTPAdYIInPs3giyf16E+Vj13nIqDK4oXfUt44MB5sAPAM2AJ4d9Ee76d92Z5+belWhNOYaQJrOYq+HJ6wqeW1ievkZ1P6eb1fz/VnupBXNFD/d5Ap50mN3QGbxpg6EWIPle5Fn+8NTCiYURhAzGgM2pw9xTFm5xpagzvqgK/sGmBCCaIT6FBwDTHto6AKTLZFTLYBEzwzBrw4dIbKg0GUwZJdaCwGyEDoAv+Z3aUcFEs37unkCcvlflK0dGSgR146BvRSh3xLwMSaZtrBRlltttbYACV1KU828mvnuYNTNRClg1ujDf9rUrLQqQiEtVayZgkJzdgWXujAGnWlOwKTes85+mRPG2prA2N0Udfd0TIQVv2i4c+1swITtPAC6FmLT98hV2QNmPR7X0eLvnbXJnFkzkV69NfRdskUYEK/9I/G3GGWFntic3N51gIT9j5XHj/WwekDLYNbbasRmIw0lF8LTAAkOjawBZjgi33E1rSPJTV9dDzYE/7wiU4mPnPABF+VV7/lS1sbFMa2uSxggk++V8SEDfG9bJbf0S4OS0x0VmWq59osPotu6tKdclk+OQswoUORL+2lDn6iDqyVn7lz+mcD5NHe2lqbmsA412+0uXMHeWIXhwATOgTYbGUw6QZ800f52Px2DVipPOM1eelstJWa11IWmegEQCEHueYOcrFBedWvnUIr/jG/Lzo9CJgINRGUsghvkxOnpnMCKxo0RgydRSjGNAKTsdMmr2hDDEHD5Po+6bGBCWMzk8ArXTCadFgzKDrQ+Ab6yjfEHCfOMW4DXuqgT/TpA8qttOaAifvClAwODz5gWMvsOjdYhT8dnyMyy5k7OBnXpezALHMX/XofELBTPnsLdFIRN9EsOvSa82pPZi+1/C5gkrw6KF2MwEQ9sVUzmOSv6XkBE7buHQZsQluSlc7wYJ+BTWr41G6OfYEJW3HYLCiSZ4abdkRX/zRTT5+TXiVgQucGtbSHAVsUMk7yPIGJJSU6DjBRt2gcR61d9Dc2Hfues33X9A2HvRRo8FVzEZNqT/RucGGLZCXn6AMuE5gk0ou38GVfRfyx/snOqkz1nHwZ9AGcum/pvICJ+oClABO2vhQZrLzlHAg1oSIjudLOSWt72xOTdnZddCN0dqXpazamoxE/LlJn/6DlJxMekdLY3TZgoty2Oo3NZFIPP1PlGM/5HrK5bgm5ThjS57bVdcx7ewMTMzLoVKeGsoR1q7PDLHASI94GTOyQXxLuGMAkdTEWHSuDEuOukZ3JE/7vP2UMjORxjGgVnWyedB8Y0sBm/QyE0aXepBwg/bmvA1eDSB4pPnW2zD7QHyMGIzAJ79lcqw4DXjpIpb90bkBUTn3aAZCCps1mPdlQD6DLb/fMWDjmtXXJZynDYKAugydwYCYUxye194G+5Kn2hP+1wMRARKYRmADUrjssqczxTqeunyViQg4bhasjtfyZPQhpC0AsYGJfYIJHB7BnYBOuN0jqp+SjQ84wa8nyrgUmIlr0j8axIiZ0kD0i+DVg49Wfe+cFTCwtzAET9ssWOXX9V19j12uO9OFTASbaWhsAJv5s9s0SgY2a2yaLdBGfxZbr8uuhwAQvjizlsAe+J/1Ju7F5Np2+tC3FRyZD5ALm2R4/t+3g69J/ttHPPfywH5NWwAO/wIgJln7KL8gjiroGmKAT2nMp/xld2QBP92sOsuMnNNPn8vui072ACSPN5jyGa10uio1BSD3KFOWMA8kYMVlSwHkBkzj5hFopGI/4NgjgE9BiKPmrjSCv6FDkoYPImnwcWIzcLuhEK6B4QGXMD2wEOQsVj4NT6EoN0hw0ORhunt5Jnqxza4/6uLDIhQ7nug1oI6BK+bmUg1YXmYUddUQy7DrmaG27Znbs3QBk02Gt44510HfaCT/W9ivNtcAEuDSocmB1ecAGRtfRBjzYRaXv3B++zgJMyBFZ8aDvjG2iDu+6wQue9gUmI9/osR97VwDg9AVRG3L6E4FTn8Mek/yNtC4CmOCXgyY7+9Pv9BV/+OV0M2DaYzLyqPyapZw5YKKsgS2TLvbo6SxtxGG7P3fEPvDofB9gwg7ofVfExCyZzY7y7vvbpk310aFJIXlCI/z7bWYfmyC/PwNyrtmHQ1cpO6YAQ8AwH1QH8gpMyMU+x/Ljb3nCdwUmrqOffm0Anuu/Iz2/tWkmK/SRSO9cG+faHJ1d1/DjPSmxW09DZc9NpWup9TyAicABXdGJBxgCNlLXmO7i/7Lu7wVMGJXwEMEhNwqughLCb86VYuTbBUyWBD8GMMFbeGQwGfDOCkw4I+96IC8nYwBiiJ7UiRFGzujLrEN+MzODQ3UMySsFbHQ+eTmMSk8ZyyB0rb4AE9dFOThX10UiIOLIXumHn+jGPXUI76mTbjJA1k5fy+W80l1zjiczKwOm8DBnpyOpJzSdi2yRUT4AsvJ6VmACDGXAFtY020v9kYE+1XkoMFGWbJlFxrGjmz91qTfRRvLSe5U1/CylaI28J68oBzCsTdll6AaYsJPLBiZ493QCHh027+Izch0TmKhDP6YbenLkZXJ4GA+80m30GD3vC0y08y5gAlRu22yaunelZwEm7BeQ0C6WQIA2f2Od9AH0GGT1K34uupLXGMKPsbc1cqFHdvkdASauA01eZRD/Z3/F2B7hb7zutyVuNPHpjeTouY7f8RjLh+6a1OZ9euNLAW9l0KuHR5XpDD+WcnJPXjaVvrsrYmKSzO+rzzIloE6WSi88uxZecu2qpHsDExu+KM9bG81mIrDUoKJx7QaOs09DROAxYpLrY3ozARO8Q7yZAUkZ0tzjq/LSVd10KcpSO2/y0KdNkul4oj5m3tEVx7AETLSNwV5Zh/ChtlE2dcUwXWP8+a0OL+Bh3A6bvSogSv1SZZbu1Xxz54BJ1nkNQupFrx74yqPV5BBSDp9onhWY4CFPG+jQlpYqfXX4c+1QYIIGh5zIWx5RrTpJ37E3xLo8WS2z1Dy7zrWrASSOSH58+wNy0if13djRRQMTkSuzf3yNejazzlMxwHhtCzIdE5iEF8trGSAMqlmmDr811Wb1N33vC0y0yRwwQQdI0v9EH0QsdrX/rvtnASZkzePy/L8oQLWz2Bq/Y6ZOLm1oz0P8jjzszpMgaJB714ZV+l0CJu6JnPG16NkzYSCe04O8/BQ5ct/yTQZxfdOgLl/uS/M7oKXeW3ueSZ6xUzuiOR4eogj44HvpNvTZQu7tAib6Vp7sYztATtV/aManuVfryv3LTvcCJhREyZym2Z+wehpOarYpTMzg5KEYjw9XIU8VmBh4dAwdhOyAlUGC7NFR1YNIUmbQIhoei80AL79z+3dEVNA0u1CmGhHjWgIm8mU/UJwbZ2IpKA5VHh3ZXgTrkel86rexTJ0JLwI2ZkmRAQ3tDXi6t8vBpFxNhWLpib50OHW6r35/eDPT55hjT9lkGDpnBSZ0UJdz8OO9MhmQ1MOZitS4R5ec2T7vMVGHvmNjHTm0t77jOvrRpT0u+o465Nv30Wt82k9kMLBOjj5dGixs2EPXIVIY/V0kMCGTWSPdsZ3woJ/gw4QmsoteaX/8y0eWiwAm9gPox7E3e5C0lfZLWzm3J83mbHYROaTumdWTw2DHjup952TS10xgloAJmxA9S5sBFXxMytONPCPtbb/PAkz0RwO5iQTgbOlahJaf8qdegyIfw2fQH/mrz5CH3Jb6+TSyiVSEBr2Mcrk2B0zQcs+yUXwIXdpDBWCw+eRBH8g3sagAz/W8rwm/timIXLiurD86V4cBnj/dV+foBNDRi+//VD+rLu+Eyesx6EX/lEdZB5taC0zk9z4r/YxM/En2stGXI/5GRNA35KKr1HcV0tXAhECcA8NjUIQ287LHQTicU9XInLblHvfl42zq+uipAhONyegYENltiM3AM9fQ7tFZELuO/rSnPW3Sry/sMk4zeU5AHo8iV2NF098SMHGfAXJGyjN4qSiKZScDlSdBREM4SIcIj3Jpa6/4ztKdTgWU6tw6qeiNTak6lHv1lf9z8o7X0kHwR2doeJGaTsSehPRFSnSsRFXkM1BkkEDzrMCEDq1Nc24cGz3p1CIXaGsLjtRMXrs66HEfYEJWh3eVkFO/MKvRd+iYHVhGAcCse+NBPeQ3aCs76m/ut6iIWRn+vOQQYFSnde3okE15QiC2eZHAJPoFzNhO7MhSHTtyn9wAO/2GR7I6vwhgoh6PRtv7lcHAOcAnysl/6ZtZjhDRrHyeFzBB02ZptsheTFDYCJ3hga8NkJ+zhblrZwEmaQPv2Mi+Dj4LeDJ5wJc2ZXvaUL8dJ6XhycApHztn88qxUz6EXJahk5ftbwMm7tMTm0p7WcLQLuiRmc8wyXKf36v9ySO8ImPu4Ye/Y48GbGX1fff1W+85ymQz/K1JTd4yudK/RURMfujHchIAp1/ywXTncW2R3PC5DzBRRn68p53QBZZNwOiZX/OmV20kT32R4Bp5LiLPamASZszKdBCGpbE0pvMYmka0L8KMxz15NIJB0t8pAxMATAdgaHVGGN2NKV3q0DoVXXFADMU5QKKzGFAMYIzNX6Xh9xIwmTL/L+IHkjgR9NMBnefQdpzv+A4SQEg0RTRDO+o0yuAv/KKHto5QHXTlc+mcTZghGYDDl06EH3pQp/06BlLORv3uc0SheQgw4VxGXVoiAhaif3VnoCQr/ZhJkx9/+wATvMZh6DupI7QiL6Cv74isuCff3KcOIvuYaisOMADA22zx7jd5OCKOSbvm7yKBCV7wwQmTT1tqd+3qcA8AHPcK4JX+jgVMzFozCNApu7QZMgNW+MN/9CmlT86+ThgOBSaVRtpVfzIBYB/hIf1E/fUNoCmzLdVH6V3Zpc2v9AB0yeeIrYQuH2dwZ2fo4Es7stWcG9xF7fi3lEtKJnWQS7nUQ0bt7xCZSX6pyKq6HNlj4jo6Du3FJ5g4KY+P9AFlUgdw5zMilbZzETETNDwkb9LQcU/fXePXR/p+01nsHo9kl+IPWBEJtpwdfvEZm9gHmKRu7QREZmIZnWgnMjnY0lx/C43LTPcGJgyLoXhbnRd3ceaQpBCa2W7eSsfRQ5vCY5Z3YkRmiCIDNshyikvCQ5XyQL5zBr5Url6HhpV3eFImPMij0XUesx/1hO9a3rkyBr/Q0QnGPPktrw6H91zblTI6ulLOmypFNOjTub0nQsbb5Df7gPDNXMaNxqmbrOiYQYgEaDMbsnRGcmk3upoDFuQVymTk2htvygIMOirQo95tegkfSyl7EhHCm8FAHWZOBqIsqXiPgnZSrwE4tIBebUh+70vI9TG1VCWfmW8NXVaAYjlK9IIti944zCy0p9mpGY56RJyEi8c6tv1mG+7bR6EOTggQiawiRJYR5BH5wKeoBxvdRrfeM8DqU2wJ38pra1FLMzNh6mpLZNe2+im59OlKL+fycd7ysBc2l3tJyYeO+6Jqkdd9fBnsOEcg3AzNgK692RI+8Qtks0NlRltEz0cJ+Q7tWMFpeJByyOmrbLPeyzl+9Gl09DF9sPIrn/r5BPpnD7F7my3xakKhnbK8Etr6mntoG1zYdu7VFH1tjFcRrVHe5AWiRWJjL+wfP8rwG8m3JrWPIW2UpwXn5DZ5jE1kcAx9+elLFEDE1T4YfZbf8iZVfYWv2eUP6A3ozhgSufStUS7txfYcIvbhpab40l6Wv/kl9Ng+ICNiQibLOeyjlnOuLMABHMirjdml/s9HKusN0dpy1NdIa+63MmTwtlf00cUbfVnK0reUwz8fjWe2k76qDdhT7HWujvGaOrWTds7Yok6HMVn78q/6/5LtjTQv8vfewKQyx7iEnAweFO+eP0pxME6PwtbOGSXIl/NK8xjn4Uca+nPnS/y4HhopP5fKw/Dr43Fz+eauKStkSZ8GyOgsfCatZXMtTiC/ax7nrjvIoQOmDrwy+lquno90OEmdxwAq0mGAj25qPWO5bb/Dmzzo400d7Cm8pA5p7tX6QiP5t9W37V7oqFsbsF3n9Jt7Nd1Ga9s9NNJ31BGgFNrk1C7uaa9c30Yz9+R1jqZ+SV/aOTp0L3lyvot+8idffqfOMR3v02GWPszgtDN+2DhbwmPVwUgvv1N/fu9K0y9qvvCW1L16XvM6x6e2wmO1+23lwucS3Vyv+XJtrD956IdN1n435t31u9YRunNlyDx3vV5Leb5On3XwX2vKohNeyEWvbNVAuqv8tvu5h6b2ss8KfxngK/9z53hKv1MWT/pOeJ0rs/ZaaKAf/5t+EBrykEEbqzvy5L40dOq1pfOalxz0nHbKvTFdonXR188ETOaYBTjqdYJH+Hp9zFfvHet8jo9ddR1SBs1Dy1V+dtHYdb/SOsa5+nMciz66FyXnRdUzp6uqx3o+l/eQa5cp2xwwiYzh6zL8wVo9hsfkH3/n+jHSpbqWru/Dw3nQ2Ke+mnese/xd8649Pw8a6kKnHmvr3zffefG7b71VxkPKXkSZMwOTi2jAi1DEedZxqMFVXR5K4zzlGGkdm7+R/lXUwaiTQ3+Psh5KZ1u5Wse2fMe+F2CSpRwzxfCm7vwdm4+z0q88n5XWqZSPTpKeilzHlqP1Nf9Nruj9zMAkhDrdrujWT+vnVrWBCky8x+RmBSa3avu13O27LtoGGpgsfE31ohui6+vOf6o20MCkbftUbbvlOo5tNzBpYHLdnqDuaMfpaLeyXm1G9CSLx609cSBicivro2XvPtY2sN0GGpg0MOlBom3g6Dbg6SJPbXhKwtMG1tjbOW93zq2f1s+tagMNTHpQ6gGibeBCbaBBSQ+4t+qA23Kvs/0GJj0oXeig1B1zXcdsPbWe2gbaBm5VG2hg0sCkgUnbQNtA20DbQNvAlbGBBiZtjFfGGG/V2UHL3TPjtoG2gbaBb9pAA5MCTLy6OBv08uTArfYiHPLaqGiTonTutd7dgb7ZgVoXrYu2gbaBtoHztYEGJgWY+PiUT0774qKPezG2Ww2Y+KaCj6vddttt01d/fSekO935drrWZ+uzbaBtoG1g2QYamPwvMAFAfME2n532JcuAEumtYkQiJT/8wz886cFXQxM5ulXkbzmXnUXrpnXTNtA2cBE20MBkAZj4HPlFNMBVq8PyzQMf+MAJmHghlgjKVeOx+Wnn2DbQNtA2cLo20MCkgcl1wKOByel29nbk3bZtA20DN4MNXGlgcuwllPFT63UpZylicmyeLttoGpi047psG+z62wbbBm5tG9gLmHiV9P/8z/9MXylnOEtPbBi8l1477fpodPKHllQdruWo+ZNXWq87n7s25sF85SF1yQeYfPu3f/u0jBFgEh5GEDPSze/wkHL5nftJKw+uRf6UW9Jf8oZu8ud36O9KU3/KRz7AxOZfeug9Jre2c9hlQ32/7aNtoG3gGDawFzDBwFe+8pXNW9/61un49Kc/vfn3f//3zR/8wR9sXv7yl2+e9rSnbX7pl35p81u/9Vubz33ucxPAmGPakx5vectbJhof/vCHJ0Dx9a9/ffP2t79987znPW/z1Kc+dfOCF7xg80//9E8T+DB4GkgN3p6cedvb3rZ5znOeM+V79rOfvXn1q1+9wYuvmGZAXxqoPRL8+c9/fvOa17xm88xnPnM6XvnKV27++I//ePPxj3988x3f8R3ToPz0pz/9urr//M//fOJX3f/yL/9yAyiKnOT+nd/5nYnHL33pSzeApQACezfw/IY3vGHS2ZOf/OQNWX77t39789nPfnaDz9CsqfL092d/9mebX/u1X9s84xnP2NioS194ox9gq5YZz+nxi1/84jU9AmEvetGLNu9617um67fffnsDk/K01qi//t3OuG2gbaBt4Hg2sDcwMYB/27d923QYTB13uctdpihDrkvve9/7To/cei/I2IAG9kQmfuqnfmrzV3/1V5uHPvShE81v/dZvne7d8573vA6Y+EKpQdvjvClb6/uu7/quzXOf+9ypTEBJ0tQPuLzsZS/b3Pve957qutOd7jSlnsS5613vunn4wx8+yYF+BSboAA15Yuczn/nMDTKlDoBHPsf73ve+6/IFNAEvT3jCEzbf+Z3fOdWvPkfkucc97rEBFgLMQlv65S9/eQKAd77znac6lIk+gKr73//+E+j6z//8z+vqVpYceHj3u999TY+pMzz8+I//+Eb9fnfE5Hgdr7Zpn7ee2wbaBtoGvmkDewMTEY4M0AZCg6unOHzW3MB+v/vdb2PAv+Md7zhFH0Q/LA9UpYuyZCB80IMeND2eio7zn//5n5/oiYgoYzAVPQAo0HXc/e53n4CMaMHjHve4zfd8z/dci3QAOqIvKZt6DdS/8Au/cC0fIPOABzxgAgg/+ZM/OQGp8ES+cSkH6HHfQP6JT3ziOnlSh1T0JuBKJKneIwtg973f+73X5P/u7/7ujfqf+MQnTjLd6173mu7d5z73maJTKQ9Q/O3f/u0EFsLH933f901lgRy6I5N72gW/9KbO0BApeeMb3zjlo0f58PITP/ETm8c+9rEb9JQP/w1MvtlRosNOWydtA20DbQPHtYEzARMg5J3vfOcEBLzv4l//9V83X/3qV6fB2cBqEDezt7STPRQatAITAyGgYcD8xje+Mb1xFA20DKqOD37wg1NUxkD6/d///dPS0b/9279NSzciMn/913+9eeQjH3ltsH/hC1943T4Sg/rrXve6CdSoD5CxbPHP//zP0+Ow3t0hiuHx2Azs5w1MyPF3f/d3E3BTB70AbX//938/6YP+RJLkee1rXzvJnAgLnZET8KNTAOT5z3/+5h/+4R+m65aF6AMQsj+EngCP97znPZP+QgcoEg1BQ/rSl750Aj9oA254EQFTHo8NTI7b+dq5tX7bBtoG2gZutIEzARP7QQIeoly/zdQBDYOb2bfB0sCXvxGY2J/yX//1XxMtACYbMdF03QApimGwtQ9FHakvqWiC5Z8Muv/4j/+Y6qYBVyQi9z7ykY9MNFJPUtfx7LBvA+3UdR4RExGe6ET0RiQJ/ciMj9RXgRw+3vSmN12LVP3yL//y9OKz7CUJ8JAP+LAsRV8/8AM/cG2vCv17cZr6Lb3Z25J9LKkTPcvZBQH+AAAK8klEQVRHiZw0MLmxw8TeOm3dtA20DbQNHMcG9gYmBr4M3nltexonA5xUFMLACAyIDtismb8AE/csZYiUpCxa/kLTfg7LQuq0KXNcFko+A7nlJEDIjN8G1AzYAJS63LNJ1ICcOmq9oibyOURM6j1LS3hw75ClHHtDyIqGCNEXvvCF6+iHn8gjTf2iKQFnQINIT/KN5cj86Ec/egImAIhNruh87GMfm4AdHYi85MVpkyKKvuk3L1hrYHKcTpe267T12zbQNtA2cKMNnCswGRVsZm8gNnv3FE7uB5i49+AHP/jazD33pQZTx5vf/OYJUAAn4xLNmN/yjIEXeBDhAFZsmhWxcd0SiGUi5cYB3bVjAhMbYbNE8vjHP/7a0lbAxxw/uedJKFEQctlLYp8PoDEeH/3oRzd/8id/Mu1XIS9ACNjRA3BG33iw/BbaVYfOG5jc2ElGHfXv1lHbQNtA28DxbOCowMRjxQZDA+qrXvWqa/s+KjAxuzfLn2tkA+orXvGKqbyB1jLOXL5c+9SnPjXVp04bQoESSxgiFMqLNogU5C/lkh4LmAABr3/96yc58Parv/qrN8g8B0zCl8eHlXNYzrJRGMgaD+DFAZDQubyeeKLfPM0kiuKxaDzNgZMGJsfrbGnPTlvHbQNtA20DyzawNzCpT+WMSzmjoj/wgQ9cAyY2WtrD4K8Ck8c85jGzAyRagIn3awAVBmVRh6UBVX6bQWtUwuPBNna6ZqC2ROGavHNAADBRj7zntZSjHnJ7Vwq66L/3ve+9AWDN8RN9Wj5LWY86A3OePtp2POpRj5qeWLJnhB6BGJErIM27TkJ7TBuYLHeWUVf9u3XVNtA20DZw/jZwNGACQFiGMRA7REwMkP5GYLLUsAZ0gCaDsiUINJbyW7ZIXvtN7CUBTAzIrnvHx2UBE48R44Mu6GWMVswBk+SxpyV6FAny9A65th10bJ8PfdGjKAsaAIo33M7VR68NTM6/ky3Za19vXbcNtA20DdxoA0cDJgY+b1bNgPqOd7zjWqRiLTDRYF6qFhqWdZYGVIO4N58mrz0Vyts46okcURdP7WSwnqNzrIgJ3ixDBZjQy2iMc/wkj8d4U9Y7TwKucn9NKloEnFnm8fTRUpl9gEmA0xKtvn5jh2udtE7aBtoG2ga228DRgIn3atjTYUA1Wzfrz98+wMQGz0RBLE94fHhsVAOk17R72Vpe7OapHNfl9zQPYLJrUM4eE+BmXMqxFOM6Xrw5deTBb/V5EVz49V4Rf67b/2J/Bxr0QgehEb3k95h6p4toD9ks5WxbihnL+m2PiY3I+NIeL37xi2+I2KScPTn5Vo73uuTpndwnS6IwIlJou5b7nW7vcK2f1k/bQNtA28B2GzgTMLH/Y07BNp16T0YGQu/PELlI3rXAxIBnBu/tpAZUGzt9X6YOhNk4a5OnZQp1enmYx3Pdc3idfMDCQx7ykGvfujHAohV6loKyn2UEJvbLoOEQ8ajlwgMA4amZ1FWBiQFe3Yl8ADp5j0j0IvVn6UVUJHyhLwJkMyva3hJLL/K7J580B/2nrDzOPa2T/Tdefue9L6lXOef0AZhko+wITNBxeErIS+Be8pKXTMtC+A2tTrd3uNZP66dtoG2gbWC7DZwJmFhWMMAZYA1qohM2W/peTL63IkrhMd7aEPsAEwOhl4sZlEUb1CliYPBVn8NH+Qz67hv4RQcMtgZM5b1NtX4fx9tNlTH4410+7wYRSQioGIEJuQAfdaDlyRZ1K48X7yWx/0NUJDQqMCH/hz70oWvA5G53u9u0IRZd5fGLlseZ82E/Oo3ebOz1pl31q8ObXy3xkCGAxJ6T97///dPL4fLm3JQHjABEvNERfQErAA75HcrYx2ODrHrmgInIlM23kRHNbR81TP2dbu+IrZ/WT9tA20DbwP+3gTMBEwPcbbfdNg3IZvQGZu8lMTMXeXDfF4czu8+SxVpgkkayL8QyDXoGTHU+5SlPmR4l9lp3Sw/uOQCXr33taxMgyQzfwG3/SUAD/gzyP/3TP7151rOeNfHo43UBPwbdEZgAIQBNIirK22DrhW1PetKTplflo2swv8Md7jDx6Skif+rHCxDhLbeWttDBD4BAb/SHvvLokEV0iA6UBVIAnbzB1n2gIDx4k6xv3gBPyotoKBcdSn0hOeBGeeDIq/y1kajSIx7xiGubZOl57gVrAJzIlfuO8DnWVevt83a4bQNtA20DbQNrbeBMwMQXhDNQZpkhA5a3nHohGlARZgzSziswsW8k97elwIaXpuVbL+oxAGdwNMganEVHDJI50HQuGmEjrf0dec9HeMW77+cAGAEeXklfB1vnlod8ZBCgkM+BB/R8w8f3eOwxcR24Eb1I/cr7A05EgCyXBIAkipGUjEATYBKdoSOqYUnpYQ972HUyjHoAdtQ98g8gefQYeMyyFx2oV0qHwJGlHr9/5Ed+5Lo9JugBma6nTnoT9al1bWvHvtfOqW2gbaBtoG1gmw2cCZiY5RvoLIEY1IEMqf0TBlVRhlq5QdbgaDnAEzYG8XGZp+Yfzy1HWEIBeOyz8A6URBsskyQyMw6S+S215GKpyQDsi7oiI1545hHaL33pSxNf+DewAzOVB/yrQ/QFSPqZn/mZiQ+y+JCgvJ/85CenR5ztvxhfOx9adGAZBlB6+tOfPvHxsz/7sxvf0vF4tKdmLMvgN8DEuUPkRNTC5l7RHjzQA3m0A75tPE5+aeqN/i0XqVukhA6UpVMRHkDyN3/zNyc9eFsvIJXySbWtSJVoDaAEMNV6kq/Tdj5tA20DbQNtA/vawN7ApH4rx0BokDUwAQ0iIQayujdijqEMmnP31lxTZ+oDFNS/plzyqN9mXIPwuFE0eXalQJeNovjYJe82WvRFBkf2mmzLn3tkUBYP5CDPPnwoDyACQMrSKdpr2iZ1k915eOq0HVDbQNtA20DbwFlt4MzAxGCYwczg5jj2YFXp1/N9lHFouX3qWJP3rHyk/JiuqfssedSXOs9Cp8u2E2sbaBtoG2gbqDZwbsAE0XGgyjJErbDPz98AW8/nr9O209Zp20DbQNvA5djA3sCkfisnSzlLjdcD5uU06lJ79PVuj7aBtoG2gbaBq24DewMTe0w8deItpIDJGCW56gI3f90p2wbaBtoG2gbaBq6uDewNTLwd1Qu2HF7G1Y17dRu326bbpm2gbaBtoG3gZrOBvYGJJ2A8zeHwFMnNJnDz2520baBtoG2gbaBt4OrawN7AZGzMXsq5uo07tlX/7rZqG2gbaBtoG7jqNnBmYHLVBWz+uhO2DbQNtA20DbQN3Dw20MDk/948jdUdq9uqbaBtoG2gbeDUbaCBSQOT3ifUNtA20DbQNtA2cGVsoIFJG+OVMcZTnwW0fD3TbRtoG2gb2G0DDUwamDQwaRtoG2gbaBtoG7gyNtDApI3xyhhjzyR2zyRaR62jtoG2gVO3gQYmDUwamLQNtA20DbQNtA1cGRtoYNLGeGWM8dRnAS1fz3TbBtoG2gZ220ADkwYmDUzaBtoG2gbaBtoGrowNNDBpY7wyxtgzid0zidZR66htoG3g1G2ggUkDkwYmbQNtA20DbQNtA1fGBhqYtDFeGWM89VlAy9cz3baBtoG2gd020MCkgUkDk7aBtoG2gbaBtoErYwMNTNoYr4wx9kxi90yiddQ6ahtoGzh1G2hg0sCkgUnbQNtA20DbQNvAlbGBBiZtjFfGGE99FtDy9Uy3baBtoG1gtw38P3sZEDBs7dqcAAAAAElFTkSuQmCC;" vertex="1" parent="7fllwTgMmEInO7BE3Gv8-1">
          <mxGeometry x="-1" y="-38" width="520" height="287" as="geometry" />
        </mxCell>
        <mxCell id="UK7_AiAvDv9DBchyRrNR-33" style="edgeStyle=orthogonalEdgeStyle;rounded=0;orthogonalLoop=1;jettySize=auto;html=1;exitX=1;exitY=0.5;exitDx=0;exitDy=0;entryX=0;entryY=0.5;entryDx=0;entryDy=0;" edge="1" parent="7fllwTgMmEInO7BE3Gv8-1" source="UK7_AiAvDv9DBchyRrNR-31" target="UK7_AiAvDv9DBchyRrNR-32">
          <mxGeometry relative="1" as="geometry" />
        </mxCell>
        <mxCell id="UK7_AiAvDv9DBchyRrNR-31" value="Purchase Order" style="shape=mxgraph.bpmn.shape;html=1;verticalLabelPosition=bottom;labelBackgroundColor=#ffffff;verticalAlign=top;align=center;perimeter=ellipsePerimeter;outlineConnect=0;outline=standard;symbol=general;fillColor=none;" vertex="1" parent="7fllwTgMmEInO7BE3Gv8-1">
          <mxGeometry x="80" y="360" width="50" height="50" as="geometry" />
        </mxCell>
        <mxCell id="UK7_AiAvDv9DBchyRrNR-35" style="edgeStyle=orthogonalEdgeStyle;rounded=0;orthogonalLoop=1;jettySize=auto;html=1;exitX=1;exitY=0.5;exitDx=0;exitDy=0;entryX=0;entryY=0.5;entryDx=0;entryDy=0;" edge="1" parent="7fllwTgMmEInO7BE3Gv8-1" source="UK7_AiAvDv9DBchyRrNR-32" target="UK7_AiAvDv9DBchyRrNR-34">
          <mxGeometry relative="1" as="geometry" />
        </mxCell>
        <mxCell id="UK7_AiAvDv9DBchyRrNR-32" value="Stock Availability Check" style="shape=ext;rounded=1;html=1;whiteSpace=wrap;fillColor=none;" vertex="1" parent="7fllwTgMmEInO7BE3Gv8-1">
          <mxGeometry x="208" y="345" width="120" height="80" as="geometry" />
        </mxCell>
        <mxCell id="UK7_AiAvDv9DBchyRrNR-34" value="" style="shape=mxgraph.bpmn.shape;html=1;verticalLabelPosition=bottom;labelBackgroundColor=#ffffff;verticalAlign=top;align=center;perimeter=rhombusPerimeter;background=gateway;outlineConnect=0;outline=none;symbol=exclusiveGw;fillColor=none;" vertex="1" parent="7fllwTgMmEInO7BE3Gv8-1">
          <mxGeometry x="370" y="362" width="50" height="46" as="geometry" />
        </mxCell>
        <mxCell id="UK7_AiAvDv9DBchyRrNR-36" value="" style="endArrow=block;endFill=1;endSize=6;html=1;exitX=0.5;exitY=0;exitDx=0;exitDy=0;" edge="1" parent="7fllwTgMmEInO7BE3Gv8-1" source="UK7_AiAvDv9DBchyRrNR-34">
          <mxGeometry width="100" relative="1" as="geometry">
            <mxPoint x="387" y="331" as="sourcePoint" />
            <mxPoint x="487" y="331" as="targetPoint" />
            <Array as="points">
              <mxPoint x="395" y="331" />
            </Array>
          </mxGeometry>
        </mxCell>
        <mxCell id="UK7_AiAvDv9DBchyRrNR-37" value="" style="endArrow=block;endFill=1;endSize=6;html=1;exitX=0.5;exitY=1;exitDx=0;exitDy=0;" edge="1" parent="7fllwTgMmEInO7BE3Gv8-1" source="UK7_AiAvDv9DBchyRrNR-34">
          <mxGeometry width="100" relative="1" as="geometry">
            <mxPoint x="392" y="432" as="sourcePoint" />
            <mxPoint x="492" y="432" as="targetPoint" />
            <Array as="points">
              <mxPoint x="395" y="432" />
            </Array>
          </mxGeometry>
        </mxCell>
        <mxCell id="UK7_AiAvDv9DBchyRrNR-53" value="" style="edgeStyle=orthogonalEdgeStyle;rounded=0;orthogonalLoop=1;jettySize=auto;html=1;" edge="1" parent="7fllwTgMmEInO7BE3Gv8-1" source="UK7_AiAvDv9DBchyRrNR-38" target="UK7_AiAvDv9DBchyRrNR-52">
          <mxGeometry relative="1" as="geometry" />
        </mxCell>
        <mxCell id="UK7_AiAvDv9DBchyRrNR-38" value="Rejected&amp;nbsp;&amp;nbsp;" style="shape=ext;rounded=1;html=1;whiteSpace=wrap;fillColor=none;" vertex="1" parent="7fllwTgMmEInO7BE3Gv8-1">
          <mxGeometry x="497" y="391" width="120" height="80" as="geometry" />
        </mxCell>
        <mxCell id="UK7_AiAvDv9DBchyRrNR-41" value="" style="edgeStyle=orthogonalEdgeStyle;rounded=0;orthogonalLoop=1;jettySize=auto;html=1;" edge="1" parent="7fllwTgMmEInO7BE3Gv8-1" source="UK7_AiAvDv9DBchyRrNR-39" target="UK7_AiAvDv9DBchyRrNR-40">
          <mxGeometry relative="1" as="geometry" />
        </mxCell>
        <mxCell id="UK7_AiAvDv9DBchyRrNR-39" value="Confirm" style="shape=ext;rounded=1;html=1;whiteSpace=wrap;fillColor=none;" vertex="1" parent="7fllwTgMmEInO7BE3Gv8-1">
          <mxGeometry x="488" y="287" width="124" height="80" as="geometry" />
        </mxCell>
        <mxCell id="UK7_AiAvDv9DBchyRrNR-40" value="" style="shape=mxgraph.bpmn.shape;html=1;verticalLabelPosition=bottom;labelBackgroundColor=#ffffff;verticalAlign=top;align=center;perimeter=rhombusPerimeter;background=gateway;outlineConnect=0;outline=none;symbol=parallelGw;fillColor=none;" vertex="1" parent="7fllwTgMmEInO7BE3Gv8-1">
          <mxGeometry x="657" y="302" width="50" height="50" as="geometry" />
        </mxCell>
        <mxCell id="UK7_AiAvDv9DBchyRrNR-42" value="" style="endArrow=block;endFill=1;endSize=6;html=1;exitX=0.5;exitY=0;exitDx=0;exitDy=0;" edge="1" parent="7fllwTgMmEInO7BE3Gv8-1" source="UK7_AiAvDv9DBchyRrNR-40">
          <mxGeometry width="100" relative="1" as="geometry">
            <mxPoint x="681" y="282" as="sourcePoint" />
            <mxPoint x="781" y="282" as="targetPoint" />
            <Array as="points">
              <mxPoint x="682" y="282" />
            </Array>
          </mxGeometry>
        </mxCell>
        <mxCell id="UK7_AiAvDv9DBchyRrNR-43" value="" style="endArrow=block;endFill=1;endSize=6;html=1;exitX=0.5;exitY=1;exitDx=0;exitDy=0;" edge="1" parent="7fllwTgMmEInO7BE3Gv8-1" source="UK7_AiAvDv9DBchyRrNR-40">
          <mxGeometry width="100" relative="1" as="geometry">
            <mxPoint x="686" y="385" as="sourcePoint" />
            <mxPoint x="786" y="385" as="targetPoint" />
            <Array as="points">
              <mxPoint x="682" y="385" />
            </Array>
          </mxGeometry>
        </mxCell>
        <mxCell id="UK7_AiAvDv9DBchyRrNR-44" value="Invoice" style="shape=ext;rounded=1;html=1;whiteSpace=wrap;fillColor=none;" vertex="1" parent="7fllwTgMmEInO7BE3Gv8-1">
          <mxGeometry x="783" y="241" width="120" height="80" as="geometry" />
        </mxCell>
        <mxCell id="UK7_AiAvDv9DBchyRrNR-45" value="shipment notice" style="shape=ext;rounded=1;html=1;whiteSpace=wrap;fillColor=none;" vertex="1" parent="7fllwTgMmEInO7BE3Gv8-1">
          <mxGeometry x="786" y="345" width="120" height="80" as="geometry" />
        </mxCell>
        <mxCell id="12LY-tpa5QZVjIez0GfZ-3" value="" style="edgeStyle=orthogonalEdgeStyle;rounded=0;orthogonalLoop=1;jettySize=auto;html=1;" edge="1" parent="7fllwTgMmEInO7BE3Gv8-1" source="UK7_AiAvDv9DBchyRrNR-46" target="12LY-tpa5QZVjIez0GfZ-1">
          <mxGeometry relative="1" as="geometry" />
        </mxCell>
        <mxCell id="UK7_AiAvDv9DBchyRrNR-46" value="" style="shape=mxgraph.bpmn.shape;html=1;verticalLabelPosition=bottom;labelBackgroundColor=#ffffff;verticalAlign=top;align=center;perimeter=rhombusPerimeter;background=gateway;outlineConnect=0;outline=none;symbol=parallelGw;fillColor=none;" vertex="1" parent="7fllwTgMmEInO7BE3Gv8-1">
          <mxGeometry x="979" y="295" width="58" height="50" as="geometry" />
        </mxCell>
        <mxCell id="UK7_AiAvDv9DBchyRrNR-48" value="" style="endArrow=block;endFill=1;endSize=6;html=1;entryX=0.5;entryY=0;entryDx=0;entryDy=0;" edge="1" parent="7fllwTgMmEInO7BE3Gv8-1" target="UK7_AiAvDv9DBchyRrNR-46">
          <mxGeometry width="100" relative="1" as="geometry">
            <mxPoint x="902" y="280" as="sourcePoint" />
            <mxPoint x="1002" y="280" as="targetPoint" />
            <Array as="points">
              <mxPoint x="1004" y="280" />
            </Array>
          </mxGeometry>
        </mxCell>
        <mxCell id="UK7_AiAvDv9DBchyRrNR-49" value="" style="endArrow=block;endFill=1;endSize=6;html=1;entryX=0.5;entryY=1;entryDx=0;entryDy=0;" edge="1" parent="7fllwTgMmEInO7BE3Gv8-1" source="UK7_AiAvDv9DBchyRrNR-45" target="UK7_AiAvDv9DBchyRrNR-46">
          <mxGeometry width="100" relative="1" as="geometry">
            <mxPoint x="906" y="385" as="sourcePoint" />
            <mxPoint x="1006" y="385" as="targetPoint" />
            <Array as="points">
              <mxPoint x="1004" y="385" />
            </Array>
          </mxGeometry>
        </mxCell>
        <mxCell id="UK7_AiAvDv9DBchyRrNR-50" value="Order fulfilled" style="shape=mxgraph.bpmn.shape;html=1;verticalLabelPosition=bottom;labelBackgroundColor=#ffffff;verticalAlign=top;align=center;perimeter=ellipsePerimeter;outlineConnect=0;outline=end;symbol=general;fillColor=none;" vertex="1" parent="7fllwTgMmEInO7BE3Gv8-1">
          <mxGeometry x="1266" y="300" width="50" height="50" as="geometry" />
        </mxCell>
        <mxCell id="UK7_AiAvDv9DBchyRrNR-52" value="Order Rejected" style="shape=mxgraph.bpmn.shape;html=1;verticalLabelPosition=bottom;labelBackgroundColor=#ffffff;verticalAlign=top;align=center;perimeter=ellipsePerimeter;outlineConnect=0;outline=end;symbol=general;fillColor=none;" vertex="1" parent="7fllwTgMmEInO7BE3Gv8-1">
          <mxGeometry x="672" y="406" width="50" height="50" as="geometry" />
        </mxCell>
        <mxCell id="12LY-tpa5QZVjIez0GfZ-2" value="" style="edgeStyle=orthogonalEdgeStyle;rounded=0;orthogonalLoop=1;jettySize=auto;html=1;" edge="1" parent="7fllwTgMmEInO7BE3Gv8-1" source="12LY-tpa5QZVjIez0GfZ-1" target="UK7_AiAvDv9DBchyRrNR-50">
          <mxGeometry relative="1" as="geometry" />
        </mxCell>
        <mxCell id="12LY-tpa5QZVjIez0GfZ-1" value="Task" style="shape=ext;rounded=1;html=1;whiteSpace=wrap;fillColor=none;" vertex="1" parent="7fllwTgMmEInO7BE3Gv8-1">
          <mxGeometry x="1105" y="280" width="120" height="80" as="geometry" />
        </mxCell>
        <mxCell id="12LY-tpa5QZVjIez0GfZ-4" value="Purchase Order" style="shape=note;whiteSpace=wrap;size=16;html=1;dropTarget=0;fillColor=none;" vertex="1" parent="7fllwTgMmEInO7BE3Gv8-1">
          <mxGeometry x="190" y="220" width="40" height="60" as="geometry" />
        </mxCell>
        <mxCell id="12LY-tpa5QZVjIez0GfZ-8" value="" style="startArrow=oval;startFill=0;startSize=7;endArrow=block;endFill=0;endSize=10;dashed=1;html=1;exitX=0.5;exitY=1;exitDx=0;exitDy=0;exitPerimeter=0;entryX=0.25;entryY=0;entryDx=0;entryDy=0;" edge="1" parent="7fllwTgMmEInO7BE3Gv8-1" source="12LY-tpa5QZVjIez0GfZ-4" target="UK7_AiAvDv9DBchyRrNR-32">
          <mxGeometry width="100" relative="1" as="geometry">
            <mxPoint x="213" y="306" as="sourcePoint" />
            <mxPoint x="313" y="306" as="targetPoint" />
            <Array as="points">
              <mxPoint x="210" y="345" />
            </Array>
          </mxGeometry>
        </mxCell>
        <mxCell id="12LY-tpa5QZVjIez0GfZ-9" value="Purchase Order&lt;br&gt;(Updated)" style="shape=note;whiteSpace=wrap;size=16;html=1;dropTarget=0;fillColor=none;" vertex="1" parent="7fllwTgMmEInO7BE3Gv8-1">
          <mxGeometry x="295" y="220" width="40" height="60" as="geometry" />
        </mxCell>
        <mxCell id="12LY-tpa5QZVjIez0GfZ-11" value="" style="shape=datastore;whiteSpace=wrap;html=1;fillColor=none;" vertex="1" parent="7fllwTgMmEInO7BE3Gv8-1">
          <mxGeometry x="187" y="469" width="60" height="60" as="geometry" />
        </mxCell>
        <mxCell id="12LY-tpa5QZVjIez0GfZ-12" value="" style="startArrow=oval;startFill=0;startSize=7;endArrow=block;endFill=0;endSize=10;dashed=1;html=1;entryX=0.358;entryY=1.025;entryDx=0;entryDy=0;entryPerimeter=0;" edge="1" parent="7fllwTgMmEInO7BE3Gv8-1" target="UK7_AiAvDv9DBchyRrNR-32">
          <mxGeometry width="100" relative="1" as="geometry">
            <mxPoint x="218" y="468" as="sourcePoint" />
            <mxPoint x="318" y="468" as="targetPoint" />
          </mxGeometry>
        </mxCell>
        <mxCell id="12LY-tpa5QZVjIez0GfZ-13" value="" style="startArrow=oval;startFill=0;startSize=7;endArrow=block;endFill=0;endSize=10;dashed=1;html=1;exitX=0.5;exitY=0;exitDx=0;exitDy=0;entryX=0.5;entryY=1;entryDx=0;entryDy=0;entryPerimeter=0;" edge="1" parent="7fllwTgMmEInO7BE3Gv8-1" source="UK7_AiAvDv9DBchyRrNR-32" target="12LY-tpa5QZVjIez0GfZ-9">
          <mxGeometry width="100" relative="1" as="geometry">
            <mxPoint x="265" y="280" as="sourcePoint" />
            <mxPoint x="293" y="345" as="targetPoint" />
            <Array as="points">
              <mxPoint x="315" y="345" />
            </Array>
          </mxGeometry>
        </mxCell>
        <mxCell id="12LY-tpa5QZVjIez0GfZ-15" value="" style="startArrow=oval;startFill=0;startSize=7;endArrow=block;endFill=0;endSize=10;dashed=1;html=1;entryX=0.629;entryY=0;entryDx=0;entryDy=0;entryPerimeter=0;" edge="1" parent="7fllwTgMmEInO7BE3Gv8-1" source="12LY-tpa5QZVjIez0GfZ-9" target="UK7_AiAvDv9DBchyRrNR-39">
          <mxGeometry width="100" relative="1" as="geometry">
            <mxPoint x="338" y="249" as="sourcePoint" />
            <mxPoint x="438" y="249" as="targetPoint" />
            <Array as="points">
              <mxPoint x="566" y="249" />
            </Array>
          </mxGeometry>
        </mxCell>
        <mxCell id="12LY-tpa5QZVjIez0GfZ-18" value="" style="startArrow=oval;startFill=0;startSize=7;endArrow=block;endFill=0;endSize=10;dashed=1;html=1;entryX=-0.017;entryY=0.338;entryDx=0;entryDy=0;entryPerimeter=0;exitX=0;exitY=0;exitDx=40;exitDy=38;exitPerimeter=0;" edge="1" parent="7fllwTgMmEInO7BE3Gv8-1" source="12LY-tpa5QZVjIez0GfZ-9" target="UK7_AiAvDv9DBchyRrNR-38">
          <mxGeometry width="100" relative="1" as="geometry">
            <mxPoint x="339" y="252" as="sourcePoint" />
            <mxPoint x="439" y="252" as="targetPoint" />
            <Array as="points">
              <mxPoint x="335" y="418" />
            </Array>
          </mxGeometry>
        </mxCell>
        <mxCell id="12LY-tpa5QZVjIez0GfZ-19" value="Purchase Order&lt;br&gt;(Approved)" style="shape=note;whiteSpace=wrap;size=16;html=1;dropTarget=0;fillColor=none;" vertex="1" parent="7fllwTgMmEInO7BE3Gv8-1">
          <mxGeometry x="657" y="179" width="40" height="60" as="geometry" />
        </mxCell>
        <mxCell id="12LY-tpa5QZVjIez0GfZ-20" value="" style="startArrow=oval;startFill=0;startSize=7;endArrow=block;endFill=0;endSize=10;dashed=1;html=1;entryX=-0.125;entryY=0.617;entryDx=0;entryDy=0;entryPerimeter=0;" edge="1" parent="7fllwTgMmEInO7BE3Gv8-1" target="12LY-tpa5QZVjIez0GfZ-19">
          <mxGeometry width="100" relative="1" as="geometry">
            <mxPoint x="578" y="285" as="sourcePoint" />
            <mxPoint x="678" y="285" as="targetPoint" />
            <Array as="points">
              <mxPoint x="578" y="216" />
            </Array>
          </mxGeometry>
        </mxCell>
        <mxCell id="12LY-tpa5QZVjIez0GfZ-21" value="" style="startArrow=oval;startFill=0;startSize=7;endArrow=block;endFill=0;endSize=10;dashed=1;html=1;entryX=0.2;entryY=-0.012;entryDx=0;entryDy=0;entryPerimeter=0;" edge="1" parent="7fllwTgMmEInO7BE3Gv8-1" target="UK7_AiAvDv9DBchyRrNR-44">
          <mxGeometry width="100" relative="1" as="geometry">
            <mxPoint x="700" y="211" as="sourcePoint" />
            <mxPoint x="800" y="211" as="targetPoint" />
            <Array as="points">
              <mxPoint x="807" y="211" />
            </Array>
          </mxGeometry>
        </mxCell>
        <mxCell id="12LY-tpa5QZVjIez0GfZ-22" value="" style="startArrow=oval;startFill=0;startSize=7;endArrow=block;endFill=0;endSize=10;dashed=1;html=1;entryX=0;entryY=0.65;entryDx=0;entryDy=0;entryPerimeter=0;exitX=0;exitY=1;exitDx=0;exitDy=0;exitPerimeter=0;" edge="1" parent="7fllwTgMmEInO7BE3Gv8-1" source="12LY-tpa5QZVjIez0GfZ-19" target="UK7_AiAvDv9DBchyRrNR-45">
          <mxGeometry width="100" relative="1" as="geometry">
            <mxPoint x="693" y="239" as="sourcePoint" />
            <mxPoint x="793" y="239" as="targetPoint" />
            <Array as="points">
              <mxPoint x="657" y="397" />
            </Array>
          </mxGeometry>
        </mxCell>
        <mxCell id="12LY-tpa5QZVjIez0GfZ-23" value="Invoice" style="shape=note;whiteSpace=wrap;size=16;html=1;dropTarget=0;fillColor=none;" vertex="1" parent="7fllwTgMmEInO7BE3Gv8-1">
          <mxGeometry x="925" y="151" width="40" height="60" as="geometry" />
        </mxCell>
        <mxCell id="12LY-tpa5QZVjIez0GfZ-24" value="" style="startArrow=oval;startFill=0;startSize=7;endArrow=block;endFill=0;endSize=10;dashed=1;html=1;exitX=0.333;exitY=-0.025;exitDx=0;exitDy=0;exitPerimeter=0;" edge="1" parent="7fllwTgMmEInO7BE3Gv8-1" source="UK7_AiAvDv9DBchyRrNR-44">
          <mxGeometry width="100" relative="1" as="geometry">
            <mxPoint x="824" y="182" as="sourcePoint" />
            <mxPoint x="924" y="182" as="targetPoint" />
            <Array as="points">
              <mxPoint x="823" y="182" />
            </Array>
          </mxGeometry>
        </mxCell>
        <mxCell id="12LY-tpa5QZVjIez0GfZ-25" value="" style="startArrow=oval;startFill=0;startSize=7;endArrow=block;endFill=0;endSize=10;dashed=1;html=1;entryX=0.558;entryY=0.013;entryDx=0;entryDy=0;entryPerimeter=0;" edge="1" parent="7fllwTgMmEInO7BE3Gv8-1" target="12LY-tpa5QZVjIez0GfZ-1">
          <mxGeometry width="100" relative="1" as="geometry">
            <mxPoint x="700" y="199" as="sourcePoint" />
            <mxPoint x="800" y="199" as="targetPoint" />
            <Array as="points">
              <mxPoint x="1172" y="199" />
            </Array>
          </mxGeometry>
        </mxCell>
        <mxCell id="12LY-tpa5QZVjIez0GfZ-26" value="" style="startArrow=oval;startFill=0;startSize=7;endArrow=block;endFill=0;endSize=10;dashed=1;html=1;exitX=0.358;exitY=1.038;exitDx=0;exitDy=0;exitPerimeter=0;" edge="1" parent="7fllwTgMmEInO7BE3Gv8-1" source="12LY-tpa5QZVjIez0GfZ-1">
          <mxGeometry width="100" relative="1" as="geometry">
            <mxPoint x="1151" y="380" as="sourcePoint" />
            <mxPoint x="1151" y="470" as="targetPoint" />
          </mxGeometry>
        </mxCell>
        <mxCell id="12LY-tpa5QZVjIez0GfZ-27" value="Order DB" style="shape=datastore;whiteSpace=wrap;html=1;fillColor=none;" vertex="1" parent="7fllwTgMmEInO7BE3Gv8-1">
          <mxGeometry x="1121" y="471" width="60" height="60" as="geometry" />
        </mxCell>
        <mxCell id="12LY-tpa5QZVjIez0GfZ-28" value="Shipment Notice" style="shape=note;whiteSpace=wrap;size=16;html=1;dropTarget=0;fillColor=none;" vertex="1" parent="7fllwTgMmEInO7BE3Gv8-1">
          <mxGeometry x="863" y="479" width="40" height="60" as="geometry" />
        </mxCell>
        <mxCell id="12LY-tpa5QZVjIez0GfZ-29" value="" style="startArrow=oval;startFill=0;startSize=7;endArrow=block;endFill=0;endSize=10;dashed=1;html=1;exitX=0.75;exitY=1;exitDx=0;exitDy=0;" edge="1" parent="7fllwTgMmEInO7BE3Gv8-1" source="UK7_AiAvDv9DBchyRrNR-45">
          <mxGeometry width="100" relative="1" as="geometry">
            <mxPoint x="777" y="477" as="sourcePoint" />
            <mxPoint x="877" y="477" as="targetPoint" />
          </mxGeometry>
        </mxCell>
        <mxCell id="12LY-tpa5QZVjIez0GfZ-30" value="Purchase Order&lt;br&gt;(Declined)" style="shape=note;whiteSpace=wrap;size=16;html=1;dropTarget=0;fillColor=none;" vertex="1" parent="7fllwTgMmEInO7BE3Gv8-1">
          <mxGeometry x="530" y="526" width="40" height="60" as="geometry" />
        </mxCell>
        <mxCell id="12LY-tpa5QZVjIez0GfZ-31" value="" style="startArrow=oval;startFill=0;startSize=7;endArrow=block;endFill=0;endSize=10;dashed=1;html=1;exitX=0.75;exitY=1;exitDx=0;exitDy=0;" edge="1" parent="7fllwTgMmEInO7BE3Gv8-1">
          <mxGeometry width="100" relative="1" as="geometry">
            <mxPoint x="549.5" y="473" as="sourcePoint" />
            <mxPoint x="550.5" y="525" as="targetPoint" />
          </mxGeometry>
        </mxCell>
      </root>
    </mxGraphModel>
  </diagram>
  <diagram id="mAifwKRqNzcdwb_Z951-" name="Pool, Lanes and Text Annotations">
    <mxGraphModel dx="2060" dy="1323" grid="0" gridSize="10" guides="1" tooltips="1" connect="1" arrows="1" fold="1" page="0" pageScale="1" pageWidth="1654" pageHeight="1169" math="0" shadow="0">
      <root>
        <mxCell id="dMozwgcin1lYpaabaZQ3-0" />
        <mxCell id="dMozwgcin1lYpaabaZQ3-1" parent="dMozwgcin1lYpaabaZQ3-0" />
        <mxCell id="dMozwgcin1lYpaabaZQ3-2" value="Insurance Company&lt;br&gt;" style="swimlane;html=1;horizontal=0;startSize=20;fillColor=none;" vertex="1" parent="dMozwgcin1lYpaabaZQ3-1">
          <mxGeometry x="-395" y="-491" width="562" height="765" as="geometry">
            <mxRectangle x="-395" y="-491" width="24" height="47" as="alternateBounds" />
          </mxGeometry>
        </mxCell>
        <mxCell id="THIVRfTg-Cq_cb45GQQ0-4" value="Customer Service" style="swimlane;html=1;horizontal=0;swimlaneLine=0;fillColor=none;" vertex="1" parent="dMozwgcin1lYpaabaZQ3-2">
          <mxGeometry x="35" y="379" width="300" height="120" as="geometry" />
        </mxCell>
        <mxCell id="THIVRfTg-Cq_cb45GQQ0-2" value="Includes Packaging" style="html=1;shape=mxgraph.flowchart.annotation_2;align=left;labelPosition=right;fillColor=none;" vertex="1" parent="dMozwgcin1lYpaabaZQ3-1">
          <mxGeometry x="385" y="-382" width="50" height="100" as="geometry" />
        </mxCell>
        <mxCell id="THIVRfTg-Cq_cb45GQQ0-3" value="Ship Goods" style="shape=ext;rounded=1;html=1;whiteSpace=wrap;fillColor=none;" vertex="1" parent="dMozwgcin1lYpaabaZQ3-1">
          <mxGeometry x="270" y="-203" width="120" height="80" as="geometry" />
        </mxCell>
        <mxCell id="THIVRfTg-Cq_cb45GQQ0-6" value="Text Annotations" style="text;html=1;align=center;verticalAlign=middle;resizable=0;points=[];autosize=1;" vertex="1" parent="dMozwgcin1lYpaabaZQ3-1">
          <mxGeometry x="236" y="-401" width="98" height="18" as="geometry" />
        </mxCell>
        <mxCell id="THIVRfTg-Cq_cb45GQQ0-7" value="Pools, Lanes" style="text;html=1;align=center;verticalAlign=middle;resizable=0;points=[];autosize=1;" vertex="1" parent="dMozwgcin1lYpaabaZQ3-1">
          <mxGeometry x="-434" y="-530" width="79" height="18" as="geometry" />
        </mxCell>
        <mxCell id="tOgvvPNcBAwqTl74hKTl-5" value="" style="endArrow=none;dashed=1;html=1;entryX=0;entryY=0.5;entryDx=0;entryDy=0;entryPerimeter=0;" edge="1" parent="dMozwgcin1lYpaabaZQ3-1" target="THIVRfTg-Cq_cb45GQQ0-2">
          <mxGeometry width="50" height="50" relative="1" as="geometry">
            <mxPoint x="324" y="-203" as="sourcePoint" />
            <mxPoint x="374" y="-253" as="targetPoint" />
            <Array as="points">
              <mxPoint x="324" y="-332" />
            </Array>
          </mxGeometry>
        </mxCell>
      </root>
    </mxGraphModel>
  </diagram>
  <diagram id="GoLnDzJSgjwSvpzooE1k" name="Page-4">
    <mxGraphModel dx="612" dy="520" grid="1" gridSize="10" guides="1" tooltips="1" connect="1" arrows="1" fold="1" page="1" pageScale="1" pageWidth="1654" pageHeight="1169" math="0" shadow="0">
      <root>
        <mxCell id="8TMZo_dq8D0GyLGULoe--0" />
        <mxCell id="8TMZo_dq8D0GyLGULoe--1" parent="8TMZo_dq8D0GyLGULoe--0" />
      </root>
    </mxGraphModel>
  </diagram>
</mxfile>
